<svg width="40" height="40" viewBox="0 0 40 40" fill="none" xmlns="http://www.w3.org/2000/svg">
<path d="M19.9998 9.375C19.5685 9.375 19.2185 9.725 19.2185 10.1562C19.2185 10.5875 19.5685 10.9375 19.9998 10.9375C20.431 10.9375 20.781 10.5875 20.781 10.1562C20.781 9.725 20.431 9.375 19.9998 9.375Z" fill="black"/>
<path d="M31.5311 0.931717C28.5998 0.322187 24.6124 0 20 0C15.3876 0 11.4001 0.322187 8.46882 0.931717C5.18843 1.61382 3.59375 2.58679 3.59375 3.90624V8.06483C3.59375 8.42834 3.7993 8.56975 4.00062 8.86842C8.01648 14.2271 11.1017 17.4463 16.0937 21.4678V39.2187C16.0937 39.4484 16.1949 39.6666 16.3703 39.8151C16.5508 39.9677 16.7846 40.0262 17.0041 39.9892C19.755 39.528 22.223 37.9247 23.7755 35.5904C23.8607 35.4622 23.9062 35.3117 23.9062 35.1577V21.4678C26.4578 19.4122 28.4299 17.6309 30.2635 15.7262C32.1274 13.7901 33.8964 11.6751 35.9996 8.86811C36.1685 8.60139 36.4007 8.45287 36.4057 8.07616C36.4058 8.07241 36.4062 8.06866 36.4062 8.06491V3.90624C36.4062 2.58679 34.8115 1.61382 31.5311 0.931717ZM9.07991 2.40234C11.8845 1.85297 15.6606 1.5625 20 1.5625C24.3393 1.5625 28.1154 1.85297 30.92 2.40234C33.91 2.98812 34.7654 3.69038 34.8416 3.90624C34.7653 4.1221 33.91 4.82437 30.92 5.41015C28.1154 5.95952 24.3393 6.24999 20 6.24999C15.6606 6.24999 11.8845 5.95952 9.07991 5.41015C6.08984 4.82437 5.23453 4.1221 5.15828 3.90624C5.23453 3.69038 6.08984 2.98812 9.07991 2.40234ZM22.3437 34.916C21.2048 36.532 19.5383 37.7087 17.6562 38.2432V21.875H22.3437V34.916ZM34.8437 7.52483C32.4166 8.42412 29.641 9.16092 23.1034 9.33545C22.6721 9.34694 22.3318 9.70592 22.3433 10.1372C22.3547 10.5615 22.7021 10.8976 23.1239 10.8976C23.1309 10.8976 23.138 10.8976 23.145 10.8973C28.3039 10.7597 31.2196 10.2764 33.4461 9.6349C31.9296 11.5751 30.5601 13.1653 29.1379 14.6426C27.3332 16.5172 25.3866 18.2731 22.8504 20.3125H17.1496C12.7805 16.7991 9.90514 13.9197 6.55445 9.63506C8.78085 10.2765 11.6965 10.7597 16.855 10.8973C16.8621 10.8976 16.8692 10.8976 16.8761 10.8976C17.2979 10.8976 17.6454 10.5614 17.6567 10.1372C17.6682 9.70592 17.3279 9.34701 16.8966 9.33545C10.3589 9.16092 7.58335 8.4242 5.15625 7.52483V5.83007C5.9514 6.23741 7.05265 6.58624 8.46882 6.88077C11.4001 7.4903 15.3876 7.81249 20 7.81249C24.6124 7.81249 28.5998 7.4903 31.5311 6.88077C32.9473 6.58624 34.0485 6.23749 34.8437 5.83007V7.52483Z" fill="black"/>
</svg>
