<svg width="40" height="40" viewBox="0 0 40 40" fill="none" xmlns="http://www.w3.org/2000/svg">
<path d="M30.9375 18.4375C30.5062 18.4375 30.1562 18.7875 30.1562 19.2188C30.1562 19.65 30.5062 20 30.9375 20C31.3687 20 31.7188 19.65 31.7188 19.2188C31.7188 18.7875 31.3687 18.4375 30.9375 18.4375Z" fill="black"/>
<path d="M9.0625 18.4375C8.63125 18.4375 8.28125 18.7875 8.28125 19.2188C8.28125 19.65 8.63125 20 9.0625 20C9.49375 20 9.84375 19.65 9.84375 19.2188C9.84375 18.7875 9.49375 18.4375 9.0625 18.4375Z" fill="black"/>
<path d="M27.0312 21.5625H23.125V17.6562C23.125 17.2248 22.7752 16.875 22.3438 16.875H17.6562C17.2248 16.875 16.875 17.2248 16.875 17.6562V21.5625H12.9688C12.5373 21.5625 12.1875 21.9123 12.1875 22.3438V27.0312C12.1875 27.4627 12.5373 27.8125 12.9688 27.8125H16.875V31.7188C16.875 32.1502 17.2248 32.5 17.6562 32.5H22.3438C22.7752 32.5 23.125 32.1502 23.125 31.7188V27.8125H27.0312C27.4627 27.8125 27.8125 27.4627 27.8125 27.0312V22.3438C27.8125 21.9123 27.4627 21.5625 27.0312 21.5625ZM26.25 26.25H22.3438C21.9123 26.25 21.5625 26.5998 21.5625 27.0312V30.9375H18.4375V27.0312C18.4375 26.5998 18.0877 26.25 17.6562 26.25H13.75V23.125H17.6562C18.0877 23.125 18.4375 22.7752 18.4375 22.3438V18.4375H21.5625V22.3438C21.5625 22.7752 21.9123 23.125 22.3438 23.125H26.25V26.25Z" fill="black"/>
<path d="M36.0938 10.625H30.1562V5.9375C30.1562 3.35281 28.0534 1.25 25.4688 1.25H14.5312C11.9466 1.25 9.84375 3.35281 9.84375 5.9375V10.625H3.90625C1.75234 10.625 0 12.3773 0 14.5312V34.8438C0 36.9977 1.75234 38.75 3.90625 38.75H36.0938C38.2477 38.75 40 36.9977 40 34.8438V14.5312C40 12.3773 38.2477 10.625 36.0938 10.625ZM11.4062 5.9375C11.4062 4.21438 12.8081 2.8125 14.5312 2.8125H25.4688C27.1919 2.8125 28.5938 4.21438 28.5938 5.9375V10.625H27.0312V6.71875C27.0312 5.42641 25.9798 4.375 24.6875 4.375H15.3125C14.0202 4.375 12.9688 5.42641 12.9688 6.71875V10.625H11.4062V5.9375ZM25.4688 6.71875V10.625H14.5312V6.71875C14.5312 6.28797 14.8817 5.9375 15.3125 5.9375H24.6875C25.1183 5.9375 25.4688 6.28797 25.4688 6.71875ZM5.15625 37.1875H3.90625C2.61391 37.1875 1.5625 36.1361 1.5625 34.8438V14.5312C1.5625 13.2389 2.61391 12.1875 3.90625 12.1875H5.15625V37.1875ZM33.2812 37.1875H31.7188V22.3438C31.7188 21.9123 31.3689 21.5625 30.9375 21.5625C30.5061 21.5625 30.1562 21.9123 30.1562 22.3438V37.1875H9.84375V22.3438C9.84375 21.9123 9.49391 21.5625 9.0625 21.5625C8.63109 21.5625 8.28125 21.9123 8.28125 22.3438V37.1875H6.71875V12.1875H8.28125V16.0938C8.28125 16.5252 8.63109 16.875 9.0625 16.875C9.49391 16.875 9.84375 16.5252 9.84375 16.0938V12.1875H30.1562V16.0938C30.1562 16.5252 30.5061 16.875 30.9375 16.875C31.3689 16.875 31.7188 16.5252 31.7188 16.0938V12.1875H33.2812V37.1875ZM38.4375 34.8438C38.4375 36.1361 37.3861 37.1875 36.0938 37.1875H34.8438V12.1875H36.0938C37.3861 12.1875 38.4375 13.2389 38.4375 14.5312V34.8438Z" fill="black"/>
</svg>
