<svg width="40" height="40" viewBox="0 0 40 40" fill="none" xmlns="http://www.w3.org/2000/svg">
<g clip-path="url(#clip0_83_262)">
<path d="M22.3438 29.8438C21.9125 29.8438 21.5625 30.1937 21.5625 30.625C21.5625 31.0562 21.9125 31.4062 22.3438 31.4062C22.775 31.4062 23.125 31.0562 23.125 30.625C23.125 30.1937 22.775 29.8438 22.3438 29.8438Z" fill="black"/>
<path d="M33.3235 32.9698L32.6833 31.0491C34.5838 29.0162 35.6249 26.3879 35.6249 23.5938C35.6249 18.6731 32.3389 14.3713 27.7178 13.0264L29.6328 9.70941C29.8485 9.33574 29.7204 8.858 29.3468 8.64222L28.6702 8.2516L29.4514 6.89848L30.128 7.2891C30.5008 7.50433 30.9789 7.37769 31.1952 7.00316L32.7577 4.29692C32.9733 3.92348 32.8453 3.44543 32.4717 3.22973L27.0593 0.104738C26.6857 -0.110887 26.2078 0.0170817 25.9921 0.390675L24.4296 3.09692C24.2139 3.47036 24.3419 3.9484 24.7155 4.1641L25.3921 4.55473L24.6108 5.90785L23.9343 5.51723C23.5609 5.3016 23.0827 5.42957 22.8671 5.80316L17.0077 15.9523L16.3312 15.5617C15.9579 15.346 15.4797 15.474 15.264 15.8476L13.7015 18.5539C13.4857 18.9276 13.6137 19.4053 13.9874 19.6211L22.1061 24.3086C22.4772 24.523 22.9563 24.3985 23.1733 24.0227L24.7358 21.3163C24.9516 20.9427 24.8236 20.4649 24.4499 20.2492L23.7733 19.8585L24.3503 18.8592C27.0742 18.664 29.375 20.8515 29.375 23.5938C29.375 24.4298 29.1594 25.228 28.7484 25.9362C27.7343 25.4243 26.6143 25.1563 25.4687 25.1563C23.8324 25.1563 22.2437 25.7094 20.9615 26.7188H13.3375C11.8487 26.7188 10.5098 27.5461 9.84327 28.8782L9.14483 30.2759C9.02382 30.518 9.03679 30.8055 9.17913 31.0359C9.32148 31.2662 9.57296 31.4063 9.84366 31.4063H18.135L17.6141 32.9688H6.71875V32.9687C5.4264 32.9687 4.375 34.0201 4.375 35.3125V39.2187C4.375 39.6501 4.72477 40 5.15625 40H34.8437C35.2752 40 35.6249 39.6501 35.6249 39.2187V35.3125C35.6249 34.0344 34.5964 32.9926 33.3235 32.9698ZM26.9546 1.84848L31.014 4.19223L30.2328 5.54527C29.3291 5.02356 27.2277 3.8102 26.1734 3.20153L26.9546 1.84848ZM26.7453 5.33598L28.0984 6.11723L27.3171 7.47035L25.9641 6.6891L26.7453 5.33598ZM22.2109 22.5648L15.4453 18.6586L16.2265 17.3055C16.9447 17.7201 21.3661 20.2729 22.3154 20.821C22.3154 20.8211 22.3155 20.8211 22.3157 20.8212C22.3157 20.8212 22.3158 20.8213 22.3159 20.8213L22.9922 21.2117L22.2109 22.5648ZM22.4202 19.0773L18.3608 16.7335L23.8297 7.26097C25.4196 8.17894 26.3524 8.71753 26.8686 9.01558C26.7506 8.94738 26.6581 8.89402 26.6474 8.88785C26.667 8.89917 26.9723 9.07542 27.889 9.60472C27.0816 11.0033 23.1046 17.8919 22.4202 19.0773ZM25.2443 17.3108L26.9096 14.4263C31.0856 15.4425 34.0624 19.2135 34.0624 23.5938C34.0624 25.7143 33.3622 27.7236 32.0704 29.3661C31.6045 28.368 30.9153 27.4842 30.0608 26.7884C30.6363 25.8264 30.9375 24.7363 30.9375 23.5938C30.9375 20.3043 28.4306 17.5963 25.2443 17.3108ZM25.4687 26.7188C27.9604 26.7188 30.1276 28.3233 30.897 30.631L31.6762 32.9687H19.2613L20.0404 30.6314C20.8261 28.2747 23.0304 26.7188 25.4687 26.7188ZM11.1076 29.8437C11.1616 29.7805 11.659 28.2734 13.3376 28.2734H19.4898C19.1529 28.7577 18.8751 29.2907 18.6639 29.8437H11.1076ZM34.0624 38.4375H5.9375V35.3125C5.9375 34.8817 6.28797 34.5312 6.71875 34.5312C7.36171 34.5312 31.9528 34.5312 33.2812 34.5312C33.7121 34.5312 34.0624 34.8817 34.0624 35.3125V38.4375Z" fill="black"/>
<path d="M26.9639 9.07056C27.0111 9.09782 27.0543 9.12274 27.0934 9.14532C27.0504 9.12048 27.0065 9.09517 26.9639 9.07056Z" fill="black"/>
<path d="M26.9585 9.06738C26.9602 9.0684 26.9619 9.06934 26.9637 9.07035C26.9619 9.06934 26.9602 9.0684 26.9585 9.06738Z" fill="black"/>
<path d="M26.8687 9.01562C26.8712 9.01711 26.8737 9.01852 26.8762 9.02C26.8737 9.01852 26.8712 9.01703 26.8687 9.01562Z" fill="black"/>
<path d="M26.8762 9.02002C26.9049 9.03658 26.9325 9.05252 26.9586 9.0676C26.9304 9.05127 26.9027 9.03525 26.8762 9.02002Z" fill="black"/>
<path d="M27.0935 9.14526C27.1008 9.14948 27.108 9.15362 27.1152 9.15776C27.108 9.15362 27.101 9.14956 27.0935 9.14526Z" fill="black"/>
<path d="M27.4175 9.33252C27.4201 9.33408 27.4224 9.33541 27.4243 9.33643C27.4225 9.33541 27.4202 9.33408 27.4175 9.33252Z" fill="black"/>
<path d="M27.3979 9.32129C27.4062 9.32605 27.4126 9.3298 27.4176 9.33262C27.4125 9.32965 27.406 9.3259 27.3979 9.32129Z" fill="black"/>
<path d="M27.4243 9.33643C27.4313 9.34049 27.4317 9.34072 27.4243 9.33643V9.33643Z" fill="black"/>
<path d="M27.2888 9.25806C27.2946 9.26142 27.3003 9.2647 27.3057 9.26782C27.3002 9.26462 27.2946 9.26134 27.2888 9.25806Z" fill="black"/>
<path d="M27.3054 9.26782C27.344 9.29009 27.376 9.3086 27.3979 9.32126C27.3778 9.30962 27.3476 9.2922 27.3054 9.26782Z" fill="black"/>
<path d="M27.2632 9.24341C27.2719 9.24841 27.2803 9.25325 27.2885 9.25802C27.2805 9.25333 27.272 9.24849 27.2632 9.24341Z" fill="black"/>
<path d="M27.115 9.15771C27.1734 9.19146 27.2226 9.21982 27.2633 9.24334C27.2185 9.21748 27.1678 9.18818 27.115 9.15771Z" fill="black"/>
<path d="M28.5938 29.8438H25.4688C25.0373 29.8438 24.6875 30.1936 24.6875 30.625C24.6875 31.0564 25.0373 31.4062 25.4688 31.4062H28.5938C29.0252 31.4062 29.375 31.0564 29.375 30.625C29.375 30.1936 29.0252 29.8438 28.5938 29.8438Z" fill="black"/>
</g>
<defs>
<clipPath id="clip0_83_262">
<rect width="40" height="40" fill="white"/>
</clipPath>
</defs>
</svg>
