<svg width="40" height="40" viewBox="0 0 40 40" fill="none" xmlns="http://www.w3.org/2000/svg">
<path d="M13.75 25.4688C13.3187 25.4688 12.9688 25.8187 12.9688 26.25C12.9688 26.6812 13.3187 27.0312 13.75 27.0312C14.1812 27.0312 14.5312 26.6812 14.5312 26.25C14.5312 25.8187 14.1812 25.4688 13.75 25.4688Z" fill="black"/>
<path d="M32.5 3.125C31.6443 3.125 24.6394 3.125 23.8277 3.125C23.4648 1.34422 21.8864 0 20 0C18.1136 0 16.5352 1.34422 16.1723 3.125C15.3606 3.125 8.3557 3.125 7.5 3.125C6.20766 3.125 5.15625 4.17641 5.15625 5.46875V37.6562C5.15625 38.9486 6.20766 40 7.5 40H32.5C33.7923 40 34.8438 38.9486 34.8438 37.6562V5.46875C34.8438 4.17641 33.7923 3.125 32.5 3.125ZM14.5312 4.6875H16.875C17.3064 4.6875 17.6562 4.33766 17.6562 3.90625C17.6562 2.61391 18.7077 1.5625 20 1.5625C21.2923 1.5625 22.3438 2.61391 22.3438 3.90625C22.3438 4.33766 22.6936 4.6875 23.125 4.6875H25.4688V6.25H14.5312V4.6875ZM30.1562 7.8125V35.3125H9.84375V7.8125H30.1562ZM33.2812 37.6562C33.2812 38.087 32.9308 38.4375 32.5 38.4375H7.5C7.06922 38.4375 6.71875 38.087 6.71875 37.6562V5.46875C6.71875 5.03797 7.06922 4.6875 7.5 4.6875H12.9688V6.25H9.0625C8.63109 6.25 8.28125 6.59984 8.28125 7.03125V36.0938C8.28125 36.5252 8.63109 36.875 9.0625 36.875H30.9375C31.3689 36.875 31.7188 36.5252 31.7188 36.0938V7.03125C31.7188 6.59984 31.3689 6.25 30.9375 6.25H27.0312V4.6875H32.5C32.9308 4.6875 33.2812 5.03797 33.2812 5.46875V37.6562Z" fill="black"/>
<path d="M26.25 30.1562H13.75C13.3186 30.1562 12.9688 30.5061 12.9688 30.9375C12.9688 31.3689 13.3186 31.7188 13.75 31.7188H26.25C26.6814 31.7188 27.0312 31.3689 27.0312 30.9375C27.0312 30.5061 26.6814 30.1562 26.25 30.1562Z" fill="black"/>
<path d="M26.25 25.4688H16.875C16.4436 25.4688 16.0938 25.8186 16.0938 26.25C16.0938 26.6814 16.4436 27.0312 16.875 27.0312H26.25C26.6814 27.0312 27.0312 26.6814 27.0312 26.25C27.0312 25.8186 26.6814 25.4688 26.25 25.4688Z" fill="black"/>
<path d="M20 11.4062C16.9845 11.4062 14.5312 13.8595 14.5312 16.875C14.5312 19.8905 16.9845 22.3438 20 22.3438C23.0155 22.3438 25.4688 19.8905 25.4688 16.875C25.4688 13.8595 23.0155 11.4062 20 11.4062ZM20 20.7812C17.8461 20.7812 16.0938 19.0289 16.0938 16.875C16.0938 14.7211 17.8461 12.9688 20 12.9688C22.1539 12.9688 23.9062 14.7211 23.9062 16.875C23.9062 19.0289 22.1539 20.7812 20 20.7812Z" fill="black"/>
<path d="M21.5625 16.0938H20.7812V15.3125C20.7812 14.8811 20.4314 14.5312 20 14.5312C19.5686 14.5312 19.2188 14.8811 19.2188 15.3125V16.0938H18.4375C18.0061 16.0938 17.6562 16.4436 17.6562 16.875C17.6562 17.3064 18.0061 17.6562 18.4375 17.6562H19.2188V18.4375C19.2188 18.8689 19.5686 19.2188 20 19.2188C20.4314 19.2188 20.7812 18.8689 20.7812 18.4375V17.6562H21.5625C21.9939 17.6562 22.3438 17.3064 22.3438 16.875C22.3438 16.4436 21.9939 16.0938 21.5625 16.0938Z" fill="black"/>
</svg>
