<svg width="40" height="40" viewBox="0 0 40 40" fill="none" xmlns="http://www.w3.org/2000/svg">
<g clip-path="url(#clip0_83_342)">
<path d="M15.0281 22.7625C14.7234 22.4571 14.2281 22.4571 13.9234 22.7625C13.618 23.0672 13.618 23.5618 13.9234 23.8672C14.2281 24.1719 14.7234 24.1719 15.0281 23.8672C15.3336 23.5618 15.3336 23.0672 15.0281 22.7625Z" fill="black"/>
<path d="M39.3128 5.10639L34.8925 0.686387C33.9879 -0.216269 32.5091 -0.240801 31.5791 0.687011C30.6632 1.60295 30.6631 3.08514 31.5791 4.00123L32.1315 4.55357L28.3808 8.30482C28.1247 8.04881 25.8684 5.79248 25.6184 5.5424C25.3133 5.23748 24.8186 5.2374 24.5136 5.5424C24.2085 5.84748 24.2084 6.34217 24.5136 6.64732L25.0658 7.19959C24.7866 7.47873 11.7724 20.4938 10.788 21.4783C9.47083 22.7954 8.96661 24.6059 9.27216 26.309L7.84661 27.7345C6.93294 28.6483 6.93294 30.1348 7.84653 31.0486L0.228564 38.6664C-0.0765137 38.9715 -0.0765137 39.4662 0.228564 39.7713C0.533721 40.0764 1.02833 40.0764 1.33349 39.7713L8.9513 32.1535C9.86497 33.0671 11.3517 33.0672 12.2654 32.1534L13.6912 30.7276C15.4678 31.0448 17.2731 30.4606 18.5215 29.212C21.611 26.1228 29.6587 18.0754 32.8003 14.934L33.3525 15.4863C33.6577 15.7914 34.1523 15.7914 34.4574 15.4863C34.7625 15.1812 34.7626 14.6865 34.4574 14.3814C34.2073 14.1313 31.9533 11.8772 31.695 11.619L35.4463 7.86834L35.9979 8.4199C36.9136 9.33803 38.3997 9.33615 39.3129 8.42068C40.2286 7.50482 40.2289 6.02256 39.3128 5.10639ZM11.1606 31.0484C10.8561 31.3529 10.3605 31.3529 10.0561 31.0484C8.70958 29.7019 9.03716 30.0294 8.95138 29.9436C8.64677 29.6393 8.64677 29.1438 8.9513 28.8393L9.84481 27.9458C10.0811 28.3822 10.3771 28.7846 10.7208 29.1407C11.1098 29.5436 11.56 29.8875 12.054 30.1549L11.1606 31.0484ZM21.1044 24.4197L20.5521 23.8673C20.247 23.5623 19.7523 23.5623 19.4472 23.8673C19.1422 24.1724 19.1422 24.6671 19.4472 24.9722L19.9995 25.5245L18.8948 26.6291L17.2371 24.9718C16.932 24.6669 16.4373 24.6669 16.1322 24.972C15.8272 25.2772 15.8273 25.7718 16.1324 26.0769L17.7899 27.7339L17.4166 28.1071C15.88 29.6439 13.3593 29.6371 11.835 28.0471C10.3887 26.5386 10.3637 24.112 11.8928 22.5831L16.6849 17.7904L22.2093 23.3147L21.1044 24.4197ZM31.6954 13.8291L29.9434 15.581L28.2854 13.9236C27.9804 13.6186 27.4857 13.6186 27.1806 13.9237C26.8755 14.2289 26.8757 14.7236 27.1808 15.0286L28.8385 16.6858L27.7333 17.791L27.1808 17.2385C26.8756 16.9336 26.381 16.9335 26.0759 17.2385C25.7708 17.5436 25.7708 18.0383 26.0759 18.3434L26.6283 18.8959L25.5238 20.0004L23.8667 18.3433C23.5616 18.0383 23.0669 18.0383 22.7618 18.3433C22.4568 18.6483 22.4568 19.143 22.7618 19.4482L24.4189 21.1052L23.314 22.2101L17.7895 16.6857L26.1706 8.30459L31.6954 13.8291ZM30.5901 10.5142L29.4855 9.40959L33.2362 5.65834L34.3415 6.76357L30.5901 10.5142ZM38.2072 7.31646C37.9076 7.61678 37.4124 7.62545 37.1035 7.31568C36.7283 6.94053 33.2788 3.49099 32.684 2.89615C32.3777 2.58998 32.3797 2.096 32.6832 1.79248C32.9917 1.48467 33.4836 1.48764 33.7884 1.79178L38.2079 6.21123C38.5115 6.51474 38.5152 7.00842 38.2072 7.31646Z" fill="black"/>
</g>
<defs>
<clipPath id="clip0_83_342">
<rect width="40" height="40" fill="white"/>
</clipPath>
</defs>
</svg>
