<svg width="40" height="40" viewBox="0 0 40 40" fill="none" xmlns="http://www.w3.org/2000/svg">
<g clip-path="url(#clip0_83_384)">
<path d="M27.8267 12.969C27.3954 12.969 27.0454 13.319 27.0454 13.7502C27.0454 14.1815 27.3954 14.5315 27.8267 14.5315C28.2579 14.5315 28.6079 14.1815 28.6079 13.7502C28.6079 13.319 28.2579 12.969 27.8267 12.969Z" fill="black"/>
<path d="M31.0674 14.9287C30.7931 14.5956 30.3008 14.5479 29.9677 14.8223C29.6347 15.0966 29.587 15.589 29.8614 15.922C31.0153 17.3231 31.7042 19.4631 31.7042 21.6463C31.7042 22.0778 32.054 22.4276 32.4854 22.4276C32.9168 22.4276 33.2667 22.0778 33.2667 21.6463C33.2667 19.112 32.4446 16.6007 31.0674 14.9287Z" fill="black"/>
<path d="M33.972 13.5904C32.2816 11.1805 29.9641 9.85337 27.4463 9.85337C25.0265 9.85337 23.3649 11.8038 22.3581 12.4249V9.88853C22.3581 7.66508 23.2241 5.57414 24.7964 4.00117C25.7124 3.08531 25.7126 1.60304 24.7965 0.687023C23.8808 -0.228838 22.3983 -0.229151 21.4822 0.686945C19.6622 2.50687 18.4485 4.77109 17.9406 7.23477C16.2004 4.13281 12.8797 2.03156 9.07691 2.03156H7.51441C7.50972 2.03156 7.50519 2.03218 7.50051 2.03226C7.06722 2.03976 6.73285 2.39664 6.73316 2.8132V4.37531C6.73316 6.74922 7.53988 8.99337 9.02379 10.8015C7.55207 11.6306 6.28605 12.9715 5.32269 14.7346C4.21706 16.7578 3.60815 19.2125 3.60815 21.6463C3.60815 25.1375 4.87214 29.7025 6.82832 33.2761C9.20176 37.6122 12.226 40 15.344 40C15.9176 40 17.7287 39.3211 18.3102 38.936C19.1453 38.3838 19.8811 38.5701 20.0878 38.5466C20.6453 38.483 21.2138 38.6215 21.6885 38.9358C22.2703 39.3211 24.0819 40 24.6558 40C27.7738 40 30.798 37.6121 33.1715 33.2761C35.1277 29.7025 36.3917 25.1375 36.3917 21.6463C36.3916 18.7188 35.5097 15.7824 33.972 13.5904ZM22.5871 1.79171C22.8922 1.48663 23.3861 1.48632 23.6916 1.79179C23.9962 2.09656 23.9976 2.59007 23.6914 2.8964C21.824 4.76477 20.7956 7.2479 20.7956 9.88853V12.9649C20.2784 13.05 19.7514 13.0517 19.2331 12.9699C19.233 12.04 19.233 10.8194 19.233 9.88853C19.2331 6.83008 20.4242 3.95453 22.5871 1.79171ZM8.30246 4.7057L11.6494 8.05266C11.9547 8.35774 12.4491 8.35766 12.7543 8.05266C13.0594 7.74758 13.0594 7.2529 12.7543 6.94774L9.40754 3.60093C13.9935 3.77539 17.6706 7.55985 17.6706 12.1877V12.4434C16.2156 11.5741 14.458 8.97204 10.5314 10.1568C9.16019 8.65345 8.37887 6.74414 8.30246 4.7057ZM31.8007 32.526C30.5945 34.7297 28.0665 38.4235 24.6749 38.4375C24.3391 38.3946 22.9601 37.904 22.551 37.633C21.7954 37.1327 20.8922 36.9041 19.9993 36.9851C19.1063 36.9047 18.204 37.1328 17.4476 37.633C17.0386 37.904 15.6601 38.3946 15.3245 38.4375C11.9329 38.4235 9.40496 34.7295 8.19871 32.526C6.3591 29.1652 5.17042 24.8947 5.17042 21.6463C5.17058 17.137 7.45019 12.9898 10.5909 11.7852C10.591 11.7852 10.591 11.7851 10.5911 11.7851C11.2225 11.5427 11.8835 11.4186 12.5558 11.4159C12.56 11.4159 12.564 11.4159 12.568 11.4159C14.4747 11.4159 15.8633 13.2903 17.0728 13.8972C18.914 14.8199 21.0682 14.8307 22.9261 13.897C24.1341 13.2914 25.5319 11.4159 27.4462 11.4159C29.44 11.4159 31.3033 12.5068 32.6926 14.4876C34.0502 16.4231 34.8289 19.0324 34.8289 21.6463C34.829 24.8946 33.6403 29.1652 31.8007 32.526Z" fill="black"/>
</g>
<defs>
<clipPath id="clip0_83_384">
<rect width="40" height="40" fill="white"/>
</clipPath>
</defs>
</svg>
