<svg width="40" height="40" viewBox="0 0 40 40" fill="none" xmlns="http://www.w3.org/2000/svg">
<g clip-path="url(#clip0_83_468)">
<path d="M15.0302 27.1785C14.7255 26.8738 14.2302 26.8738 13.9254 27.1785C13.6199 27.4839 13.6199 27.9785 13.9254 28.2841C14.2301 28.5888 14.7255 28.5888 15.0302 28.2841C15.3357 27.9785 15.3357 27.4839 15.0302 27.1785Z" fill="black"/>
<path d="M22.1252 20.5784C22.0317 20.2977 21.7874 20.0938 21.4945 20.052L17.6268 19.4996C17.3832 19.4647 17.1377 19.5467 16.9638 19.7205L7.75228 28.9313C6.83962 29.8451 6.83962 31.3322 7.75298 32.2467C8.66673 33.1593 10.1537 33.1596 11.0681 32.2462L12.8199 30.4936C13.1249 30.1885 13.1249 29.6938 12.8197 29.3886C12.5146 29.0836 12.0198 29.0836 11.7147 29.3889L9.96337 31.1409C9.65853 31.4457 9.16228 31.4455 8.8579 31.1417C8.55337 30.8368 8.55337 30.3405 8.85751 30.0359L17.7926 21.1017L19.7263 21.3779L16.1349 24.9686C15.8298 25.2736 15.8298 25.7684 16.1349 26.0736C16.4399 26.3789 16.9347 26.3788 17.2399 26.0737L21.9365 21.3779C22.1457 21.1686 22.2188 20.8591 22.1252 20.5784Z" fill="black"/>
<path d="M38.3964 1.60265C36.2616 -0.532119 32.7974 -0.533057 30.6626 1.60265L23.3172 8.94648L22.7648 8.39413C21.8487 7.4778 20.3665 7.47765 19.4502 8.39405C18.5345 9.30976 18.534 10.7924 19.4501 11.7085L20.0028 12.2616L5.54303 26.7212C4.04076 28.2237 3.55553 30.4553 4.25771 32.426L0.687012 35.9973C-0.228926 36.9134 -0.229082 38.3959 0.687012 39.3119C1.60287 40.2278 3.08561 40.2281 4.00162 39.3119L7.57303 35.7413C9.54357 36.4431 11.7755 35.9581 13.2778 34.456L27.7375 19.9963L28.2904 20.5487C29.2065 21.4651 30.6887 21.4652 31.605 20.5488C32.5209 19.6329 32.5211 18.1504 31.605 17.2341L31.0526 16.6818L38.3961 9.33679C40.5345 7.2003 40.5347 3.74101 38.3964 1.60265ZM12.1727 33.3509C11.0037 34.5199 9.21685 34.8268 7.72607 34.1148C7.42732 33.9721 7.071 34.0333 6.83693 34.2673L2.89654 38.2069C2.59123 38.5122 2.09732 38.5122 1.79186 38.2069C1.4867 37.9016 1.48662 37.4078 1.79201 37.1023L5.73154 33.1619C5.9656 32.9277 6.0267 32.5715 5.88404 32.2727C5.17209 30.782 5.47904 28.9951 6.64795 27.8262L21.1074 13.3667L26.6321 18.8914L12.1727 33.3509ZM30.5 19.444C30.1952 19.7487 29.7019 19.7503 29.3951 19.4437C24.7848 14.8338 22.4542 12.5051 21.3727 11.4255C21.1944 11.2461 20.9305 10.9807 20.5552 10.6037C20.2499 10.2985 20.2498 9.8046 20.5552 9.49905C20.8608 9.19358 21.3541 9.19351 21.6599 9.49913L30.5 18.3392C30.8052 18.6445 30.8053 19.1384 30.5 19.444ZM29.9476 15.5769L24.4222 10.0515L31.7676 2.70757C33.2912 1.18319 35.7669 1.18327 37.2913 2.70772C38.818 4.23429 38.8195 6.70476 37.2913 8.23163L29.9476 15.5769Z" fill="black"/>
</g>
<defs>
<clipPath id="clip0_83_468">
<rect width="40" height="40" fill="white"/>
</clipPath>
</defs>
</svg>
