<svg width="40" height="40" viewBox="0 0 40 40" fill="none" xmlns="http://www.w3.org/2000/svg">
<g clip-path="url(#clip0_83_491)">
<path d="M33.6926 6.30762C33.3871 6.00293 32.8927 6.00293 32.588 6.30762C32.2825 6.61309 32.2825 7.10754 32.588 7.41222C32.8927 7.71769 33.3871 7.71769 33.6926 7.41222C33.9972 7.10754 33.9972 6.61301 33.6926 6.30762Z" fill="black"/>
<path d="M38.855 1.14639C37.3289 -0.380801 34.8583 -0.381426 33.3316 1.14615L9.83734 24.6397C7.13867 23.914 4.28578 24.6674 2.29023 26.663C-0.762969 29.7162 -0.763203 34.6572 2.29023 37.7107C5.34344 40.7639 10.2845 40.7641 13.338 37.7107C15.3336 35.7151 16.087 32.8622 15.3612 30.1637L17.2735 28.2513V28.2512C17.949 27.5758 38.177 7.34717 38.8545 6.66951C40.3814 5.14381 40.3826 2.67287 38.855 1.14639ZM16.7213 26.594L15.6167 25.489L18.3093 22.7964L19.4141 23.9011L16.7213 26.594ZM20.5189 22.7962L19.4142 21.6915L21.624 19.4818L22.7284 20.5866L20.5189 22.7962ZM23.8331 19.4819L22.7287 18.3771L24.9379 16.1678L26.0427 17.2722L23.8331 19.4819ZM27.1474 16.1674L26.0427 15.063L28.2523 12.8533L29.3569 13.9579L27.1474 16.1674ZM37.75 5.56451L30.4617 12.853L29.3572 11.7485L31.4827 9.62295C31.7878 9.31787 31.7878 8.82326 31.4827 8.51811C31.1776 8.21311 30.6831 8.21311 30.3779 8.51811L10.5293 28.3668C8.69992 27.0658 6.13891 27.2334 4.49922 28.8723C2.67258 30.7 2.67258 33.6738 4.49922 35.5015C4.49937 35.5015 4.49945 35.5016 4.49953 35.5018C6.32711 37.3283 9.30086 37.3284 11.129 35.5015C12.7673 33.8622 12.9351 31.3012 11.6342 29.4717L14.512 26.5939L15.6166 27.6989L13.926 29.3894C13.7163 29.5992 13.6434 29.9094 13.7379 30.1906C14.4997 32.458 13.9231 34.9162 12.2331 36.6061C9.79062 39.0487 5.83773 39.049 3.395 36.6061C0.952344 34.1636 0.952031 30.2107 3.395 27.768C5.08234 26.0804 7.54016 25.5003 9.81047 26.2633C10.0914 26.3576 10.4018 26.2848 10.6116 26.0751L34.4365 2.25068C35.352 1.33467 36.8335 1.33381 37.7502 2.25107C38.6664 3.1667 38.667 4.64826 37.75 5.56451ZM10.0242 34.3965C8.8057 35.6145 6.82297 35.6145 5.60422 34.3967C4.38641 33.178 4.38641 31.1953 5.60406 29.977C6.82266 28.7589 8.80555 28.759 10.0239 29.9767C11.242 31.1954 11.242 33.1782 10.0242 34.3965Z" fill="black"/>
</g>
<defs>
<clipPath id="clip0_83_491">
<rect width="40" height="40" fill="white"/>
</clipPath>
</defs>
</svg>
