<svg width="40" height="40" viewBox="0 0 40 40" fill="none" xmlns="http://www.w3.org/2000/svg">
<path d="M24.6875 22.3677C24.2562 22.3677 23.9062 22.7177 23.9062 23.1489C23.9062 23.5802 24.2562 23.9302 24.6875 23.9302C25.1187 23.9302 25.4688 23.5802 25.4688 23.1489C25.4688 22.7177 25.1187 22.3677 24.6875 22.3677Z" fill="black"/>
<path d="M15.3125 22.3677C14.8812 22.3677 14.5312 22.7177 14.5312 23.1489C14.5312 23.5802 14.8812 23.9302 15.3125 23.9302C15.7437 23.9302 16.0938 23.5802 16.0938 23.1489C16.0938 22.7177 15.7437 22.3677 15.3125 22.3677Z" fill="black"/>
<path d="M36.8895 20.3092C34.9627 17.007 32.2862 14.2756 29.1492 12.4102C28.0708 11.7691 26.8251 11.4302 25.5469 11.4302C24.0982 11.4302 23.125 10.436 23.125 9.50752V4.39893C23.125 3.96752 22.7752 3.61768 22.3438 3.61768H17.6562C17.2248 3.61768 16.875 3.96752 16.875 4.39893V9.50752C16.875 10.6814 15.5048 11.4302 14.7883 11.4302C13.5996 11.4302 12.2999 11.5489 10.8507 12.4103C7.71383 14.2756 5.03727 17.007 3.11047 20.3092C1.07562 23.7968 0 27.7505 0 31.7427C0 32.5809 0.0425781 33.4234 0.126641 34.2464C0.254141 35.5049 1.34492 36.4434 2.60828 36.3792C7.74875 36.1244 11.5534 34.9431 14.2396 32.7677C15.8434 31.4688 17.0745 29.786 17.8983 27.766C18.7745 25.6173 19.2188 23.0124 19.2188 20.0239C19.2188 18.7903 19.0684 17.5638 18.7714 16.3695C19.1574 16.2038 19.5741 16.1177 20 16.1177C20.4259 16.1177 20.8425 16.2038 21.2286 16.3695C20.9316 17.5638 20.7812 18.7903 20.7812 20.0239C20.7812 23.0124 21.2255 25.6173 22.1018 27.766C22.9256 29.786 24.1566 31.4688 25.7605 32.7677C28.4466 34.9431 32.2513 36.1244 37.3918 36.3792C37.4319 36.3812 37.4716 36.3822 37.5112 36.3822C38.7238 36.3822 39.7499 35.4652 39.8733 34.247C39.9573 33.4234 40 32.5809 40 31.7427C40 27.7504 38.9244 23.7968 36.8895 20.3092ZM38.3188 34.089C38.2745 34.5268 37.9104 34.8394 37.4691 34.8188C27.0086 34.3001 22.3438 29.7372 22.3438 20.0239C22.3438 18.7279 22.5287 17.441 22.8934 16.1987C22.9901 15.8691 22.8603 15.515 22.5734 15.3261C21.8076 14.8217 20.9177 14.5552 20 14.5552C19.0823 14.5552 18.1924 14.8217 17.4266 15.3261C17.1397 15.515 17.0099 15.8691 17.1066 16.1987C17.4713 17.4409 17.6562 18.7279 17.6562 20.0239C17.6562 29.7372 12.9914 34.3 2.53094 34.8187C2.09172 34.8402 1.72555 34.5267 1.68117 34.0883C1.60242 33.3173 1.5625 32.5281 1.5625 31.7427C1.5625 24.4582 5.5218 17.3969 11.6491 13.7533C12.7148 13.1199 13.6404 12.9927 14.7883 12.9927C16.2762 12.9927 18.4375 11.635 18.4375 9.50752V5.18018H21.5625V9.50752C21.5625 11.1836 23.0859 12.9927 25.5469 12.9927C26.5442 12.9927 27.5138 13.2556 28.3507 13.7531C34.4782 17.3969 38.4375 24.4582 38.4375 31.7427C38.4375 32.5281 38.3976 33.3173 38.3188 34.089Z" fill="black"/>
<path d="M14.7105 25.417C14.3044 25.2709 13.8569 25.4816 13.711 25.8877C13.0807 27.6404 12.053 28.9335 10.5691 29.8411C10.201 30.0663 10.0851 30.5471 10.3102 30.9152C10.535 31.2828 11.0157 31.3994 11.3843 31.1741C13.1838 30.0735 14.4259 28.5173 15.1814 26.4165C15.3273 26.0105 15.1166 25.563 14.7105 25.417Z" fill="black"/>
<path d="M29.4303 29.8411C27.9462 28.9334 26.9187 27.6404 26.2891 25.8879C26.1433 25.4819 25.6958 25.2709 25.2898 25.4169C24.8837 25.5627 24.6728 26.0101 24.8187 26.4162C25.5734 28.517 26.8152 30.0733 28.6151 31.1741C28.9831 31.3991 29.4641 31.2832 29.6892 30.9151C29.9143 30.5472 29.7984 30.0662 29.4303 29.8411Z" fill="black"/>
</svg>
