<svg width="40" height="40" viewBox="0 0 40 40" fill="none" xmlns="http://www.w3.org/2000/svg">
<g clip-path="url(#clip0_83_527)">
<path d="M13.75 14.5312C13.3187 14.5312 12.9688 14.8812 12.9688 15.3125C12.9688 15.7437 13.3187 16.0938 13.75 16.0938C14.1812 16.0938 14.5312 15.7437 14.5312 15.3125C14.5312 14.8812 14.1812 14.5312 13.75 14.5312Z" fill="black"/>
<path d="M20 11.4062C18.4874 11.4062 16.9987 11.8067 15.695 12.5643C15.322 12.7811 15.1953 13.2593 15.412 13.6323C15.6288 14.0054 16.107 14.132 16.48 13.9153C17.5456 13.296 18.7629 12.9688 20 12.9688C23.877 12.9688 27.0312 16.123 27.0312 20C27.0312 23.877 23.877 27.0312 20 27.0312C16.123 27.0312 12.9688 23.877 12.9688 20C12.9688 19.434 13.0366 18.8695 13.1705 18.3225C13.2731 17.9034 13.0166 17.4805 12.5974 17.3779C12.178 17.2747 11.7554 17.5319 11.6528 17.9509C11.4892 18.6195 11.4062 19.3089 11.4062 20C11.4062 24.7386 15.2614 28.5938 20 28.5938C24.7386 28.5938 28.5938 24.7386 28.5938 20C28.5938 15.2614 24.7386 11.4062 20 11.4062Z" fill="black"/>
<path d="M36.875 16.875C35.4216 16.875 34.1967 17.8724 33.8489 19.2188H31.6925C31.524 16.6419 30.5236 14.2263 28.8205 12.2843L30.4818 10.623C31.6496 11.3146 33.2262 11.1934 34.2797 10.1399C35.4977 8.92188 35.4977 6.9393 34.2795 5.72C33.0605 4.50219 31.078 4.50227 29.86 5.72023C28.8065 6.77391 28.6855 8.35047 29.377 9.51813L27.7157 11.1794C25.7738 9.47641 23.3582 8.47602 20.7812 8.3075V6.15109C22.1276 5.80328 23.125 4.57844 23.125 3.125C23.125 1.40188 21.7231 0 20 0C18.2769 0 16.875 1.40188 16.875 3.125C16.875 4.57844 17.8724 5.80328 19.2188 6.15109V8.3075C16.6419 8.47602 14.2263 9.47641 12.2843 11.1795L10.623 9.51813C11.3145 8.35047 11.1935 6.77398 10.1399 5.72023C8.92188 4.50227 6.9393 4.50219 5.72 5.72047C4.50211 6.9393 4.50219 8.92187 5.72023 10.1398C6.77391 11.1937 8.35055 11.3145 9.5182 10.623L11.1795 12.2843C9.47648 14.2262 8.47602 16.6418 8.3075 19.2188H6.15109C5.80328 17.8724 4.57844 16.875 3.125 16.875C1.40188 16.875 0 18.2769 0 20C0 21.7231 1.40188 23.125 3.125 23.125C4.57844 23.125 5.80328 22.1276 6.15109 20.7812H8.3075C8.47602 23.3581 9.47641 25.7737 11.1795 27.7157L9.5182 29.377C8.35039 28.6854 6.77383 28.8066 5.72031 29.8601C4.50234 31.0781 4.50227 33.0607 5.72055 34.28C6.93914 35.4975 8.92164 35.498 10.14 34.2798C11.1935 33.2261 11.3145 31.6495 10.623 30.4819L12.2843 28.8206C14.2262 30.5236 16.6418 31.524 19.2188 31.6925V33.8489C17.8724 34.1967 16.875 35.4216 16.875 36.875C16.875 38.5981 18.2769 40 20 40C21.7231 40 23.125 38.5981 23.125 36.875C23.125 35.4216 22.1276 34.1967 20.7812 33.8489V31.6925C23.3581 31.524 25.7737 30.5236 27.7157 28.8205L29.377 30.4819C28.684 31.6522 28.8085 33.228 29.8601 34.2798C31.078 35.4977 33.0606 35.4978 34.28 34.2795C35.4978 33.0606 35.4977 31.078 34.2798 29.8602C33.2261 28.8063 31.6495 28.6855 30.4818 29.377L28.8205 27.7157C30.5235 25.7738 31.524 23.3582 31.6925 20.7812H33.8489C34.1967 22.1276 35.4216 23.125 36.875 23.125C38.5981 23.125 40 21.7231 40 20C40 18.2769 38.5981 16.875 36.875 16.875ZM30.9649 6.82508C31.5738 6.21625 32.5653 6.21594 33.1747 6.82484C33.7838 7.43453 33.784 8.42594 33.1749 9.035C33.1749 9.035 33.1749 9.035 33.1749 9.03508C32.5655 9.64445 31.5771 9.64781 30.9647 9.03477C30.3541 8.42477 30.3539 7.43609 30.9649 6.82508ZM9.03484 9.03523C8.42469 9.64609 7.43609 9.64617 6.82508 9.035C6.21602 8.42594 6.21617 7.43453 6.82484 6.82531C7.43398 6.21664 8.4257 6.21562 9.03508 6.82508C9.64563 7.43555 9.64656 8.42406 9.03484 9.03523ZM3.125 21.5625C2.26344 21.5625 1.5625 20.8616 1.5625 20C1.5625 19.1384 2.26344 18.4375 3.125 18.4375C3.98656 18.4375 4.6875 19.1384 4.6875 20C4.6875 20.8616 3.98656 21.5625 3.125 21.5625ZM9.03508 33.1749C8.42602 33.7839 7.43445 33.7839 6.82531 33.1752C6.21617 32.5655 6.21602 31.5741 6.82508 30.9649C7.43445 30.3555 8.42289 30.3522 9.03531 30.9652C9.64594 31.5752 9.64609 32.5639 9.03508 33.1749ZM30.9652 30.9648C31.5754 30.3539 32.5639 30.3539 33.1749 30.9649C33.784 31.5741 33.7838 32.5655 33.1752 33.1747C32.5655 33.7839 31.574 33.784 30.9649 33.1749C30.3544 32.5645 30.3534 31.5759 30.9652 30.9648ZM18.4375 3.125C18.4375 2.26344 19.1384 1.5625 20 1.5625C20.8616 1.5625 21.5625 2.26344 21.5625 3.125C21.5625 3.98656 20.8616 4.6875 20 4.6875C19.1384 4.6875 18.4375 3.98656 18.4375 3.125ZM21.5625 36.875C21.5625 37.7366 20.8616 38.4375 20 38.4375C19.1384 38.4375 18.4375 37.7366 18.4375 36.875C18.4375 36.0134 19.1384 35.3125 20 35.3125C20.8616 35.3125 21.5625 36.0134 21.5625 36.875ZM27.188 27.1758C27.1859 27.1778 27.1836 27.1795 27.1816 27.1816C27.1795 27.1836 27.1778 27.1859 27.1759 27.1879C25.2577 29.102 22.7097 30.1562 20 30.1562C17.2874 30.1562 14.7367 29.0999 12.8181 27.1821C10.9001 25.2632 9.84375 22.7127 9.84375 20C9.84375 17.2902 10.898 14.7422 12.812 12.8242C12.8141 12.8222 12.8163 12.8205 12.8184 12.8184C12.8205 12.8164 12.8222 12.8141 12.8241 12.8121C14.7423 10.898 17.2903 9.84375 20 9.84375C22.7126 9.84375 25.2633 10.9001 27.1819 12.8179C29.0999 14.7368 30.1562 17.2873 30.1562 20C30.1562 22.7098 29.102 25.2578 27.188 27.1758ZM36.875 21.5625C36.0134 21.5625 35.3125 20.8616 35.3125 20C35.3125 19.1384 36.0134 18.4375 36.875 18.4375C37.7366 18.4375 38.4375 19.1384 38.4375 20C38.4375 20.8616 37.7366 21.5625 36.875 21.5625Z" fill="black"/>
</g>
<defs>
<clipPath id="clip0_83_527">
<rect width="40" height="40" fill="white"/>
</clipPath>
</defs>
</svg>
