<svg width="40" height="40" viewBox="0 0 40 40" fill="none" xmlns="http://www.w3.org/2000/svg">
<g clip-path="url(#clip0_83_551)">
<path d="M26.8023 33.9789C26.4976 33.6734 26.0023 33.6734 25.6976 33.9789C25.3921 34.2835 25.3921 34.7789 25.6976 35.0835C26.0023 35.389 26.4976 35.389 26.8023 35.0835C27.1078 34.7789 27.1078 34.2835 26.8023 33.9789Z" fill="black"/>
<path d="M38.7792 23.6152C38.7638 23.6033 33.6195 20.8102 32.5802 20.2771C31.6663 18.7659 28.7937 14.0139 28.7934 14.0133C28.2769 13.1606 27.3834 12.6069 26.3903 12.5163C26.3054 12.5011 26.2489 12.5016 26.1893 12.5063C23.6408 12.5051 16.738 12.5016 13.7505 12.5001C13.7317 12.4985 13.7186 12.5006 13.7028 12.5016C13.6951 12.502 13.6875 12.5031 13.6799 12.5037C13.6745 12.5041 13.6692 12.5045 13.6638 12.5052C12.6524 12.5794 11.7361 13.1403 11.2065 14.0139C11.2065 14.0139 8.33392 18.7659 7.42002 20.2771C5.96619 21.0228 1.829 23.3041 1.36119 23.5287C1.31158 23.5525 1.26463 23.5815 1.22111 23.6152C-0.291309 24.7859 -0.403496 26.9841 0.91541 28.303C1.92096 29.3095 3.47893 29.5096 4.70541 28.7883C4.83494 28.7119 7.41924 27.068 9.00721 26.188C10.2032 25.5246 11.2875 24.6687 12.2307 23.6429C12.631 23.2063 12.7594 23.0677 12.9689 22.8394V29.3585L6.1465 32.7308C5.21424 33.191 4.50228 34.0256 4.19322 35.0204C3.88369 36.0156 3.99697 37.107 4.50424 38.0151C5.19955 39.258 6.47166 40.0001 7.90721 40.0001H32.0931C33.5021 40.0001 34.7623 39.2791 35.464 38.0713C35.992 37.1621 36.1206 36.0625 35.8172 35.0553C35.5143 34.0456 34.7995 33.1988 33.8558 32.7318L27.0314 29.3586V22.839C27.2938 23.1245 27.5511 23.4046 27.7937 23.6687C28.7202 24.6768 29.7967 25.5245 30.9933 26.1882C32.5878 27.072 35.1614 28.7097 35.2964 28.7892C36.5172 29.507 38.0756 29.3133 39.0846 28.3034C40.4078 26.9801 40.2869 24.7823 38.7792 23.6152ZM17.6564 14.0567L22.3439 14.0591V16.4063C22.3439 17.6987 21.2925 18.7501 20.0002 18.7501C18.7057 18.7501 17.6564 17.7009 17.6564 16.4063V14.0567ZM14.5314 14.0552L16.0939 14.0559V16.4063C16.0939 18.5642 17.8418 20.3126 20.0002 20.3126C22.1541 20.3126 23.9064 18.5602 23.9064 16.4063V14.0598L25.4689 14.0606V21.0938V29.0626H14.5314C14.5314 28.664 14.5314 14.1895 14.5314 14.0552ZM11.0782 22.5868C11.0765 22.5887 11.075 22.5908 11.0733 22.5927C10.246 23.4912 9.29596 24.2411 8.24955 24.8214C6.65197 25.7069 4.0683 27.3466 3.91197 27.4422C3.30072 27.8016 2.52307 27.7014 2.02057 27.1984C1.38846 26.5663 1.39994 25.504 2.12322 24.8945C2.91807 24.4909 7.10416 22.1801 8.32205 21.5715C8.45416 21.5055 8.56478 21.4034 8.64127 21.277C9.39361 20.0333 12.5434 14.8229 12.5433 14.8229C12.6548 14.6389 12.8005 14.4829 12.9689 14.3602V20.5294C12.955 20.5443 11.0854 22.579 11.0782 22.5868ZM17.6564 38.4376H14.5314C13.6699 38.4376 12.9689 37.7366 12.9689 36.8751C12.9689 36.0135 13.6699 35.3126 14.5314 35.3126H17.6564V38.4376ZM33.1631 34.1323C33.7198 34.4078 34.1417 34.9079 34.3208 35.5052C34.5003 36.1006 34.4245 36.75 34.1129 37.2865C33.6879 38.018 32.9517 38.4376 32.0931 38.4376H19.2189V35.3126H23.1252C23.5566 35.3126 23.9064 34.9628 23.9064 34.5313C23.9064 34.0998 23.5566 33.7501 23.1252 33.7501H14.5314C12.8083 33.7501 11.4064 35.152 11.4064 36.8751C11.4064 37.4441 11.56 37.9776 11.8268 38.4376H7.90713C7.03252 38.4376 6.28924 38.0055 5.86807 37.2527C5.56885 36.7171 5.50221 36.0727 5.68525 35.4842C5.86791 34.8963 6.28814 34.4034 6.83846 34.1317L13.9328 30.6251H26.0676L33.1631 34.1323ZM37.9795 27.1988C37.4771 27.7016 36.6996 27.8016 36.0933 27.4453C35.9204 27.3402 33.3676 25.7177 31.751 24.8216C30.7013 24.2395 29.757 23.4959 28.9443 22.6116C28.351 21.9656 27.6195 21.1699 27.0314 20.53V14.3633C27.2005 14.4848 27.346 14.6398 27.4566 14.8222C27.4566 14.8222 30.6067 20.0333 31.359 21.2771C31.4355 21.4035 31.5462 21.5055 31.6783 21.5716C32.8882 22.1763 37.0893 24.4946 37.8771 24.8947C38.6024 25.5059 38.6101 26.5683 37.9795 27.1988Z" fill="black"/>
<path d="M20 0C16.9845 0 14.5312 2.45328 14.5312 5.46875C14.5312 8.48422 16.9845 10.9375 20 10.9375C23.0154 10.9375 25.4688 8.48422 25.4688 5.46875C25.4688 2.45328 23.0155 0 20 0ZM20 9.375C17.8461 9.375 16.0938 7.62266 16.0938 5.46875C16.0938 3.31484 17.8461 1.5625 20 1.5625C22.1539 1.5625 23.9062 3.31484 23.9062 5.46875C23.9062 7.62266 22.1539 9.375 20 9.375Z" fill="black"/>
</g>
<defs>
<clipPath id="clip0_83_551">
<rect width="40" height="40" fill="white"/>
</clipPath>
</defs>
</svg>
