<svg width="40" height="40" viewBox="0 0 40 40" fill="none" xmlns="http://www.w3.org/2000/svg">
<g clip-path="url(#clip0_83_571)">
<path d="M12.4828 17.6597C12.0522 17.6597 11.7026 18.0092 11.7026 18.4398C11.7026 18.8704 12.0522 19.22 12.4828 19.22C12.9134 19.22 13.2629 18.8704 13.2629 18.4398C13.2629 18.0092 12.9134 17.6597 12.4828 17.6597Z" fill="black"/>
<path d="M38.4272 27.3343C38.4272 25.6289 39.41 23.1454 39.8048 21.653C40.7898 17.9308 37.9309 14.1251 33.8445 14.0723C33.8412 14.0723 33.8378 14.0723 33.8345 14.0723H28.0659C28.0625 14.0723 28.0592 14.0723 28.0558 14.0723C26.7175 14.0896 25.4646 14.508 24.4244 15.2704C23.9822 14.2134 23.2835 13.2676 22.3871 12.5344C21.3402 11.678 20.062 11.1458 18.724 10.9954V10.1699C18.724 8.87937 17.6741 7.82945 16.3835 7.82945H14.8232V4.70867H17.9439C18.3747 4.70867 18.724 4.35938 18.724 3.92852V3.14836H22.3018L23.6335 4.48016C23.7859 4.6325 23.9856 4.70867 24.1852 4.70867C24.3848 4.70867 24.5846 4.6325 24.7368 4.48016C25.0415 4.17547 25.0415 3.68149 24.7368 3.3768L23.1765 1.81649C23.0303 1.67024 22.8318 1.58798 22.6249 1.58798H18.5899C18.2678 0.67993 17.4007 0.0275879 16.3836 0.0275879H8.58186C7.29131 0.0275879 6.24139 1.07751 6.24139 2.36813V3.92844C6.24139 4.3593 6.59069 4.7086 7.02155 4.7086H10.1422V7.82929H8.58194C7.29139 7.82929 6.24147 8.87921 6.24147 10.1698V10.9935C2.73554 11.383 0 14.3636 0 17.9715V18.4396C0 19.2173 0 35.2999 0 36.0714C0 38.2223 1.74992 39.9722 3.90085 39.9722H21.0646C22.2688 39.9722 23.3757 39.4247 24.1035 38.519C25.2414 39.4676 26.6965 39.9644 28.0658 39.9644L33.7462 39.9652C38.0054 39.931 40.7711 36.064 39.805 32.4C39.3931 30.8374 38.4272 29.0308 38.4272 27.3343ZM7.8017 3.14836V2.36821C7.8017 1.93805 8.1517 1.58805 8.58186 1.58805H16.3836C16.8137 1.58805 17.1637 1.93805 17.1637 2.36821V3.14836H14.043H10.9223H7.8017ZM13.2629 4.70867V7.82937H11.7026V4.70867H13.2629ZM7.8017 10.1699C7.8017 9.73976 8.1517 9.38976 8.58186 9.38976H10.9223H14.043H16.3835C16.8136 9.38976 17.1636 9.73976 17.1636 10.1699V10.9501H7.8017V10.1699ZM1.56031 19.2197H9.36201C9.79287 19.2197 10.1422 18.8704 10.1422 18.4396C10.1422 18.0087 9.79287 17.6594 9.36201 17.6594H1.56984C1.73218 14.7929 4.11499 12.5104 7.02147 12.5104H17.9438C20.3795 12.5104 22.5301 14.153 23.1935 16.4649C22.9018 16.8369 22.6557 17.2362 22.4592 17.6595H15.6033C15.1725 17.6595 14.8232 18.0088 14.8232 18.4397C14.8232 18.8705 15.1725 19.212 15.6033 19.212H21.9769C21.8449 20.0195 21.8834 20.8529 22.0953 21.6529C22.4898 23.1444 23.4729 25.6288 23.4729 27.3343C23.4729 28.7735 22.7769 30.2921 22.3074 31.7025H1.56031V19.2197ZM21.0646 38.412H3.90085C2.61031 38.412 1.56039 37.3621 1.56039 36.0714V33.2628H21.937C21.7853 34.6933 22.1692 36.1504 23.0228 37.3524C22.596 38.0065 21.8666 38.412 21.0646 38.412ZM33.8242 38.4121L28.1539 38.4128L28.0758 38.4121C25.0408 38.373 22.8307 35.5553 23.6329 32.6927C24.0396 31.2375 25.0332 29.3148 25.0332 27.3343C25.0332 25.3319 23.9982 22.7448 23.6036 21.2536C22.8708 18.4868 25.041 15.6666 28.0711 15.6248H33.8289C36.8787 15.667 39.0231 18.5071 38.2963 21.2539C37.902 22.745 36.8668 25.3321 36.8668 27.3343C36.8668 29.3678 37.9084 31.3276 38.2962 32.7978C39.0216 35.5494 36.8763 38.3725 33.8242 38.4121Z" fill="black"/>
<path d="M35.3072 27.3337C35.3072 24.7308 36.5472 21.7638 36.7878 20.8549C37.2704 19.0294 35.77 17.2187 33.8446 17.1932C33.8412 17.1932 33.8377 17.1931 33.8342 17.1931H28.1062C28.103 17.1931 28.0998 17.1931 28.0965 17.1932C26.0413 17.219 24.6477 19.0982 25.1123 20.8557C25.3648 21.8066 26.5935 24.7279 26.5935 27.3337C26.5935 30.0073 25.3519 32.2873 25.1128 33.1956C24.6638 34.8953 25.9587 36.8168 28.1438 36.8446C28.1472 36.8446 28.1505 36.8447 28.1538 36.8447C28.1605 36.8447 28.1631 36.8447 28.1637 36.8447C28.1625 36.8447 28.1571 36.8447 28.1548 36.8447C28.1791 36.8447 28.6791 36.8446 33.8035 36.8439C35.8573 36.818 37.2508 34.9473 36.7879 33.1966C36.5235 32.1946 35.3072 30.0625 35.3072 27.3337ZM33.781 35.2916L28.1593 35.2922C27.0362 35.2754 26.4243 34.3407 26.6217 33.5934C26.8154 32.8574 28.1539 30.3402 28.1539 27.3337C28.1539 24.4261 26.8594 21.3551 26.6207 20.4561C26.4152 19.679 27.0912 18.7612 28.1116 18.7456H33.8287C34.7419 18.7606 35.498 19.629 35.2794 20.4559C35.0338 21.384 33.7469 24.4068 33.7469 27.3337C33.7469 30.354 35.0755 32.8227 35.2794 33.5951C35.4806 34.3563 34.8293 35.2784 33.781 35.2916Z" fill="black"/>
<path d="M12.4828 20.7803C9.90168 20.7803 7.80176 22.8802 7.80176 25.4613C7.80176 28.0424 9.90168 30.1423 12.4828 30.1423C15.0639 30.1423 17.1638 28.0424 17.1638 25.4613C17.1638 22.8801 15.0639 20.7803 12.4828 20.7803ZM12.4828 28.5819C10.762 28.5819 9.36207 27.182 9.36207 25.4612C9.36207 23.7404 10.762 22.3405 12.4828 22.3405C14.2035 22.3405 15.6035 23.7404 15.6035 25.4612C15.6034 27.182 14.2035 28.5819 12.4828 28.5819Z" fill="black"/>
</g>
<defs>
<clipPath id="clip0_83_571">
<rect width="40" height="40" fill="white"/>
</clipPath>
</defs>
</svg>
