<svg width="40" height="40" viewBox="0 0 40 40" fill="none" xmlns="http://www.w3.org/2000/svg">
<g clip-path="url(#clip0_83_641)">
<path d="M30.1538 3.67139C29.7226 3.67139 29.3726 4.02139 29.3726 4.45264C29.3726 4.88388 29.7226 5.23388 30.1538 5.23388C30.5851 5.23388 30.9351 4.88388 30.9351 4.45264C30.9351 4.02139 30.5852 3.67139 30.1538 3.67139Z" fill="black"/>
<path d="M30.8688 0.624903C25.9693 -0.946188 21.8747 0.811934 19.9974 1.89529C18.1203 0.8117 14.0263 -0.9465 9.12563 0.624903C2.63564 2.7067 -0.407091 12.1834 4.79657 19.8299C7.26196 23.4512 7.59118 26.2444 7.93969 29.2016C8.19485 31.3664 8.45867 33.6049 9.5607 36.2219C10.3018 37.9813 11.3494 39.9939 12.8993 39.9937C12.9133 39.9937 12.9276 39.9936 12.9416 39.9933C14.188 39.9638 15.1923 38.7277 16.198 35.9851C16.7102 34.5871 17.0384 32.9374 17.3558 31.3422C17.9272 28.4708 18.518 25.5017 20.003 25.4913C20.0056 25.4913 20.0082 25.4913 20.0108 25.4913C21.4795 25.4913 22.069 28.4614 22.6392 31.3337C22.9568 32.934 23.2852 34.5889 23.7974 35.9853C24.8043 38.7321 25.8086 39.9701 27.0537 39.9995C27.0679 39.9998 27.0818 40 27.096 40C28.6428 40 29.6918 37.9842 30.4339 36.2219C31.4871 33.721 31.7629 31.488 32.0297 29.3286C32.4054 26.2882 32.7601 23.4165 35.2039 19.8217C40.4685 12.0764 37.2499 2.67045 30.8688 0.624903ZM33.9115 18.9432C31.2556 22.8503 30.8607 26.0463 30.4789 29.137C30.2135 31.2852 29.9628 33.3143 28.9938 35.6153C27.8441 38.3449 27.1774 38.4374 27.0931 38.4374C27.0922 38.4374 27.0914 38.4374 27.0906 38.4374C27.0605 38.4367 26.3417 38.3862 25.2644 35.4473C24.7941 34.1651 24.4778 32.571 24.1719 31.0295C23.8284 29.299 23.504 27.6644 22.9694 26.3885C22.2852 24.7561 21.2908 23.9286 20.0134 23.9286C20.0063 23.9286 19.999 23.9286 19.9919 23.9287C18.7092 23.9377 17.7111 24.7716 17.0255 26.4074C16.4911 27.6825 16.1668 29.3121 15.8236 31.0373C15.5177 32.5741 15.2016 34.1634 14.7311 35.4474C13.6558 38.3801 12.9352 38.4305 12.9051 38.4312C12.8351 38.4325 12.1605 38.3684 11.001 35.6155C9.98484 33.2023 9.74531 31.1703 9.4918 29.0188C9.13656 26.0049 8.76922 22.8883 6.0886 18.9509C1.39759 12.0578 4.22524 3.83802 9.60305 2.11295C14.2796 0.613341 18.1392 2.56138 19.5815 3.46865C19.8356 3.62857 20.159 3.62865 20.4132 3.46873C21.856 2.5617 25.7165 0.61381 30.3918 2.11303C35.8761 3.87091 38.5077 12.1815 33.9115 18.9432Z" fill="black"/>
<path d="M34.1462 8.088C33.8924 7.35136 33.5561 6.67355 33.1467 6.07332C32.9035 5.71676 32.4174 5.62496 32.061 5.86816C31.7046 6.11129 31.6128 6.5973 31.856 6.95379C32.187 7.43902 32.4605 7.99191 32.6689 8.59691C33.4474 10.8566 33.2443 13.4932 32.1116 15.8308C31.9234 16.2191 32.0856 16.6863 32.4739 16.8745C32.8623 17.0628 33.3296 16.9005 33.5177 16.5122C34.8292 13.8057 35.0584 10.7352 34.1462 8.088Z" fill="black"/>
<path d="M17.1585 10.6874L14.0135 9.63901L12.9651 6.49394C12.8588 6.17495 12.5602 5.95972 12.2239 5.95972C11.8877 5.95972 11.5892 6.17487 11.4828 6.49394L10.4344 9.63901L7.28934 10.6874C6.97036 10.7937 6.75513 11.0923 6.75513 11.4285C6.75513 11.7648 6.97028 12.0633 7.28934 12.1697L10.4344 13.2181L11.4828 16.3631C11.5891 16.6821 11.8877 16.8974 12.2239 16.8974C12.5602 16.8974 12.8587 16.6822 12.9651 16.3631L14.0135 13.2181L17.1585 12.1697C17.4775 12.0634 17.6928 11.7648 17.6928 11.4285C17.6928 11.0923 17.4776 10.7938 17.1585 10.6874ZM13.1488 11.8592C12.9155 11.937 12.7324 12.12 12.6546 12.3534L12.2239 13.6456L11.7932 12.3534C11.7155 12.1201 11.5325 11.937 11.2991 11.8592L10.0069 11.4285L11.2991 10.9978C11.5324 10.9201 11.7155 10.7371 11.7932 10.5037L12.2239 9.21151L12.6546 10.5037C12.7324 10.737 12.9154 10.9201 13.1488 10.9978L14.441 11.4285L13.1488 11.8592Z" fill="black"/>
</g>
<defs>
<clipPath id="clip0_83_641">
<rect width="40" height="40" fill="white"/>
</clipPath>
</defs>
</svg>
