<svg width="40" height="40" viewBox="0 0 40 40" fill="none" xmlns="http://www.w3.org/2000/svg">
<g clip-path="url(#clip0_83_676)">
<path d="M17.6562 35.3125C17.225 35.3125 16.875 35.6625 16.875 36.0937C16.875 36.525 17.225 36.875 17.6562 36.875C18.0875 36.875 18.4375 36.525 18.4375 36.0937C18.4375 35.6625 18.0875 35.3125 17.6562 35.3125Z" fill="black"/>
<path d="M27.0315 0.00016321C21.8621 0.00016321 17.6565 4.20577 17.6565 9.37513H13.6761L12.9652 2.26617C12.931 1.92445 12.6778 1.64516 12.3411 1.57781L4.52861 0.0153194C4.10564 -0.0692897 3.69392 0.205084 3.60931 0.628208C3.5247 1.05133 3.79908 1.46289 4.2222 1.5475L11.468 2.99664L12.1058 9.37513H9.24648C7.84016 9.37513 6.76352 10.6011 6.91649 11.9747C7.10805 13.7637 9.57335 36.7874 9.69421 37.9156C9.82687 39.1039 10.8284 40 12.0238 40H23.2893C24.4848 40 25.4863 39.1039 25.6193 37.9121C25.6866 37.2836 27.6298 19.1367 27.6735 18.7277C32.5445 18.3966 36.4064 14.3286 36.4064 9.37513C36.4064 4.20577 32.2008 0.00016321 27.0315 0.00016321ZM8.46976 11.8051C8.41828 11.3424 8.77914 10.9376 9.2464 10.9376H12.262L12.9003 17.3193C12.3018 17.2907 11.7118 17.0314 11.1908 16.5564C10.5026 15.9289 9.6928 15.5394 8.85695 15.4211L8.46976 11.8051ZM24.3262 35.3125H20.7815C20.3501 35.3125 20.0003 35.6623 20.0003 36.0938C20.0003 36.5253 20.3501 36.875 20.7815 36.875H24.1588L24.066 37.7423C24.0218 38.1385 23.6879 38.4375 23.2893 38.4375H12.0238C11.6252 38.4375 11.2913 38.1386 11.2474 37.7457L11.1542 36.875H15.4386C15.87 36.875 16.2199 36.5253 16.2199 36.0938C16.2199 35.6623 15.87 35.3125 15.4386 35.3125H10.9869L9.03195 17.0548C9.41945 17.1764 9.7932 17.3965 10.1381 17.711C11.2358 18.7118 12.6239 19.0983 13.9483 18.771C14.6479 18.5978 15.2974 18.2411 15.8784 17.711C16.9993 16.6887 18.3921 16.6887 19.513 17.711C20.3714 18.4938 21.3772 18.8851 22.3831 18.8851C23.389 18.8851 24.395 18.4937 25.2534 17.7108C25.5734 17.4188 25.9195 17.2069 26.2784 17.0807C25.9991 19.6894 24.497 33.7181 24.3262 35.3125ZM26.818 12.0419C26.8181 12.041 26.8182 12.0402 26.8183 12.0396C26.8182 12.0403 26.8181 12.0408 26.818 12.0419ZM26.843 11.8083C26.8317 11.9142 26.8225 12.0001 26.8149 12.0708C26.8141 12.0779 26.8133 12.0862 26.8123 12.0959C26.8112 12.106 26.8102 12.1152 26.8092 12.1246C26.8087 12.1296 26.8081 12.1345 26.8076 12.14C26.8059 12.1561 26.8043 12.1709 26.8028 12.1847C26.77 12.4914 26.6778 13.3518 26.4552 15.4306C25.6452 15.5588 24.8759 15.9403 24.2005 16.5564C23.0795 17.5787 21.6867 17.5787 20.5659 16.5564C18.849 14.9908 16.5422 14.9909 14.8254 16.5566C14.6959 16.6747 14.5623 16.7783 14.4256 16.8697L13.8324 10.9377H26.0668V10.9376C26.526 10.9376 26.8959 11.3334 26.843 11.8083ZM26.0668 9.37521H22.3441V9.37513C22.3441 6.79045 24.4469 4.68765 27.0316 4.68765C29.6162 4.68765 31.719 6.79045 31.719 9.37513C31.719 11.5593 30.2283 13.4036 28.1885 13.9188L28.3963 11.978C28.5509 10.5904 27.4627 9.37521 26.0668 9.37521ZM27.843 17.1456L28.0141 15.5474C31.0167 15.0751 33.2815 12.4836 33.2815 9.37521C33.2815 5.92897 30.4777 3.12523 27.0315 3.12523C23.5853 3.12523 20.7815 5.92897 20.7815 9.37521H19.219C19.2191 5.06725 22.7237 1.56266 27.0316 1.56266C31.3394 1.56266 34.844 5.06733 34.844 9.37513C34.844 13.4089 31.771 16.7384 27.843 17.1456Z" fill="black"/>
<path d="M21.5627 25.4687H19.219V21.5625C19.219 21.131 18.8691 20.7812 18.4377 20.7812H13.7502C13.3188 20.7812 12.969 21.131 12.969 21.5625V26.25C12.969 26.6815 13.3188 27.0312 13.7502 27.0312H16.094V30.9375C16.094 31.3689 16.4438 31.7187 16.8752 31.7187H21.5627C21.9941 31.7187 22.344 31.3689 22.344 30.9375V26.25C22.344 25.8185 21.9941 25.4687 21.5627 25.4687ZM14.5315 25.4687V22.3437H17.6565V25.4687C16.7269 25.4687 15.4804 25.4687 14.5315 25.4687ZM20.7815 30.1562H17.6565V27.0312H20.7815V30.1562Z" fill="black"/>
</g>
<defs>
<clipPath id="clip0_83_676">
<rect width="40" height="40" fill="white"/>
</clipPath>
</defs>
</svg>
