<svg width="40" height="40" viewBox="0 0 40 40" fill="none" xmlns="http://www.w3.org/2000/svg">
<path d="M22.6562 13.75C22.225 13.75 21.875 14.1 21.875 14.5312C21.875 14.9625 22.225 15.3125 22.6562 15.3125C23.0875 15.3125 23.4375 14.9625 23.4375 14.5312C23.4375 14.1 23.0875 13.75 22.6562 13.75Z" fill="black"/>
<path d="M22.6562 18.4375C22.225 18.4375 21.875 18.7875 21.875 19.2188C21.875 19.65 22.225 20 22.6562 20C23.0875 20 23.4375 19.65 23.4375 19.2188C23.4375 18.7875 23.0875 18.4375 22.6562 18.4375Z" fill="black"/>
<path d="M13.802 22.727C13.471 22.4311 13.2812 22.0066 13.2812 21.5625C13.2812 21.1184 13.471 20.6939 13.802 20.398C14.1848 20.0558 14.0249 19.6272 14.0625 19.2188V14.5312C14.0625 12.3541 12.7834 10.4705 10.9375 9.59125V8.28125C10.9375 7.26281 10.2843 6.39438 9.375 6.07188V3.59375C9.375 3.16227 9.02523 2.8125 8.59375 2.8125H5.46875C5.03727 2.8125 4.6875 3.16227 4.6875 3.59375V6.07188C3.7782 6.39438 3.125 7.26281 3.125 8.28125V9.59125C1.27906 10.4705 0 12.3541 0 14.5312C0 15.3518 0 19.2199 0 19.8156C0 20.038 0.0947656 20.2498 0.260547 20.398C0.591484 20.6939 0.78125 21.1184 0.78125 21.5625C0.78125 22.0066 0.591484 22.4311 0.260547 22.727C0.0947656 22.8752 0 23.087 0 23.3094C0 24.9094 0 32.2279 0 33.2812C0 35.4352 1.75234 37.1875 3.90625 37.1875H10.1562C12.3102 37.1875 14.0625 35.4352 14.0625 33.2812C14.0625 32.2165 14.0625 24.9077 14.0625 23.3094C14.0625 23.087 13.9677 22.8752 13.802 22.727ZM6.25 4.375H7.8125V5.9375H6.25V4.375ZM4.6875 8.28125C4.6875 7.85047 5.03797 7.5 5.46875 7.5H8.59375C9.02453 7.5 9.375 7.85047 9.375 8.28125V9.0625H4.6875V8.28125ZM12.5 33.2812C12.5 34.5736 11.4486 35.625 10.1562 35.625H3.90625C2.61391 35.625 1.5625 34.5736 1.5625 33.2812V24.6875H12.5V33.2812ZM1.92477 19.9922H12.1377C11.8663 20.4626 11.7188 21.0088 11.7188 21.5625C11.7188 22.1162 11.8663 22.6546 12.1377 23.125H1.92477C2.19625 22.6546 2.34375 22.1162 2.34375 21.5625C2.34375 21.0088 2.19625 20.4626 1.92477 19.9922ZM12.5 18.4375H1.5625V14.5312C1.5625 12.3773 3.31484 10.625 5.46875 10.625H8.59375C10.7477 10.625 12.5 12.3773 12.5 14.5312V18.4375Z" fill="black"/>
<path d="M37.6562 5.9375C36.4283 5.9375 32.8662 5.9375 31.6402 5.9375C31.2773 4.15672 29.6989 2.8125 27.8125 2.8125C25.9261 2.8125 24.3477 4.15672 23.9848 5.9375C22.7591 5.9375 19.1967 5.9375 17.9688 5.9375C16.6764 5.9375 15.625 6.98891 15.625 8.28125V34.8438C15.625 36.1361 16.6764 37.1875 17.9688 37.1875H37.6562C38.9486 37.1875 40 36.1361 40 34.8438V8.28125C40 6.98891 38.9486 5.9375 37.6562 5.9375ZM23.4375 7.5H24.6875C25.1189 7.5 25.4688 7.15023 25.4688 6.71875C25.4688 5.42641 26.5202 4.375 27.8125 4.375C29.1048 4.375 30.1562 5.42641 30.1562 6.71875C30.1562 7.15023 30.5061 7.5 30.9375 7.5H32.1875V9.0625H23.4375V7.5ZM35.3125 10.625V32.5H20.3125V10.625H35.3125ZM38.4375 34.8438C38.4375 35.2745 38.087 35.625 37.6562 35.625H17.9688C17.538 35.625 17.1875 35.2745 17.1875 34.8438V8.28125C17.1875 7.85047 17.538 7.5 17.9688 7.5H21.875V9.0625H19.5312C19.0998 9.0625 18.75 9.41227 18.75 9.84375V33.2812C18.75 33.7127 19.0998 34.0625 19.5312 34.0625H36.0938C36.5252 34.0625 36.875 33.7127 36.875 33.2812V9.84375C36.875 9.41227 36.5252 9.0625 36.0938 9.0625H33.75V7.5H37.6562C38.087 7.5 38.4375 7.85047 38.4375 8.28125V34.8438Z" fill="black"/>
<path d="M32.9688 13.75H25.7812C25.3498 13.75 25 14.0998 25 14.5312C25 14.9627 25.3498 15.3125 25.7812 15.3125H32.9688C33.4002 15.3125 33.75 14.9627 33.75 14.5312C33.75 14.0998 33.4002 13.75 32.9688 13.75Z" fill="black"/>
<path d="M32.9688 23.125H22.6562C22.2248 23.125 21.875 23.4748 21.875 23.9062C21.875 24.3377 22.2248 24.6875 22.6562 24.6875H32.9688C33.4002 24.6875 33.75 24.3377 33.75 23.9062C33.75 23.4748 33.4002 23.125 32.9688 23.125Z" fill="black"/>
<path d="M32.9688 27.8125H22.6562C22.2248 27.8125 21.875 28.1623 21.875 28.5938C21.875 29.0252 22.2248 29.375 22.6562 29.375H32.9688C33.4002 29.375 33.75 29.0252 33.75 28.5938C33.75 28.1623 33.4002 27.8125 32.9688 27.8125Z" fill="black"/>
<path d="M32.9688 18.4375H25.7812C25.3498 18.4375 25 18.7873 25 19.2188C25 19.6502 25.3498 20 25.7812 20H32.9688C33.4002 20 33.75 19.6502 33.75 19.2188C33.75 18.7873 33.4002 18.4375 32.9688 18.4375Z" fill="black"/>
</svg>
