<svg width="40" height="40" viewBox="0 0 40 40" fill="none" xmlns="http://www.w3.org/2000/svg">
<g clip-path="url(#clip0_83_827)">
<path d="M35.5234 4.47666C35.2187 4.17119 34.7235 4.17119 34.4188 4.47666C34.1133 4.78135 34.1133 5.27658 34.4188 5.58127C34.7235 5.88674 35.2187 5.88674 35.5234 5.58127C35.8289 5.27666 35.8289 4.78135 35.5234 4.47666Z" fill="black"/>
<path d="M26.8017 19.4479C26.497 19.1424 26.0018 19.1424 25.6971 19.4479C25.3917 19.7525 25.3917 20.2478 25.6971 20.5525C26.0018 20.8579 26.497 20.8579 26.8017 20.5525C27.1072 20.2478 27.1072 19.7525 26.8017 19.4479Z" fill="black"/>
<path d="M23.677 16.3233C23.3723 16.0179 22.877 16.0179 22.5724 16.3233C22.2669 16.628 22.2669 17.1233 22.5724 17.4279C22.877 17.7334 23.3723 17.7334 23.677 17.4279C23.9824 17.1233 23.9824 16.6279 23.677 16.3233Z" fill="black"/>
<path d="M23.677 22.5726C23.3723 22.2671 22.877 22.2671 22.5724 22.5726C22.2669 22.8773 22.2669 23.3725 22.5724 23.6772C22.877 23.9827 23.3723 23.9827 23.677 23.6772C23.9824 23.3725 23.9824 22.8773 23.677 22.5726Z" fill="black"/>
<path d="M20.552 13.1986C20.2473 12.8931 19.752 12.8931 19.4474 13.1986C19.1419 13.5033 19.1419 13.9985 19.4474 14.3032C19.752 14.6087 20.2473 14.6087 20.552 14.3032C20.8574 13.9985 20.8574 13.5033 20.552 13.1986Z" fill="black"/>
<path d="M20.552 19.4479C20.2473 19.1424 19.752 19.1424 19.4474 19.4479C19.1419 19.7525 19.1419 20.2478 19.4474 20.5525C19.752 20.8579 20.2473 20.8579 20.552 20.5525C20.8574 20.2478 20.8574 19.7525 20.552 19.4479Z" fill="black"/>
<path d="M20.552 25.6974C20.2473 25.3919 19.752 25.3919 19.4474 25.6974C19.1419 26.002 19.1419 26.4973 19.4474 26.802C19.752 27.1074 20.2473 27.1074 20.552 26.802C20.8574 26.4973 20.8574 26.002 20.552 25.6974Z" fill="black"/>
<path d="M17.4275 16.3233C17.1228 16.0179 16.6275 16.0179 16.3229 16.3233C16.0174 16.628 16.0174 17.1233 16.3229 17.4279C16.6275 17.7334 17.1228 17.7334 17.4275 17.4279C17.7329 17.1233 17.7329 16.6279 17.4275 16.3233Z" fill="black"/>
<path d="M17.4275 22.5726C17.1228 22.2671 16.6275 22.2671 16.3229 22.5726C16.0174 22.8773 16.0174 23.3725 16.3229 23.6772C16.6275 23.9827 17.1228 23.9827 17.4275 23.6772C17.7329 23.3725 17.7329 22.8773 17.4275 22.5726Z" fill="black"/>
<path d="M14.3029 19.4479C13.9983 19.1424 13.503 19.1424 13.1983 19.4479C12.8929 19.7525 12.8929 20.2478 13.1983 20.5525C13.503 20.8579 13.9983 20.8579 14.3029 20.5525C14.6083 20.2478 14.6083 19.7525 14.3029 19.4479Z" fill="black"/>
<path d="M32.1514 19.9994L37.4806 14.6702C40.8387 11.3121 40.8391 5.87657 37.4806 2.51806C34.1228 -0.839744 28.6868 -0.840369 25.3283 2.51806L19.9992 7.84719L14.6701 2.51806C11.3117 -0.840135 5.87657 -0.840526 2.51783 2.51806C-0.840057 5.8761 -0.840447 11.3119 2.51783 14.6703L7.84696 19.9994L2.51783 25.3286C-0.839979 28.6866 -0.840369 34.1225 2.5179 37.4807C5.87571 40.8385 11.3117 40.8392 14.6701 37.4807L19.9992 32.1516L25.3283 37.4807C28.6863 40.8386 34.1221 40.8391 37.4806 37.4807C40.8384 34.1227 40.8388 28.6869 37.4806 25.3285L32.1514 19.9994ZM26.4331 3.62298C29.1743 0.881737 33.6345 0.881658 36.3756 3.62298C39.1233 6.37055 39.1236 10.8177 36.3756 13.5655L31.0465 18.8947L21.104 8.95211L26.4331 3.62298ZM3.62267 13.5656C0.881424 10.8245 0.881424 6.36415 3.62267 3.62298C6.37024 0.875409 10.8173 0.875018 13.5652 3.62298L18.8944 8.95211L8.9518 18.8947L3.62267 13.5656ZM13.5653 36.376C10.8241 39.1172 6.36376 39.1172 3.62275 36.376C0.881502 33.6348 0.881502 29.1745 3.62275 26.4334L8.95188 21.1043L18.8944 31.0468L13.5653 36.376ZM10.0566 19.9995L19.9993 10.0569L29.9418 19.9994L19.9992 29.9422L10.0566 19.9995ZM36.3757 36.376C33.6346 39.1172 29.1742 39.1172 26.4332 36.376L21.104 31.0468L31.0467 21.1043L36.3757 26.4333C39.117 29.1745 39.117 33.6348 36.3757 36.376Z" fill="black"/>
<path d="M36.8219 7.86045C36.7644 7.43288 36.3714 7.13303 35.9435 7.19038C35.5159 7.24788 35.216 7.64108 35.2734 8.06874C35.4378 9.29069 35.0345 10.4893 34.1673 11.3572L30.4949 15.0295C30.1898 15.3346 30.1898 15.8292 30.4949 16.1343C30.8 16.4393 31.2945 16.4393 31.5997 16.1343L35.2722 12.4617C36.4869 11.2462 37.0516 9.56904 36.8219 7.86045Z" fill="black"/>
</g>
<defs>
<clipPath id="clip0_83_827">
<rect width="40" height="40" fill="white"/>
</clipPath>
</defs>
</svg>
