<svg width="40" height="40" viewBox="0 0 40 40" fill="none" xmlns="http://www.w3.org/2000/svg">
<g clip-path="url(#clip0_83_109)">
<path d="M37.8839 34.0395C32.6246 29.0094 28.4895 25.1622 25.2549 22.0571C26.7681 20.455 28.6208 18.0764 29.8032 15.096C31.4554 10.9345 30.7742 6.04532 27.4831 2.95782C25.3644 0.970549 22.6618 0 20.0027 0C15.4036 0 11.27 2.90461 9.71678 7.22767C9.04443 9.09822 8.98146 11.2126 9.53498 13.3424C10.1962 15.8838 11.7318 18.3947 14.7826 21.8945L2.11559 34.0402C1.96395 34.1855 1.87739 34.3858 1.87505 34.5958C1.87278 34.8059 1.95528 35.0079 2.1038 35.1564L6.71802 39.7705C7.02568 40.0781 7.52506 40.0749 7.82881 39.7644L19.9335 27.3886C23.1331 30.6575 27.2284 34.704 32.1701 39.7647C32.4738 40.0757 32.9735 40.079 33.2814 39.7713L37.8963 35.1563C38.0449 35.0077 38.1274 34.8055 38.125 34.5953C38.1227 34.3851 38.0357 34.1848 37.8839 34.0395ZM26.4142 4.0972C29.1029 6.6197 29.8632 10.7107 28.3511 14.5198C27.2248 17.3587 25.3876 19.6331 24.13 20.9717C22.9379 19.8146 21.9604 18.84 21.1238 17.9745C23.9152 15.2606 26.2518 11.7052 26.2518 7.81119C26.2518 6.04767 25.8338 4.37907 25.0684 3.04735C25.5443 3.35352 25.995 3.70415 26.4142 4.0972ZM20.0027 1.56227C22.5859 1.56227 24.0868 3.66977 24.5435 6.18282C23.4077 5.23103 21.9581 4.68681 20.4152 4.68681H19.5902C18.0462 4.68681 16.5963 5.23118 15.4605 6.18353C15.9013 3.74016 17.3625 1.56227 20.0027 1.56227ZM19.5903 6.249H20.4152C22.1734 6.249 23.7723 7.1815 24.6404 8.69681C24.3498 11.3554 22.7322 14.2214 20.0499 16.8393C16.8637 13.3907 15.594 11.1815 15.3578 8.70939C16.2244 7.18658 17.8266 6.249 19.5903 6.249ZM7.2642 38.1073L3.77263 34.6158L15.8222 23.0621C16.668 23.9938 17.6502 25.0363 18.8434 26.2689L7.2642 38.1073ZM32.7353 38.108C19.0238 24.0961 12.4903 18.4962 11.047 12.9492C10.573 11.1253 10.6214 9.32947 11.187 7.75595C11.8968 5.7804 13.2358 4.15032 14.9286 3.0593C14.1676 4.38884 13.7537 6.05056 13.7537 7.81126C13.7537 14.443 19.3632 18.5131 36.2265 34.6166L32.7353 38.108Z" fill="black"/>
</g>
<defs>
<clipPath id="clip0_83_109">
<rect width="40" height="40" fill="white"/>
</clipPath>
</defs>
</svg>
