<svg width="40" height="40" viewBox="0 0 40 40" fill="none" xmlns="http://www.w3.org/2000/svg">
<path d="M13.5156 14.4141C13.0844 14.4141 12.7344 14.7641 12.7344 15.1953C12.7344 15.6266 13.0844 15.9766 13.5156 15.9766C13.9469 15.9766 14.2969 15.6266 14.2969 15.1953C14.2969 14.7641 13.9469 14.4141 13.5156 14.4141Z" fill="black"/>
<path d="M8.82812 1.91406C4.10656 1.91406 0 5.73102 0 10.5078V29.2578C0 34.036 4.10812 37.8516 8.82812 37.8516C13.5413 37.8516 17.6562 34.042 17.6562 29.2578V10.5078C17.6562 5.72961 13.5481 1.91406 8.82812 1.91406ZM16.0938 29.2578C16.0938 33.2145 12.6318 36.2891 8.82812 36.2891C4.88977 36.2891 1.5625 33.0691 1.5625 29.2578V20.6641H16.0938V29.2578ZM16.0938 19.1016H1.5625V10.5078C1.5625 6.69648 4.88977 3.47656 8.82812 3.47656C12.7665 3.47656 16.0938 6.69648 16.0938 10.5078V19.1016Z" fill="black"/>
<path d="M10.6516 5.35191C10.2448 5.20793 9.79836 5.42066 9.65422 5.8273C9.51008 6.23402 9.72297 6.68059 10.1297 6.82473C11.6877 7.37684 12.7344 8.85699 12.7344 10.5079V12.0704C12.7344 12.5018 13.0841 12.8516 13.5156 12.8516C13.9471 12.8516 14.2969 12.5018 14.2969 12.0704V10.5079C14.2969 8.19668 12.832 6.12465 10.6516 5.35191Z" fill="black"/>
<path d="M29.6094 17.3047C24.1316 17.3047 19.2188 21.958 19.2188 27.6953C19.2188 33.2987 24.0064 38.0859 29.6094 38.0859C35.1909 38.0859 40 33.3423 40 27.6953C40 22.0919 35.2123 17.3047 29.6094 17.3047ZM29.6094 36.5234C24.8241 36.5234 20.7812 32.4806 20.7812 27.6953C20.7812 25.6555 21.5242 23.6841 22.8861 22.0769L35.2276 34.4184C33.6213 35.7808 31.6534 36.5234 29.6094 36.5234ZM36.3325 33.3135L23.9916 20.9727C25.5891 19.6259 27.5931 18.8672 29.6094 18.8672C34.3947 18.8672 38.4375 22.91 38.4375 27.6953C38.4375 29.7394 37.6948 31.7073 36.3325 33.3135Z" fill="black"/>
</svg>
