<svg width="40" height="40" viewBox="0 0 40 40" fill="none" xmlns="http://www.w3.org/2000/svg">
<g clip-path="url(#clip0_83_179)">
<path d="M30.8865 9.11362C30.5811 8.80815 30.0865 8.80815 29.7818 9.11362C29.4764 9.41909 29.4764 9.91362 29.7818 10.2183C30.0865 10.5237 30.5811 10.5237 30.8865 10.2183C31.192 9.91362 31.192 9.41909 30.8865 9.11362Z" fill="black"/>
<path d="M10.2181 29.7818C9.91338 29.4764 9.41807 29.4764 9.11338 29.7818C8.80791 30.0865 8.80791 30.5818 9.11338 30.8865C9.41807 31.1919 9.91338 31.1919 10.2181 30.8865C10.5235 30.5818 10.5235 30.0865 10.2181 29.7818Z" fill="black"/>
<path d="M38.8541 12.1942L27.806 1.14623C26.2795 -0.381269 23.8089 -0.381503 22.2815 1.14599L1.14502 22.2824C-0.381698 23.8092 -0.382949 26.2797 1.14502 27.8066L12.1931 38.8546C12.1931 38.8546 12.1931 38.8546 12.1933 38.8548C13.7196 40.3821 16.1901 40.3823 17.7176 38.8548L38.854 17.7185C40.3807 16.1917 40.382 13.7211 38.8541 12.1942ZM37.7492 16.6136L16.6128 37.7501C15.6967 38.6662 14.2148 38.6673 13.2984 37.7503C13.2984 37.7502 13.2983 37.7501 13.2982 37.7501L2.24978 26.7016C1.33338 25.7859 1.33314 24.3038 2.24994 23.3873L23.3862 2.25084C24.3026 1.33443 25.7844 1.33373 26.7008 2.25084L37.7492 13.2993C38.6658 14.215 38.666 15.6971 37.7492 16.6136Z" fill="black"/>
<path d="M34.7536 12.9805C33.535 11.7621 31.5525 11.762 30.3342 12.9803C29.1127 14.2008 29.1118 16.1784 30.334 17.3993C31.5556 18.6211 33.5319 18.6211 34.7536 17.3993V17.3994C35.9744 16.1785 35.9746 14.2016 34.7536 12.9805ZM33.6488 16.2945C33.0379 16.9055 32.0501 16.9059 31.4386 16.2943C30.8281 15.6843 30.8276 14.696 31.4388 14.0854C32.0482 13.476 33.0395 13.4761 33.6488 14.0854C34.2589 14.6955 34.2589 15.6844 33.6488 16.2945Z" fill="black"/>
<path d="M28.9953 18.7388C27.7767 17.5204 25.7942 17.5203 24.5759 18.7386C23.3542 19.9593 23.3537 21.9365 24.5759 23.1587C25.7943 24.3761 27.7766 24.3761 28.9951 23.1587C28.9952 23.1586 28.9954 23.1584 28.9955 23.1582C30.2133 21.9392 30.2133 19.9568 28.9953 18.7388ZM27.8904 22.0537C27.281 22.6626 26.2896 22.6623 25.6805 22.0537C25.0698 21.443 25.0692 20.4545 25.6805 19.8437C26.2899 19.2343 27.2811 19.2344 27.8904 19.8437C28.4993 20.4526 28.4993 21.444 27.8904 22.0537Z" fill="black"/>
<path d="M23.1586 24.5756C21.9375 23.3546 19.9603 23.3534 18.739 24.5756C17.5206 25.7942 17.5206 27.7768 18.739 28.9953C19.9572 30.2134 21.9396 30.2132 23.1584 28.9955C23.1585 28.9954 23.1587 28.9952 23.1589 28.995C24.3761 27.7766 24.3761 25.7942 23.1586 24.5756ZM22.0536 27.8907C21.4439 28.4993 20.4528 28.4994 19.8439 27.8904C19.2346 27.2811 19.2346 26.2897 19.8442 25.6802C20.4533 25.0705 21.4419 25.0685 22.0536 25.6801C22.6625 26.2897 22.6625 27.2813 22.0536 27.8907Z" fill="black"/>
<path d="M17.3996 30.3345C16.179 29.1128 14.2016 29.1122 12.9805 30.3342C11.762 31.5528 11.762 33.5354 12.9805 34.7539C14.1988 35.9721 16.1809 35.9722 17.3994 34.7539C17.3994 34.7539 17.3994 34.7539 17.3994 34.7538C18.6178 33.5353 18.6178 31.5527 17.3996 30.3345ZM16.2945 33.649C15.6855 34.258 14.6945 34.258 14.0854 33.649C13.4761 33.0397 13.4761 32.0483 14.0856 31.4388C14.6958 30.8281 15.6839 30.8279 16.2945 31.4389C16.9038 32.0484 16.9038 33.0398 16.2945 33.649Z" fill="black"/>
<path d="M27.0195 5.24625C25.8012 4.02805 23.819 4.02781 22.6006 5.24633C21.3822 6.46484 21.3822 8.44742 22.6004 9.66569C23.8214 10.8876 25.7987 10.8876 27.0198 9.66569C28.238 8.44718 28.2379 6.46468 27.0195 5.24625ZM25.9146 8.56117C25.9145 8.56124 25.9144 8.56132 25.9144 8.5614C25.3042 9.17202 24.3161 9.17226 23.7055 8.56124C23.0962 7.95187 23.0962 6.96039 23.7055 6.35117C24.3146 5.74203 25.3055 5.74203 25.9146 6.35117C26.5239 6.96046 26.5239 7.95187 25.9146 8.56117Z" fill="black"/>
<path d="M21.2607 11.0048C20.0427 9.78684 18.0602 9.78668 16.8409 11.0051C15.6236 12.2235 15.6236 14.2059 16.8411 15.4245C18.0626 16.6459 20.0397 16.6464 21.261 15.4242C22.4792 14.2057 22.4791 12.2232 21.2607 11.0048ZM20.1559 14.3196C20.1558 14.3197 20.1557 14.3198 20.1557 14.3199C19.5465 14.9295 18.5579 14.9315 17.9462 14.32C17.3372 13.7105 17.3372 12.7189 17.9457 12.1099C18.5548 11.5013 19.5464 11.5 20.1559 12.1096C20.7652 12.7189 20.7652 13.7103 20.1559 14.3196Z" fill="black"/>
<path d="M15.424 16.8409C14.2055 15.6236 12.2232 15.6235 11.0044 16.8415C9.78655 18.0605 9.78663 20.0429 11.0046 21.2609C12.223 22.4791 14.2054 22.4795 15.424 21.2611C16.6457 20.0405 16.6462 18.0632 15.424 16.8409ZM14.3197 20.1558C14.3196 20.1559 14.3195 20.1559 14.3194 20.156C13.7101 20.7653 12.7188 20.7653 12.1095 20.156C11.5004 19.5471 11.5005 18.5555 12.1092 17.9463C12.7183 17.3377 13.7101 17.337 14.3194 17.946C14.9298 18.5563 14.931 19.545 14.3197 20.1558Z" fill="black"/>
<path d="M9.66611 22.6008C8.44447 21.3789 6.46823 21.3788 5.24651 22.6006C4.02565 23.8215 4.0255 25.7984 5.24651 27.0195C6.46487 28.2377 8.44729 28.2382 9.66588 27.0198C10.8874 25.7994 10.8882 23.8217 9.66611 22.6008ZM8.5615 25.9144C8.56143 25.9145 8.56135 25.9146 8.56127 25.9147C7.95197 26.524 6.96057 26.524 6.35127 25.9147C5.74112 25.3046 5.74096 24.3158 6.35127 23.7055C6.96213 23.0946 7.94994 23.0941 8.5615 23.7058C9.17213 24.3159 9.17213 25.3042 8.5615 25.9144Z" fill="black"/>
<path d="M28.6765 11.3234C28.3715 11.0186 27.8768 11.0184 27.5717 11.3234L11.3228 27.5716C11.0178 27.8767 11.0177 28.3714 11.3228 28.6765C11.628 28.9816 12.1226 28.9816 12.4277 28.6765L28.6765 12.4283C28.9816 12.1233 28.9817 11.6286 28.6765 11.3234Z" fill="black"/>
</g>
<defs>
<clipPath id="clip0_83_179">
<rect width="40" height="40" fill="white"/>
</clipPath>
</defs>
</svg>
