<svg width="40" height="40" viewBox="0 0 40 40" fill="none" xmlns="http://www.w3.org/2000/svg">
<g clip-path="url(#clip0_83_156)">
<path d="M20 27.0312C19.5687 27.0312 19.2188 27.3812 19.2188 27.8125C19.2188 28.2437 19.5687 28.5938 20 28.5938C20.4312 28.5938 20.7812 28.2437 20.7812 27.8125C20.7812 27.3812 20.4312 27.0312 20 27.0312Z" fill="black"/>
<path d="M37.6562 0H2.34375C1.05141 0 0 1.05141 0 2.34375V29.375C0 30.6673 1.05141 31.7188 2.34375 31.7188H14.2595L13.1705 35.3125H10.625C9.33266 35.3125 8.28125 36.3639 8.28125 37.6562V39.2188C8.28125 39.6502 8.63102 40 9.0625 40H30.9375C31.3689 40 31.7188 39.6502 31.7188 39.2188V37.6562C31.7188 36.3639 30.6673 35.3125 29.375 35.3125H26.8296L25.7406 31.7188H37.6562C38.9486 31.7188 40 30.6673 40 29.375V2.34375C40 1.05141 38.9486 0 37.6562 0ZM29.375 36.875C29.8058 36.875 30.1562 37.2255 30.1562 37.6562V38.4375H9.84375V37.6562C9.84375 37.2255 10.1942 36.875 10.625 36.875C12.627 36.875 26.5785 36.875 29.375 36.875ZM14.8031 35.3125L15.8921 31.7188H24.1079L25.1969 35.3125H14.8031ZM38.4375 29.375C38.4375 29.8058 38.087 30.1562 37.6562 30.1562C35.6559 30.1562 3.69711 30.1562 2.34375 30.1562C1.91297 30.1562 1.5625 29.8058 1.5625 29.375V2.34375C1.5625 1.91297 1.91297 1.5625 2.34375 1.5625H37.6562C38.087 1.5625 38.4375 1.91297 38.4375 2.34375V29.375Z" fill="black"/>
<path d="M36.0938 3.125H3.90625C3.47477 3.125 3.125 3.47484 3.125 3.90625V27.8125C3.125 28.2439 3.47477 28.5938 3.90625 28.5938H16.875C17.3065 28.5938 17.6562 28.2439 17.6562 27.8125C17.6562 27.3811 17.3065 27.0312 16.875 27.0312H4.6875V4.6875H35.3125V27.0312H23.125C22.6936 27.0312 22.3438 27.3811 22.3438 27.8125C22.3438 28.2439 22.6936 28.5938 23.125 28.5938H36.0938C36.5252 28.5938 36.875 28.2439 36.875 27.8125V3.90625C36.875 3.47484 36.5252 3.125 36.0938 3.125Z" fill="black"/>
<path d="M32.9688 16.0937H26.7329L25.3863 13.4006C25.2488 13.1255 24.9631 12.9567 24.6551 12.9693C24.3477 12.982 24.0765 13.1741 23.9622 13.4597L21.6859 19.1503L19.1887 10.4102C19.097 10.0891 18.8111 9.86173 18.4775 9.84462C18.1436 9.8268 17.8362 10.0245 17.7123 10.3347L15.3794 16.167L14.4913 13.5027C14.3914 13.203 14.1207 12.9929 13.8055 12.9705C13.4905 12.9473 13.1927 13.1177 13.0514 13.4004L11.7047 16.0937H7.03125C6.59977 16.0937 6.25 16.4435 6.25 16.8749C6.25 17.3063 6.59977 17.6562 7.03125 17.6562H12.1875C12.4834 17.6562 12.7539 17.489 12.8863 17.2243L13.6052 15.7863L14.5713 18.6845C14.675 18.9956 14.9619 19.2088 15.2895 19.2184C15.617 19.2288 15.9161 19.032 16.0379 18.7277L18.3141 13.037L20.8113 21.7771C20.9031 22.0983 21.189 22.3256 21.5226 22.3427C21.536 22.3434 21.5494 22.3438 21.5627 22.3438C21.8806 22.3438 22.1688 22.1503 22.2879 21.8527L24.7667 15.6555L25.5513 17.2243C25.6836 17.489 25.9541 17.6562 26.25 17.6562H32.9688C33.4002 17.6562 33.75 17.3063 33.75 16.8749C33.75 16.4435 33.4002 16.0937 32.9688 16.0937Z" fill="black"/>
</g>
<defs>
<clipPath id="clip0_83_156">
<rect width="40" height="40" fill="white"/>
</clipPath>
</defs>
</svg>
