<svg width="40" height="40" viewBox="0 0 40 40" fill="none" xmlns="http://www.w3.org/2000/svg">
<path d="M5.46875 13.3601C5.0375 13.3601 4.6875 13.7101 4.6875 14.1414C4.6875 14.5726 5.0375 14.9226 5.46875 14.9226C5.9 14.9226 6.25 14.5726 6.25 14.1414C6.25 13.7101 5.9 13.3601 5.46875 13.3601Z" fill="black"/>
<path d="M39.1709 18.6037C39.7062 18.0248 40 17.2775 40 16.4851C39.9999 14.762 38.5981 13.3601 36.8749 13.3601H25.3901C25.0271 11.5792 23.4489 10.2351 21.5625 10.2351H9.89467L6.58569 4.7208C5.69772 3.23994 3.7789 2.75994 2.29812 3.64955C0.817342 4.53791 0.338046 6.45611 1.22695 7.93704L2.60546 10.2351H2.34375C1.0514 10.2351 0 11.2865 0 12.5788V18.8288C0 20.9827 1.75234 22.7351 3.90624 22.7351H6.24999C6.24999 23.543 6.24999 30.1615 6.24999 30.9679C5.31686 31.5091 4.68749 32.5184 4.68749 33.6725C4.68749 35.3957 6.08936 36.7975 7.81249 36.7975C9.53561 36.7975 10.9375 35.3957 10.9375 33.6725C10.9375 33.1036 10.7839 32.5622 10.5171 32.1022H29.0142C28.7474 32.5622 28.5938 33.1036 28.5938 33.6725C28.5938 35.3957 29.9956 36.7975 31.7188 36.7975C33.4419 36.7975 34.8438 35.3957 34.8438 33.6725C34.8438 32.5184 34.2144 31.5092 33.2813 30.9679C33.2813 30.1615 33.2813 23.543 33.2813 22.7351H37.6563C38.9486 22.7351 40 21.6837 40 20.3913C40 19.7223 39.7196 19.0701 39.1709 18.6037ZM2.56671 7.13306C2.12234 6.39283 2.36148 5.43361 3.10234 4.98924C3.84234 4.54478 4.80163 4.78385 5.24577 5.52463L8.07248 10.2352H4.42749L2.56671 7.13306ZM7.81249 35.235C6.95092 35.235 6.24999 34.5341 6.24999 33.6725C6.24999 32.811 6.95092 32.11 7.81249 32.11C8.67405 32.11 9.37498 32.8109 9.37498 33.6725C9.37498 34.5341 8.67405 35.235 7.81249 35.235ZM7.81249 30.5476V28.9851C8.83725 28.9851 29.6534 28.9851 31.7187 28.9851V30.5476H7.81249ZM7.81249 27.4226V22.7351H9.37498V27.4226H7.81249ZM10.9375 27.4226V22.7351H28.5937V27.4226H10.9375ZM30.1562 27.4226V22.7351H31.7187V27.4226H30.1562ZM31.7187 35.235C30.8571 35.235 30.1562 34.5341 30.1562 33.6725C30.1562 32.811 30.8571 32.11 31.7187 32.11C32.5802 32.11 33.2812 32.811 33.2812 33.6725C33.2812 34.5341 32.5802 35.235 31.7187 35.235ZM37.6562 21.1726H3.90624C2.6139 21.1726 1.5625 20.1212 1.5625 18.8288V12.5788C1.5625 12.1481 1.91297 11.7976 2.34375 11.7976C3.34257 11.7976 20.5178 11.7976 21.5625 11.7976C22.8548 11.7976 23.9062 12.849 23.9062 14.1413V18.8288C23.9062 19.2602 24.256 19.6101 24.6875 19.6101C26.0678 19.6101 35.582 19.6101 37.6562 19.6101C38.0876 19.6101 38.4374 19.96 38.4374 20.3913C38.4374 20.822 38.087 21.1726 37.6562 21.1726ZM37.9795 17.5897C37.6842 17.8849 37.292 18.0476 36.8749 18.0476H25.4687V14.9226H36.8749C37.7365 14.9226 38.4374 15.6234 38.4374 16.4851C38.4374 16.9021 38.2748 17.2944 37.9795 17.5897Z" fill="black"/>
<path d="M20 13.3601H8.59375C8.16226 13.3601 7.8125 13.71 7.8125 14.1414C7.8125 14.5728 8.16226 14.9226 8.59375 14.9226H20C20.4315 14.9226 20.7812 14.5728 20.7812 14.1414C20.7812 13.71 20.4315 13.3601 20 13.3601Z" fill="black"/>
</svg>
