<svg width="40" height="40" viewBox="0 0 40 40" fill="none" xmlns="http://www.w3.org/2000/svg">
<path d="M8.2815 14.5312C7.85025 14.5312 7.50024 14.8813 7.50024 15.3125C7.50024 15.7438 7.85025 16.0938 8.2815 16.0938C8.71275 16.0938 9.06275 15.7438 9.06275 15.3125C9.06275 14.8813 8.71275 14.5312 8.2815 14.5312Z" fill="black"/>
<path d="M27.0311 16.0938H23.1248V12.1875C23.1248 11.7561 22.775 11.4062 22.3436 11.4062H17.656C17.2246 11.4062 16.8748 11.7561 16.8748 12.1875V16.0938H12.9685C12.5371 16.0938 12.1873 16.4436 12.1873 16.875V21.5625C12.1873 21.9939 12.5371 22.3438 12.9685 22.3438H16.8748V26.2501C16.8748 26.6815 17.2246 27.0313 17.656 27.0313H22.3436C22.775 27.0313 23.1248 26.6815 23.1248 26.2501V22.3438H27.0311C27.4625 22.3438 27.8123 21.9939 27.8123 21.5625V16.875C27.8123 16.4436 27.4625 16.0938 27.0311 16.0938ZM26.2498 20.7813H22.3436C21.9121 20.7813 21.5623 21.1311 21.5623 21.5625V25.4688H18.4373V21.5625C18.4373 21.1311 18.0874 20.7813 17.656 20.7813H13.7498V17.6563H17.656C18.0874 17.6563 18.4373 17.3064 18.4373 16.875V12.9688H21.5623V16.875C21.5623 17.3064 21.9121 17.6563 22.3436 17.6563H26.2498V20.7813Z" fill="black"/>
<path d="M32.0607 2.40165C30.7958 3.2229 29.3268 3.65689 27.8126 3.65689C25.4968 3.65689 23.3139 2.6379 21.8237 0.861097C21.8236 0.861097 21.8236 0.861097 21.8236 0.861097C21.3646 0.313907 20.6999 0 20.0001 0C19.3002 0 18.6355 0.313907 18.1765 0.861019C16.6862 2.63782 14.5032 3.65681 12.1875 3.65681C10.6733 3.65681 9.20432 3.22275 7.93947 2.40157C6.3947 1.39899 4.375 2.57939 4.375 4.399V20.3343C4.375 23.8789 5.51204 27.3421 7.57642 30.0859C12.6835 36.8765 19.4083 39.8148 19.692 39.9366C19.7904 39.9788 19.8953 40 20.0001 40C20.1048 40 20.2098 39.9788 20.3081 39.9366C20.5919 39.8148 27.3167 36.8766 32.4236 30.0868C34.4882 27.3421 35.6251 23.8786 35.6251 20.3343V4.39908C35.6251 2.57931 33.605 1.39899 32.0607 2.40165ZM31.175 29.1475C26.9279 34.794 21.3574 37.7049 19.9996 38.358C18.6412 37.7065 13.0815 34.8064 8.8251 29.1467C6.96298 26.6719 5.93751 23.5424 5.93751 20.3344V4.39908C5.93751 3.80431 6.59384 3.39111 7.0886 3.7122C8.60744 4.69822 10.3706 5.2194 12.1875 5.2194C14.9664 5.2194 17.5858 3.99689 19.3736 1.86524C19.5373 1.67001 19.7597 1.56251 20.0001 1.56251C20.2404 1.56251 20.4628 1.67001 20.6265 1.86524C22.4144 3.99681 25.0337 5.2194 27.8126 5.2194C29.6295 5.2194 31.3926 4.69822 32.9115 3.7122C33.3982 3.39603 34.0626 3.79533 34.0626 4.39908V20.3343C34.0626 23.542 33.0371 26.6719 31.175 29.1475Z" fill="black"/>
<path d="M32.1698 6.25176C31.9625 6.10535 31.6971 6.06879 31.4578 6.15355C30.2824 6.57059 29.056 6.78199 27.8128 6.78199C25.1274 6.78199 22.5376 5.79066 20.5205 3.99058C20.2241 3.72612 19.7765 3.72612 19.4801 3.99058C17.463 5.79066 14.8732 6.78199 12.1878 6.78199C10.9446 6.78199 9.71814 6.57059 8.54275 6.15355C8.30337 6.06879 8.03814 6.10535 7.83079 6.25176C7.6236 6.39816 7.50032 6.63613 7.50032 6.88989V12.1876C7.50032 12.619 7.85017 12.9688 8.28158 12.9688C8.71298 12.9688 9.06283 12.619 9.06283 12.1876V7.9459C10.083 8.21075 11.13 8.34458 12.1878 8.34458C15.0312 8.34458 17.7797 7.37325 20.0004 5.59605C22.2211 7.37325 24.9695 8.34458 27.8129 8.34458C28.8707 8.34458 29.9178 8.21075 30.9379 7.9459V20.3345C30.9379 22.8697 30.1353 25.3317 28.6774 27.2673C25.7233 31.1967 22.1151 33.6298 20.0077 34.8276C17.8836 33.614 14.2523 31.1626 11.323 27.2686C9.86549 25.3318 9.06275 22.8692 9.06275 20.3344V18.4375C9.06275 18.0061 8.71291 17.6563 8.2815 17.6563C7.85009 17.6563 7.50024 18.0061 7.50024 18.4375V20.3344C7.50024 23.206 8.41447 26.0022 10.0744 28.2079C13.3596 32.5753 17.4714 35.2197 19.6299 36.4073C19.7472 36.4717 19.8768 36.504 20.0065 36.504C20.1354 36.504 20.2644 36.4721 20.3812 36.4083C22.523 35.2376 26.6113 32.6155 29.9259 28.2068C31.586 26.0024 32.5003 23.2067 32.5003 20.3344V6.88981C32.5003 6.63606 32.377 6.39816 32.1698 6.25176Z" fill="black"/>
</svg>
