<svg width="40" height="40" viewBox="0 0 40 40" fill="none" xmlns="http://www.w3.org/2000/svg">
<path d="M25.4688 20C25.0375 20 24.6875 20.35 24.6875 20.7812C24.6875 21.2125 25.0375 21.5625 25.4688 21.5625C25.9 21.5625 26.25 21.2125 26.25 20.7812C26.25 20.35 25.9 20 25.4688 20Z" fill="black"/>
<path d="M32.5 32.5H31.5667L29.0234 18.2405C28.5499 15.6386 26.2869 13.75 23.6422 13.75H16.3578C13.7127 13.75 11.4498 15.6387 10.977 18.2432L8.43328 32.5H7.5C6.20766 32.5 5.15625 33.5514 5.15625 34.8438V37.9688C5.15625 38.4002 5.50602 38.75 5.9375 38.75H34.0625C34.4939 38.75 34.8438 38.4002 34.8438 37.9688V34.8438C34.8438 33.5514 33.7923 32.5 32.5 32.5ZM12.5148 18.52C12.8522 16.6615 14.4684 15.3125 16.3578 15.3125H23.6422C25.5313 15.3125 27.1479 16.6616 27.4855 18.5176L29.9795 32.5H10.0205L12.5148 18.52ZM33.2812 37.1875H6.71875V34.8438C6.71875 34.413 7.06922 34.0625 7.5 34.0625C9.2557 34.0625 31.4362 34.0625 32.5 34.0625C32.9308 34.0625 33.2812 34.413 33.2812 34.8438V37.1875Z" fill="black"/>
<path d="M27.9874 30.0166L26.8413 23.708C26.7642 23.2834 26.3568 23.0015 25.933 23.079C25.5084 23.1561 25.2269 23.5627 25.304 23.9873L26.4501 30.2959C26.5277 30.7237 26.9377 31.0018 27.3584 30.9249C27.783 30.8478 28.0646 30.4411 27.9874 30.0166Z" fill="black"/>
<path d="M39.2188 20H32.5C32.0686 20 31.7188 20.3498 31.7188 20.7812C31.7188 21.2127 32.0686 21.5625 32.5 21.5625H39.2188C39.6502 21.5625 40 21.2127 40 20.7812C40 20.3498 39.6502 20 39.2188 20Z" fill="black"/>
<path d="M7.5 20H0.78125C0.349766 20 0 20.3498 0 20.7812C0 21.2127 0.349766 21.5625 0.78125 21.5625H7.5C7.93148 21.5625 8.28125 21.2127 8.28125 20.7812C8.28125 20.3498 7.93148 20 7.5 20Z" fill="black"/>
<path d="M33.8109 6.97021C33.5057 6.66521 33.0112 6.66521 32.706 6.97021L28.2864 11.3897C27.9813 11.6948 27.9813 12.1895 28.2864 12.4947C28.5917 12.7997 29.0861 12.7997 29.3913 12.4947L33.8109 8.07513C34.116 7.76997 34.116 7.27528 33.8109 6.97021Z" fill="black"/>
<path d="M11.7137 11.3898L7.29418 6.97023C6.98902 6.66523 6.49441 6.66516 6.18926 6.97023C5.88418 7.27531 5.88418 7.77 6.18926 8.07516L10.6088 12.4947C10.914 12.7998 11.4086 12.7998 11.7137 12.4947C12.0188 12.1896 12.0188 11.6949 11.7137 11.3898Z" fill="black"/>
<path d="M20 1.25C19.5686 1.25 19.2188 1.59984 19.2188 2.03125V8.28125C19.2188 8.71266 19.5686 9.0625 20 9.0625C20.4314 9.0625 20.7812 8.71266 20.7812 8.28125V2.03125C20.7812 1.59984 20.4314 1.25 20 1.25Z" fill="black"/>
</svg>
