<svg width="40" height="40" viewBox="0 0 40 40" fill="none" xmlns="http://www.w3.org/2000/svg">
<g clip-path="url(#clip0_83_371)">
<path d="M19.6112 4.76855C19.18 4.76855 18.8301 5.11855 18.8301 5.54972C18.8301 5.9809 19.1801 6.33089 19.6112 6.33089C20.0425 6.33089 20.3924 5.9809 20.3924 5.54972C20.3924 5.11855 20.0425 4.76855 19.6112 4.76855Z" fill="black"/>
<path d="M21.1735 14.1427H18.0488C17.7125 14.1427 17.4141 14.3578 17.3077 14.6768L16.4864 17.1406L15.6652 14.6769C15.5588 14.3578 15.2603 14.1428 14.9241 14.1428H13.9717L12.5573 8.48495C12.4704 8.13722 12.1579 7.89331 11.7995 7.89331C11.441 7.89331 11.1285 8.13729 11.0417 8.48495L9.6273 14.1428H7.11222C6.68082 14.1428 6.33105 14.4926 6.33105 14.9239C6.33105 15.3553 6.6809 15.7051 7.11222 15.7051H10.2369C10.5954 15.7051 10.9078 15.4611 10.9947 15.1135L11.7992 11.8955L12.6038 15.1135C12.6906 15.4612 13.0031 15.7051 13.3616 15.7051H14.3609L15.7452 19.858C15.8515 20.177 16.1501 20.3921 16.4863 20.3921C16.8225 20.3921 17.121 20.177 17.2274 19.858L18.6116 15.7051H21.1733C21.6047 15.7051 21.9545 15.3552 21.9545 14.9239C21.9547 14.4925 21.6048 14.1427 21.1735 14.1427Z" fill="black"/>
<path d="M38.709 33.1926C37.6983 32.2694 27.4314 22.9108 25.9811 21.5887C29.4476 16.0864 28.6939 8.80784 24.0077 4.12159C18.5124 -1.37355 9.61776 -1.37418 4.12184 4.12159C-1.37331 9.6169 -1.37393 18.5116 4.12184 24.0076C8.80566 28.6912 16.0751 29.4437 21.5725 25.9909C21.5841 26.0037 33.3254 38.8486 33.3347 38.8578C34.8604 40.3809 37.329 40.3818 38.8546 38.8549C40.4768 37.234 40.3277 34.6294 38.709 33.1926ZM5.22668 22.9027C0.342236 18.0184 0.341376 10.1114 5.22668 5.22636C10.111 0.341913 18.0179 0.340976 22.903 5.22636C27.8178 10.1411 27.8087 18.0422 22.9256 22.9253C18.0391 27.8126 10.1308 27.8068 5.22668 22.9027ZM22.9509 25.1606C22.9427 25.1517 22.9344 25.1431 22.9259 25.1345L22.8649 25.0735C23.2705 24.7491 23.6605 24.4001 24.0305 24.0301C24.3981 23.6626 24.7452 23.2745 25.0686 22.8706L26.8657 24.5091L24.5073 26.8675L22.9509 25.1606ZM37.7498 37.75C36.7836 38.7169 35.2122 38.6408 34.3512 37.6602L25.5611 28.0232L28.0215 25.5629L37.6607 34.3509C38.7108 35.3223 38.6539 36.8468 37.7498 37.75Z" fill="black"/>
<path d="M22.5369 7.14229C22.2628 6.80924 21.7705 6.76128 21.4373 7.03549C21.1041 7.30971 21.0564 7.80198 21.3305 8.1351C24.4105 11.8774 24.1462 17.2859 20.7157 20.7156C17.059 24.373 11.1165 24.3735 7.45929 20.7155C3.8018 17.0588 3.80148 11.1163 7.45937 7.45917C9.8246 5.09401 13.3072 4.16847 16.5486 5.04401C16.965 5.15636 17.394 4.91003 17.5065 4.49355C17.6189 4.07706 17.3725 3.64824 16.956 3.53566C13.1764 2.51457 9.11405 3.59472 6.3546 6.35425C2.08649 10.6216 2.08602 17.5526 6.35445 21.8202C10.6218 26.0884 17.5528 26.0888 21.8204 21.8204C25.8249 17.8165 26.0764 11.4429 22.5369 7.14229Z" fill="black"/>
</g>
<defs>
<clipPath id="clip0_83_371">
<rect width="40" height="40" fill="white"/>
</clipPath>
</defs>
</svg>
