<svg width="40" height="40" viewBox="0 0 40 40" fill="none" xmlns="http://www.w3.org/2000/svg">
<path d="M20 35.3125C19.5687 35.3125 19.2188 35.6625 19.2188 36.0938C19.2188 36.525 19.5687 36.875 20 36.875C20.4312 36.875 20.7812 36.525 20.7812 36.0938C20.7812 35.6625 20.4312 35.3125 20 35.3125Z" fill="black"/>
<path d="M21.5625 26.25H20.7812V25.4688C20.7812 25.0373 20.4314 24.6875 20 24.6875C19.5686 24.6875 19.2188 25.0373 19.2188 25.4688V26.25H18.4375C18.006 26.25 17.6562 26.5998 17.6562 27.0312C17.6562 27.4627 18.006 27.8125 18.4375 27.8125H19.2188V28.5938C19.2188 29.0252 19.5686 29.375 20 29.375C20.4314 29.375 20.7812 29.0252 20.7812 28.5938V27.8125H21.5625C21.9939 27.8125 22.3438 27.4627 22.3438 27.0312C22.3438 26.5998 21.9939 26.25 21.5625 26.25Z" fill="black"/>
<path d="M20 21.5625C16.9845 21.5625 14.5312 24.0158 14.5312 27.0312C14.5312 30.0467 16.9845 32.5 20 32.5C23.0155 32.5 25.4688 30.0467 25.4688 27.0312C25.4688 24.0158 23.0155 21.5625 20 21.5625ZM20 30.9375C17.8461 30.9375 16.0938 29.1852 16.0938 27.0312C16.0938 24.8773 17.8461 23.125 20 23.125C22.1539 23.125 23.9062 24.8773 23.9062 27.0312C23.9062 29.1852 22.1539 30.9375 20 30.9375Z" fill="black"/>
<path d="M27.0312 18.8285V17.9688C27.0312 16.9503 26.378 16.0819 25.4688 15.7594V14.0625H26.25C27.5449 14.0625 28.5938 13.0137 28.5938 11.7188C28.5938 10.4264 27.5423 9.375 26.25 9.375H25.1622C24.4725 8.08531 23.7888 7.19313 23.2761 6.52508C22.6464 5.70469 22.3438 5.28953 22.3438 4.82188V2.34375C22.3438 1.05141 21.2923 0 20 0C18.7077 0 17.6562 1.05141 17.6562 2.34375V4.82188C17.6562 5.28953 17.3536 5.70469 16.7239 6.52508C16.2112 7.19313 15.5275 8.08539 14.8378 9.375H13.6563C12.3615 9.375 11.3125 10.4237 11.3125 11.7188C11.3125 13.0111 12.3639 14.0625 13.6563 14.0625H14.5312V15.7594C13.622 16.0819 12.9688 16.9503 12.9688 17.9688V18.8285C11.188 19.1915 9.84375 20.7699 9.84375 22.6562V36.0938C9.84375 38.2477 11.5961 40 13.75 40H26.25C28.4039 40 30.1562 38.2477 30.1562 36.0938V22.6562C30.1562 20.7698 28.812 19.1914 27.0312 18.8285ZM17.9634 7.47633C18.6648 6.56258 19.2188 5.84078 19.2188 4.82188V2.34375C19.2188 1.91297 19.5692 1.5625 20 1.5625C20.4308 1.5625 20.7812 1.91297 20.7812 2.34375V4.82188C20.7812 5.84078 21.3352 6.56258 22.0366 7.47641C22.428 7.98656 22.8866 8.58469 23.3654 9.37508H16.6345C17.1134 8.58461 17.572 7.98648 17.9634 7.47633ZM13.6563 12.5C13.2255 12.5 12.875 12.1495 12.875 11.7188C12.875 11.2874 13.2249 10.9375 13.6563 10.9375C16.3163 10.9375 24.4911 10.9375 26.25 10.9375C26.6808 10.9375 27.0312 11.288 27.0312 11.7188C27.0312 12.15 26.6813 12.5 26.25 12.5H13.6563ZM23.9062 14.0625V15.625H16.0938V14.0625H23.9062ZM28.5938 35.3125H23.125C22.6936 35.3125 22.3438 35.6623 22.3438 36.0938C22.3438 36.5252 22.6936 36.8672 23.125 36.8672H28.4594C28.1369 37.7765 27.2684 38.4375 26.25 38.4375H13.75C12.7316 38.4375 11.8631 37.7843 11.5406 36.875H16.875C17.3065 36.875 17.6562 36.5252 17.6562 36.0938C17.6562 35.6623 17.3065 35.3125 16.875 35.3125H11.4062V22.6562C11.4062 21.3639 12.4577 20.3125 13.75 20.3125C14.1815 20.3125 14.5312 19.9627 14.5312 19.5312V17.9688C14.5312 17.538 14.8817 17.1875 15.3125 17.1875H24.6875C25.1183 17.1875 25.4688 17.538 25.4688 17.9688V19.5312C25.4688 19.9627 25.8186 20.3125 26.25 20.3125C27.5423 20.3125 28.5938 21.3639 28.5938 22.6562V35.3125Z" fill="black"/>
</svg>
