<svg width="40" height="40" viewBox="0 0 40 40" fill="none" xmlns="http://www.w3.org/2000/svg">
<g clip-path="url(#clip0_83_407)">
<path d="M20 31.7188C19.5687 31.7188 19.2188 32.0687 19.2188 32.5C19.2188 32.9312 19.5687 33.2812 20 33.2812C20.4312 33.2812 20.7812 32.9312 20.7812 32.5C20.7812 32.0687 20.4312 31.7188 20 31.7188Z" fill="black"/>
<path d="M39.2188 25.4688H38.4375V16.0938H39.2188C39.6502 16.0938 40 15.7439 40 15.3125C40 14.8811 39.6502 14.5312 39.2188 14.5312C37.0927 14.5312 31.9923 14.5312 30.1562 14.5312V10.1562C30.1562 8.86391 29.1048 7.8125 27.8125 7.8125H24.9405C25.2852 7.08594 25.4688 6.28719 25.4688 5.46875C25.4688 2.45328 23.0155 0 20 0C16.9845 0 14.5312 2.45328 14.5312 5.46875C14.5312 6.28719 14.7148 7.08594 15.0595 7.8125H12.1875C10.8952 7.8125 9.84375 8.86391 9.84375 10.1562V14.5312C8.00219 14.5312 2.89062 14.5312 0.78125 14.5312C0.349766 14.5312 0 14.8811 0 15.3125C0 15.7439 0.349766 16.0938 0.78125 16.0938H1.5625V25.4688H0.78125C0.349766 25.4688 0 25.8186 0 26.25C0 26.6814 0.349766 27.0312 0.78125 27.0312H1.5625V39.2188C1.5625 39.6502 1.91227 40 2.34375 40C15.3815 40 24.4754 40 37.6562 40C38.0877 40 38.4375 39.6502 38.4375 39.2188V27.0312H39.2188C39.6502 27.0312 40 26.6814 40 26.25C40 25.8186 39.6502 25.4688 39.2188 25.4688ZM9.84375 38.4375H3.125V27.0312H9.84375V38.4375ZM9.84375 25.4688H3.125V16.0938H9.84375V25.4688ZM20 1.5625C22.1539 1.5625 23.9062 3.31484 23.9062 5.46875C23.9062 6.4218 23.5596 7.33859 22.9298 8.05313C22.9236 8.05961 22.9176 8.06609 22.9116 8.07273C22.171 8.90039 21.1098 9.375 20 9.375C18.8902 9.375 17.829 8.90039 17.0884 8.07273C17.0824 8.06609 17.0764 8.05961 17.0702 8.05313C16.4404 7.33859 16.0938 6.4218 16.0938 5.46875C16.0938 3.31484 17.8461 1.5625 20 1.5625ZM23.9062 38.4375H20.7812V35.625C20.7812 35.1936 20.4315 34.8438 20 34.8438C19.5685 34.8438 19.2188 35.1936 19.2188 35.625V38.4375H16.0938V30.9375C16.0938 30.5067 16.4442 30.1562 16.875 30.1562H23.125C23.5558 30.1562 23.9062 30.5067 23.9062 30.9375V38.4375ZM28.5938 15.3125V38.4375H25.4688V30.9375C25.4688 29.6452 24.4173 28.5938 23.125 28.5938H16.875C15.5827 28.5938 14.5312 29.6452 14.5312 30.9375V38.4375H11.4062V15.3125V10.1562C11.4062 9.72547 11.7567 9.375 12.1875 9.375H16.1742C17.1925 10.3716 18.567 10.9375 20 10.9375C21.433 10.9375 22.8075 10.3716 23.8258 9.375H27.8125C28.2433 9.375 28.5938 9.72547 28.5938 10.1562V15.3125ZM36.875 38.4375H30.1562V27.0312H36.875V38.4375ZM36.875 25.4688H30.1562V16.0938H36.875V25.4688Z" fill="black"/>
<path d="M34.5312 17.6562H32.5C32.0685 17.6562 31.7188 18.0061 31.7188 18.4375C31.7188 18.8689 32.0685 19.2188 32.5 19.2188H34.5312C34.9627 19.2188 35.3125 18.8689 35.3125 18.4375C35.3125 18.0061 34.9627 17.6562 34.5312 17.6562Z" fill="black"/>
<path d="M34.5312 22.3438H32.5C32.0685 22.3438 31.7188 22.6936 31.7188 23.125C31.7188 23.5564 32.0685 23.9062 32.5 23.9062H34.5312C34.9627 23.9062 35.3125 23.5564 35.3125 23.125C35.3125 22.6936 34.9627 22.3438 34.5312 22.3438Z" fill="black"/>
<path d="M34.5312 28.5938H32.5C32.0685 28.5938 31.7188 28.9436 31.7188 29.375C31.7188 29.8064 32.0685 30.1562 32.5 30.1562H34.5312C34.9627 30.1562 35.3125 29.8064 35.3125 29.375C35.3125 28.9436 34.9627 28.5938 34.5312 28.5938Z" fill="black"/>
<path d="M34.5312 33.2812H32.5C32.0685 33.2812 31.7188 33.6311 31.7188 34.0625C31.7188 34.4939 32.0685 34.8438 32.5 34.8438H34.5312C34.9627 34.8438 35.3125 34.4939 35.3125 34.0625C35.3125 33.6311 34.9627 33.2812 34.5312 33.2812Z" fill="black"/>
<path d="M7.5 33.2812H5.46875C5.03727 33.2812 4.6875 33.6311 4.6875 34.0625C4.6875 34.4939 5.03727 34.8438 5.46875 34.8438H7.5C7.93148 34.8438 8.28125 34.4939 8.28125 34.0625C8.28125 33.6311 7.93148 33.2812 7.5 33.2812Z" fill="black"/>
<path d="M7.5 28.5938H5.46875C5.03727 28.5938 4.6875 28.9436 4.6875 29.375C4.6875 29.8064 5.03727 30.1562 5.46875 30.1562H7.5C7.93148 30.1562 8.28125 29.8064 8.28125 29.375C8.28125 28.9436 7.93148 28.5938 7.5 28.5938Z" fill="black"/>
<path d="M7.5 22.3438H5.46875C5.03727 22.3438 4.6875 22.6936 4.6875 23.125C4.6875 23.5564 5.03727 23.9062 5.46875 23.9062H7.5C7.93148 23.9062 8.28125 23.5564 8.28125 23.125C8.28125 22.6936 7.93148 22.3438 7.5 22.3438Z" fill="black"/>
<path d="M7.5 17.6562H5.46875C5.03727 17.6562 4.6875 18.0061 4.6875 18.4375C4.6875 18.8689 5.03727 19.2188 5.46875 19.2188H7.5C7.93148 19.2188 8.28125 18.8689 8.28125 18.4375C8.28125 18.0061 7.93148 17.6562 7.5 17.6562Z" fill="black"/>
<path d="M15.3125 14.5312H13.75C13.3185 14.5312 12.9688 14.8811 12.9688 15.3125C12.9688 15.7439 13.3185 16.0938 13.75 16.0938H15.3125C15.744 16.0938 16.0938 15.7439 16.0938 15.3125C16.0938 14.8811 15.744 14.5312 15.3125 14.5312Z" fill="black"/>
<path d="M21.5625 14.5312H18.4375C18.006 14.5312 17.6562 14.8811 17.6562 15.3125C17.6562 15.7439 18.006 16.0938 18.4375 16.0938H21.5625C21.994 16.0938 22.3438 15.7439 22.3438 15.3125C22.3438 14.8811 21.994 14.5312 21.5625 14.5312Z" fill="black"/>
<path d="M26.25 14.5312H24.6875C24.256 14.5312 23.9062 14.8811 23.9062 15.3125C23.9062 15.7439 24.256 16.0938 24.6875 16.0938H26.25C26.6815 16.0938 27.0312 15.7439 27.0312 15.3125C27.0312 14.8811 26.6815 14.5312 26.25 14.5312Z" fill="black"/>
<path d="M15.3125 19.2188H13.75C13.3185 19.2188 12.9688 19.5686 12.9688 20C12.9688 20.4314 13.3185 20.7812 13.75 20.7812H15.3125C15.744 20.7812 16.0938 20.4314 16.0938 20C16.0938 19.5686 15.744 19.2188 15.3125 19.2188Z" fill="black"/>
<path d="M21.5625 19.2188H18.4375C18.006 19.2188 17.6562 19.5686 17.6562 20C17.6562 20.4314 18.006 20.7812 18.4375 20.7812H21.5625C21.994 20.7812 22.3438 20.4314 22.3438 20C22.3438 19.5686 21.994 19.2188 21.5625 19.2188Z" fill="black"/>
<path d="M26.25 19.2188H24.6875C24.256 19.2188 23.9062 19.5686 23.9062 20C23.9062 20.4314 24.256 20.7812 24.6875 20.7812H26.25C26.6815 20.7812 27.0312 20.4314 27.0312 20C27.0312 19.5686 26.6815 19.2188 26.25 19.2188Z" fill="black"/>
<path d="M15.3125 23.9062H13.75C13.3185 23.9062 12.9688 24.2561 12.9688 24.6875C12.9688 25.1189 13.3185 25.4688 13.75 25.4688H15.3125C15.744 25.4688 16.0938 25.1189 16.0938 24.6875C16.0938 24.2561 15.744 23.9062 15.3125 23.9062Z" fill="black"/>
<path d="M21.5625 23.9062H18.4375C18.006 23.9062 17.6562 24.2561 17.6562 24.6875C17.6562 25.1189 18.006 25.4688 18.4375 25.4688H21.5625C21.994 25.4688 22.3438 25.1189 22.3438 24.6875C22.3438 24.2561 21.994 23.9062 21.5625 23.9062Z" fill="black"/>
<path d="M26.25 23.9062H24.6875C24.256 23.9062 23.9062 24.2561 23.9062 24.6875C23.9062 25.1189 24.256 25.4688 24.6875 25.4688H26.25C26.6815 25.4688 27.0312 25.1189 27.0312 24.6875C27.0312 24.2561 26.6815 23.9062 26.25 23.9062Z" fill="black"/>
<path d="M21.5625 4.6875H20.7812V3.90625C20.7812 3.47484 20.4315 3.125 20 3.125C19.5685 3.125 19.2188 3.47484 19.2188 3.90625V4.6875H18.4375C18.006 4.6875 17.6562 5.03734 17.6562 5.46875C17.6562 5.90016 18.006 6.25 18.4375 6.25H19.2188V7.03125C19.2188 7.46266 19.5685 7.8125 20 7.8125C20.4315 7.8125 20.7812 7.46266 20.7812 7.03125V6.25H21.5625C21.994 6.25 22.3438 5.90016 22.3438 5.46875C22.3438 5.03734 21.994 4.6875 21.5625 4.6875Z" fill="black"/>
</g>
<defs>
<clipPath id="clip0_83_407">
<rect width="40" height="40" fill="white"/>
</clipPath>
</defs>
</svg>
