<svg width="40" height="40" viewBox="0 0 40 40" fill="none" xmlns="http://www.w3.org/2000/svg">
<path d="M18.4375 10.9375C18.0062 10.9375 17.6562 11.2875 17.6562 11.7188C17.6562 12.15 18.0062 12.5 18.4375 12.5C18.8687 12.5 19.2188 12.15 19.2188 11.7188C19.2188 11.2875 18.8687 10.9375 18.4375 10.9375Z" fill="black"/>
<path d="M32.5 0C31.7184 0 11.4632 0 10.625 0C9.33266 0 8.28125 1.05141 8.28125 2.34375V3.90625C8.28125 4.33773 8.63109 4.6875 9.0625 4.6875H12.9688V6.25H9.0625C6.90859 6.25 5.15625 8.00234 5.15625 10.1562V27.3438C5.15625 29.4977 6.90859 31.25 9.0625 31.25H12.1875V32.0312C12.1875 33.3236 13.2389 34.375 14.5312 34.375V39.2188C14.5312 39.6502 14.8811 40 15.3125 40C15.7439 40 16.0938 39.6502 16.0938 39.2188V34.375C17.3861 34.375 18.4375 33.3236 18.4375 32.0312V31.25H21.5625C23.7164 31.25 25.4688 29.4977 25.4688 27.3438V10.1562C25.4688 8.00234 23.7164 6.25 21.5625 6.25H17.6562V4.6875H30.1562V31.25H28.5938V30.4688C28.5938 30.0373 28.2439 29.6875 27.8125 29.6875C27.3811 29.6875 27.0312 30.0373 27.0312 30.4688V32.0312C27.0312 32.4627 27.3811 32.8125 27.8125 32.8125H30.1562V39.2188C30.1562 39.6502 30.5061 40 30.9375 40H34.0625C34.4939 40 34.8438 39.6502 34.8438 39.2188V2.34375C34.8438 1.05141 33.7923 0 32.5 0ZM16.875 32.0312C16.875 32.462 16.5245 32.8125 16.0938 32.8125H14.5312C14.1005 32.8125 13.75 32.462 13.75 32.0312V31.25H16.875V32.0312ZM17.6562 29.6875H12.9688V28.9062C12.9688 28.4755 13.3192 28.125 13.75 28.125H16.875C17.3058 28.125 17.6562 28.4755 17.6562 28.9062V29.6875ZM23.9062 17.1875H21.5625C21.1311 17.1875 20.7812 17.5373 20.7812 17.9688C20.7812 18.4002 21.1311 18.75 21.5625 18.75H23.9062V20.3125H23.125C22.6936 20.3125 22.3438 20.6623 22.3438 21.0938C22.3438 21.5252 22.6936 21.875 23.125 21.875H23.9062V23.4375H21.5625C21.1311 23.4375 20.7812 23.7873 20.7812 24.2188C20.7812 24.6502 21.1311 25 21.5625 25H23.9062V27.3438C23.9062 28.6361 22.8548 29.6875 21.5625 29.6875H19.2188V28.9062C19.2188 27.6139 18.1673 26.5625 16.875 26.5625H13.75C12.4577 26.5625 11.4062 27.6139 11.4062 28.9062V29.6875H9.0625C7.77016 29.6875 6.71875 28.6361 6.71875 27.3438V15.625H23.9062V17.1875ZM21.5625 7.8125C22.8548 7.8125 23.9062 8.86391 23.9062 10.1562V10.9375H21.5625C21.1311 10.9375 20.7812 11.2873 20.7812 11.7188C20.7812 12.1502 21.1311 12.5 21.5625 12.5H23.9062V14.0625H6.71875V10.1562C6.71875 8.86391 7.77016 7.8125 9.0625 7.8125H21.5625ZM14.5312 6.25V4.6875H16.0938V6.25H14.5312ZM30.1562 3.125C29.8175 3.125 10.1775 3.125 9.84375 3.125V2.34375C9.84375 1.91297 10.1942 1.5625 10.625 1.5625H30.1562V3.125ZM33.2812 38.4375H31.7188C31.7188 36.6824 31.7188 2.58211 31.7188 1.5625H32.5C32.9308 1.5625 33.2812 1.91297 33.2812 2.34375V38.4375Z" fill="black"/>
</svg>
