<svg width="40" height="40" viewBox="0 0 40 40" fill="none" xmlns="http://www.w3.org/2000/svg">
<g clip-path="url(#clip0_83_544)">
<path d="M20 0C9.12992 0 0 9.77172 0 20.4688C0 31.4353 9.40305 40 20 40C30.782 40 40 30.7957 40 20C40 9.22008 30.7957 0 20 0ZM1.5625 20.4688C1.5625 10.3972 10.1781 1.5625 20 1.5625C24.4805 1.5625 28.9479 3.36086 32.3759 6.51914L22.8014 16.0938H7.5C6.20766 16.0938 5.15625 17.1452 5.15625 18.4375V21.5625C5.15625 22.8548 6.20766 23.9062 7.5 23.9062H14.9889L6.39617 32.499C3.27375 29.1696 1.5625 24.9272 1.5625 20.4688ZM23.4486 17.6562H23.9062V22.3438H18.7612L23.4486 17.6562ZM16.5514 22.3438H9.84375V17.6562H21.2389L16.5514 22.3438ZM8.28125 17.6562V22.3438H7.5C7.06922 22.3438 6.71875 21.9933 6.71875 21.5625V18.4375C6.71875 18.0067 7.06922 17.6562 7.5 17.6562H8.28125ZM20 38.4375C15.4376 38.4375 10.9305 36.6803 7.51133 33.5936L17.1987 23.9062H32.5C33.7923 23.9062 34.8438 22.8548 34.8438 21.5625V18.4375C34.8438 17.1452 33.7923 16.0938 32.5 16.0938H25.0111L33.4808 7.62406C36.6391 11.0521 38.4375 15.5195 38.4375 20C38.4375 29.9941 29.9941 38.4375 20 38.4375ZM25.4688 22.3438V17.6562H32.5C32.9308 17.6562 33.2812 18.0067 33.2812 18.4375V21.5625C33.2812 21.9933 32.9308 22.3438 32.5 22.3438H25.4688Z" fill="black"/>
<path d="M16.0938 5.9375H14.5312C13.3991 5.9375 12.3661 6.55906 11.819 7.5282C10.8624 7.635 10.0061 8.04172 9.36945 8.70008C8.66773 9.4257 8.28125 10.3868 8.28125 11.4062V14.5312C8.28125 14.9627 8.63109 15.3125 9.0625 15.3125C9.49391 15.3125 9.84375 14.9627 9.84375 14.5312C9.84375 13.2389 10.8952 12.1875 12.1875 12.1875H16.0938C17.8169 12.1875 19.2188 10.7856 19.2188 9.0625C19.2188 7.33938 17.8169 5.9375 16.0938 5.9375ZM16.0938 10.625H12.1875C11.3089 10.625 10.497 10.9166 9.84375 11.408V11.4062C9.84375 10.2416 10.6982 9.0625 12.3312 9.0625C12.6618 9.0625 12.9567 8.85437 13.0674 8.54289C13.2891 7.91906 13.8773 7.5 14.5312 7.5H16.0938C16.9553 7.5 17.6562 8.20094 17.6562 9.0625C17.6562 9.92406 16.9553 10.625 16.0938 10.625Z" fill="black"/>
</g>
<defs>
<clipPath id="clip0_83_544">
<rect width="40" height="40" fill="white"/>
</clipPath>
</defs>
</svg>
