<svg width="40" height="40" viewBox="0 0 40 40" fill="none" xmlns="http://www.w3.org/2000/svg">
<g clip-path="url(#clip0_83_561)">
<path d="M24.8162 15.1838C24.5108 14.8792 24.0162 14.8792 23.7115 15.1838C23.4061 15.4893 23.4061 15.9838 23.7115 16.2884C24.0162 16.5939 24.5108 16.5939 24.8162 16.2884C25.1209 15.9838 25.1209 15.4893 24.8162 15.1838Z" fill="black"/>
<path d="M39.0836 15.2792L37.9789 14.1745C38.0196 14.115 39.2179 13.1392 39.2179 11.318C39.2179 10.2744 38.8113 9.29346 38.0733 8.55588L37.5209 8.00346L38.0729 7.45096C39.5995 5.92651 39.6011 3.453 38.0735 1.92746C36.5474 0.400429 34.0766 0.399491 32.5502 1.92699L31.9971 2.47964L31.4449 1.92738C29.9187 0.400117 27.4471 0.399569 25.9204 1.92722L25.826 2.02168L24.7214 0.917147C23.5003 -0.303945 21.5239 -0.304804 20.3022 0.916912C19.0807 2.13746 19.0801 4.11495 20.3019 5.33589L24.7212 9.75518L9.75397 24.7223L5.33516 20.3035C4.11602 19.0824 2.13633 19.0806 0.91618 20.3028C-0.305615 21.5237 -0.305771 23.5009 0.916024 24.7227L2.02055 25.8273L1.92633 25.9215C0.399071 27.4476 0.398525 29.9192 1.92618 31.4459L2.4786 31.9983L1.92657 32.5508C0.399931 34.0753 0.398368 36.5488 1.92602 38.0744C3.45203 39.6013 5.92273 39.6025 7.44945 38.0748L8.00249 37.5222L8.55476 38.0744C10.0809 39.6017 12.5525 39.6023 14.0792 38.0746L14.1736 37.9802L15.2781 39.0848C16.4994 40.306 18.4758 40.3067 19.6975 39.085C20.919 37.8645 20.9196 35.887 19.6977 34.6661L15.2784 30.2468L30.2456 15.2796L34.6644 19.6984C35.8835 20.9195 37.8632 20.9213 39.0834 19.6991C40.3052 18.4781 40.3053 16.5009 39.0836 15.2792ZM33.655 3.03191C34.5684 2.11785 36.0502 2.11293 36.9689 3.03246C37.8845 3.94675 37.8856 5.43003 36.9684 6.34604L36.4162 6.8987L33.102 3.58449L33.655 3.03191ZM27.0255 3.03191C27.9411 2.11566 29.4237 2.11511 30.3399 3.03206L36.9687 9.66088C37.8849 10.5765 37.8855 12.0591 36.9685 12.9752L36.8742 13.0697L26.9309 3.12652L27.0255 3.03191ZM6.34445 36.9699C5.43109 37.884 3.9493 37.8889 3.03055 36.9693C2.11493 36.055 2.11391 34.5718 3.0311 33.6558L3.58328 33.1031L6.8975 36.4173L6.34445 36.9699ZM12.974 36.9699C12.0583 37.8861 10.5758 37.8867 9.6596 36.9697L3.03079 30.3409C2.11454 29.4253 2.11399 27.9427 3.03094 27.0265L3.12532 26.9321L13.0685 36.8753L12.974 36.9699ZM18.5929 35.771C19.2035 36.3809 19.204 37.3692 18.5927 37.9799C17.9805 38.5921 16.9926 38.5897 16.3828 37.9799C15.7297 37.3268 2.73563 24.3327 2.02079 23.6179C1.41509 23.0122 1.40469 22.0236 2.02126 21.4075C2.62899 20.7987 3.61836 20.7954 4.22985 21.408L18.5929 35.771ZM14.1734 29.1417L10.859 25.8273L25.8261 10.8601L29.1406 14.1746L14.1734 29.1417ZM37.9782 18.5943C37.3705 19.203 36.3811 19.2064 35.7696 18.5938L21.4066 4.23089C20.7961 3.62097 20.7956 2.63269 21.4068 2.02199C22.019 1.4098 23.0068 1.41222 23.6168 2.02199C24.3317 2.73691 37.336 15.7413 37.9787 16.384C38.5844 16.9896 38.5948 17.9783 37.9782 18.5943Z" fill="black"/>
<path d="M22.6063 17.3939C22.3011 17.0888 21.8064 17.0888 21.5014 17.3939L15.1836 23.7116C14.8786 24.0167 14.8786 24.5114 15.1836 24.8165C15.4887 25.1216 15.9834 25.1216 16.2885 24.8165L22.6062 18.4988C22.9114 18.1937 22.9114 17.6991 22.6063 17.3939Z" fill="black"/>
</g>
<defs>
<clipPath id="clip0_83_561">
<rect width="40" height="40" fill="white"/>
</clipPath>
</defs>
</svg>
