<svg width="40" height="40" viewBox="0 0 40 40" fill="none" xmlns="http://www.w3.org/2000/svg">
<g clip-path="url(#clip0_83_584)">
<path d="M29.606 17.0216C29.3005 16.7161 28.806 16.7161 28.5005 17.0216C28.1958 17.3263 28.1958 17.8208 28.5005 18.1263C28.806 18.4317 29.3005 18.4317 29.606 18.1263C29.9107 17.8208 29.9107 17.3263 29.606 17.0216Z" fill="black"/>
<path d="M39.3093 5.10849L34.8896 0.688902C33.9737 -0.226874 32.4914 -0.227186 31.5753 0.688902L30.1581 2.10608C29.5771 2.68717 29.3546 3.50537 29.5299 4.28287L23.1228 5.41341C21.6939 5.6663 20.3974 6.34168 19.374 7.36605L18.0043 8.73495C17.1023 9.63698 16.7347 10.8741 16.9011 12.0493C15.7171 11.8821 14.4903 12.2497 13.5857 13.1543C12.6823 14.0571 12.3129 15.2829 12.48 16.4694C11.2965 16.3029 10.0701 16.67 9.16608 17.574C8.28843 18.4516 7.88867 19.6668 8.06132 20.8903C6.88594 20.7237 5.64876 21.0913 4.74657 21.9934L1.59886 25.1403C-0.532927 27.2723 -0.533005 30.7419 1.59894 32.8749L7.12328 38.3992C9.25585 40.5307 12.7253 40.5312 14.8578 38.399L18.0045 35.2514C18.9067 34.3492 19.2743 33.1118 19.1076 31.9363C20.3256 32.1081 21.543 31.7129 22.424 30.8319C23.3258 29.9301 23.6933 28.693 23.5269 27.5175C24.7384 27.6886 25.9576 27.2992 26.8436 26.4124C27.7455 25.5105 28.113 24.2735 27.9466 23.0984C29.1696 23.271 30.3852 22.8716 31.2633 21.9935L32.6316 20.6244C33.6565 19.6005 34.3318 18.304 34.5847 16.8747L35.7151 10.4681C36.4912 10.643 37.3097 10.4222 37.892 9.83986L39.3092 8.42268C40.2252 7.50675 40.2254 6.0245 39.3093 5.10849ZM16.8996 34.1465L13.7529 37.2941C12.23 38.817 9.75147 38.8169 8.22804 37.2941L2.70393 31.7701C1.18105 30.2465 1.18105 27.768 2.70377 26.2452L5.85149 23.0983C6.76531 22.1844 8.25226 22.1844 9.16616 23.0983L16.8997 30.8318C17.8136 31.7457 17.8136 33.2326 16.8996 34.1465ZM21.3191 29.727C20.4056 30.6404 18.9217 30.6443 18.0045 29.727L10.2709 21.9935C9.35522 21.0777 9.35498 19.5948 10.271 18.6788C11.1861 17.7636 12.6679 17.7633 13.585 18.6783C13.5852 18.6785 13.5854 18.6786 13.5856 18.6789L21.3188 26.412L21.3189 26.4121C21.3189 26.4121 21.3189 26.4121 21.3189 26.4122C22.2326 27.3265 22.2327 28.8134 21.3191 29.727ZM25.7384 25.3078C24.8235 26.2238 23.3394 26.224 22.424 25.3075L14.6903 17.5738C13.774 16.6582 13.7736 15.1755 14.6905 14.2593C15.6068 13.343 17.0879 13.3428 18.0044 14.2593L25.7387 21.9936C26.6525 22.9072 26.6525 24.3938 25.7384 25.3078ZM33.046 16.6029C32.8493 17.7145 32.3241 18.7229 31.5268 19.5195L30.1582 20.8888C29.2444 21.8027 27.7575 21.8027 26.8436 20.8888L19.1092 13.1545C18.1954 12.2406 18.1954 10.7537 19.1091 9.83994L20.479 8.47081C21.2751 7.67394 22.2836 7.14879 23.3947 6.95207L30.4458 5.70794L34.2901 9.55229L33.046 16.6029ZM38.2043 7.31785L36.7872 8.73503C36.4819 9.04026 35.988 9.04034 35.6826 8.73503L31.2631 4.31544C30.9579 4.01005 30.9578 3.51631 31.2632 3.21092L32.6804 1.79374C32.9858 1.48843 33.4796 1.48851 33.7849 1.79374L38.2043 6.21332C38.5091 6.51817 38.5102 7.01183 38.2043 7.31785Z" fill="black"/>
<path d="M39.4854 29.5922L36.0042 22.772C35.8707 22.5106 35.6019 22.3459 35.3083 22.3459C35.0147 22.3459 34.746 22.5106 34.6125 22.772L31.1315 29.5919C29.5493 32.6873 31.8039 36.4084 35.3083 36.4084C38.8121 36.4084 41.0675 32.6879 39.4854 29.5922ZM35.3083 34.8459C32.9697 34.8459 31.4702 32.3623 32.523 30.3026L35.3083 24.8456L38.0939 30.3029C39.1453 32.3603 37.6492 34.8459 35.3083 34.8459Z" fill="black"/>
<path d="M27.3959 14.8115L23.624 11.0396C23.3189 10.7345 22.8243 10.7345 22.5191 11.0396C22.214 11.3447 22.214 11.8394 22.5191 12.1444L26.2909 15.9163C26.5961 16.2214 27.0906 16.2214 27.3959 15.9163C27.7009 15.6111 27.7009 15.1165 27.3959 14.8115Z" fill="black"/>
</g>
<defs>
<clipPath id="clip0_83_584">
<rect width="40" height="40" fill="white"/>
</clipPath>
</defs>
</svg>
