<svg width="40" height="40" viewBox="0 0 40 40" fill="none" xmlns="http://www.w3.org/2000/svg">
<path d="M18.4375 9.84375C18.0062 9.84375 17.6562 10.1937 17.6562 10.625C17.6562 11.0562 18.0062 11.4062 18.4375 11.4062C18.8687 11.4062 19.2188 11.0562 19.2188 10.625C19.2188 10.1937 18.8687 9.84375 18.4375 9.84375Z" fill="black"/>
<path d="M31.7188 19.2188C33.0111 19.2188 34.0625 18.1673 34.0625 16.875V15.3125C34.0625 14.0202 33.0111 12.9688 31.7188 12.9688H30.9375V12.1875C30.9375 9.2932 28.677 6.91828 25.8291 6.73195C25.1573 2.8932 24.9709 1.81789 24.9602 1.77492C24.6983 0.729844 23.763 0 22.6859 0H14.1891C13.112 0 12.1767 0.729844 11.9148 1.77492C11.9041 1.81789 11.7177 2.8932 11.0459 6.73195C8.19797 6.91828 5.9375 9.2932 5.9375 12.1875V27.8125C5.9375 30.7068 8.19797 33.0817 11.0459 33.268L11.9031 38.1697C11.9064 38.1883 11.9103 38.2067 11.9148 38.225C12.1767 39.2702 13.112 40 14.1891 40H22.6859C23.763 40 24.6983 39.2702 24.9602 38.2251C24.9648 38.2068 24.9686 38.1883 24.9719 38.1698L25.8291 33.2681C28.677 33.0817 30.9375 30.7068 30.9375 27.8125V27.0312H31.7188C33.0111 27.0312 34.0625 25.9798 34.0625 24.6875V23.125C34.0625 21.8327 33.0111 20.7812 31.7188 20.7812H30.9375V19.2188H31.7188ZM30.9375 14.5312H31.7188C32.1495 14.5312 32.5 14.8817 32.5 15.3125V16.875C32.5 17.3058 32.1495 17.6562 31.7188 17.6562H30.9375V14.5312ZM13.4365 2.13203C13.5316 1.79547 13.8377 1.5625 14.1891 1.5625H22.6859C23.0373 1.5625 23.3434 1.79547 23.4385 2.13203L24.2405 6.71875H12.6345L13.4365 2.13203ZM23.4385 37.868C23.3434 38.2045 23.0373 38.4375 22.6859 38.4375H14.1891C13.8377 38.4375 13.5316 38.2045 13.4365 37.868L12.6345 33.2812H24.2405L23.4385 37.868ZM29.375 27.8125C29.375 29.9664 27.6227 31.7188 25.4688 31.7188H11.4062C9.25234 31.7188 7.5 29.9664 7.5 27.8125V12.1875C7.5 10.0336 9.25234 8.28125 11.4062 8.28125C12.1627 8.28125 24.6722 8.28125 25.4688 8.28125C27.6227 8.28125 29.375 10.0336 29.375 12.1875C29.375 14.5458 29.375 25.3073 29.375 27.8125ZM31.7188 22.3438C32.1495 22.3438 32.5 22.6942 32.5 23.125V24.6875C32.5 25.1183 32.1495 25.4688 31.7188 25.4688H30.9375V22.3438H31.7188Z" fill="black"/>
<path d="M25.4688 9.84375H21.5625C21.1311 9.84375 20.7812 10.1935 20.7812 10.625C20.7812 11.0565 21.1311 11.4062 21.5625 11.4062H25.4688C25.8995 11.4062 26.25 11.7567 26.25 12.1875V19.2188H22.3438C22.0074 19.2188 21.7089 19.4339 21.6026 19.753L20.7812 22.217L19.9599 19.7529C19.8536 19.4339 19.5551 19.2188 19.2188 19.2188H18.2662L16.8517 13.5605C16.7648 13.2127 16.4523 12.9688 16.0938 12.9688C15.7352 12.9688 15.4227 13.2127 15.3359 13.5605L13.9213 19.2188H10.625V12.1875C10.625 11.7567 10.9755 11.4062 11.4062 11.4062H13.75C14.1814 11.4062 14.5312 11.0565 14.5312 10.625C14.5312 10.1935 14.1814 9.84375 13.75 9.84375H11.4062C10.1139 9.84375 9.0625 10.8952 9.0625 12.1875V27.8125C9.0625 29.1048 10.1139 30.1562 11.4062 30.1562H25.4688C26.7611 30.1562 27.8125 29.1048 27.8125 27.8125V12.1875C27.8125 10.8952 26.7611 9.84375 25.4688 9.84375ZM26.25 27.8125C26.25 28.2433 25.8995 28.5938 25.4688 28.5938H11.4062C10.9755 28.5938 10.625 28.2433 10.625 27.8125V20.7812H14.5312C14.8898 20.7812 15.2023 20.5373 15.2891 20.1895L16.0938 16.9712L16.8984 20.1895C16.9852 20.5373 17.2977 20.7812 17.6562 20.7812H18.6556L20.0401 24.9345C20.1464 25.2535 20.445 25.4688 20.7812 25.4688C21.1175 25.4688 21.4161 25.2536 21.5224 24.9345L22.9069 20.7812H26.25V27.8125Z" fill="black"/>
</svg>
