<svg width="40" height="40" viewBox="0 0 40 40" fill="none" xmlns="http://www.w3.org/2000/svg">
<g clip-path="url(#clip0_83_607)">
<path d="M33.75 25.9375C33.3187 25.9375 32.9688 26.2875 32.9688 26.7188C32.9688 27.15 33.3187 27.5 33.75 27.5C34.1812 27.5 34.5312 27.15 34.5312 26.7188C34.5312 26.2875 34.1812 25.9375 33.75 25.9375Z" fill="black"/>
<path d="M30.625 25.9375H29.0625C28.6311 25.9375 28.2812 26.2873 28.2812 26.7188C28.2812 27.1502 28.6311 27.5 29.0625 27.5H30.625C31.0564 27.5 31.4062 27.1502 31.4062 26.7188C31.4062 26.2873 31.0564 25.9375 30.625 25.9375Z" fill="black"/>
<path d="M18.4375 19.6875H16.0938V17.3438C16.0938 16.9123 15.744 16.5625 15.3125 16.5625H12.1875C11.756 16.5625 11.4062 16.9123 11.4062 17.3438V19.6875H9.0625C8.63102 19.6875 8.28125 20.0373 8.28125 20.4688V23.5938C8.28125 24.0252 8.63102 24.375 9.0625 24.375H11.4062V26.7188C11.4062 27.1502 11.756 27.5 12.1875 27.5H15.3125C15.744 27.5 16.0938 27.1502 16.0938 26.7188V24.375H18.4375C18.8689 24.375 19.2188 24.0252 19.2188 23.5938V20.4688C19.2188 20.0373 18.8689 19.6875 18.4375 19.6875ZM17.6562 22.8125H15.3125C14.881 22.8125 14.5312 23.1623 14.5312 23.5938V25.9375H12.9688V23.5938C12.9688 23.1623 12.619 22.8125 12.1875 22.8125H9.84375V21.25H12.1875C12.619 21.25 12.9688 20.9002 12.9688 20.4688V18.125H14.5312V20.4688C14.5312 20.9002 14.881 21.25 15.3125 21.25H17.6562V22.8125Z" fill="black"/>
<path d="M39.2188 32.1875H38.4375V24.5789C38.4375 23.7445 38.1713 22.9666 37.7314 22.3387L33.2942 16.0001C32.8565 15.3738 32.1387 15 31.3742 15H26.7188V13.75C26.7188 12.4577 25.6673 11.4062 24.375 11.4062H17.6562V8.59375C17.6562 6.43578 15.9083 4.6875 13.75 4.6875C11.5961 4.6875 9.84375 6.43984 9.84375 8.59375V11.4062H3.90625C2.61391 11.4062 1.5625 12.4577 1.5625 13.75V32.1875H0.78125C0.349766 32.1875 0 32.5373 0 32.9688C0 33.4002 0.349766 33.75 0.78125 33.75H4.43188C4.39477 34.0077 4.375 34.2684 4.375 34.5312C4.375 37.5467 6.82828 40 9.84375 40C12.8592 40 15.3125 37.5467 15.3125 34.5312C15.3125 34.2684 15.2927 33.9998 15.2556 33.7422H26.7756C26.7385 33.9998 26.7188 34.2684 26.7188 34.5312C26.7188 37.5467 29.172 40 32.1875 40C35.203 40 37.6562 37.5467 37.6562 34.5312C37.6562 34.2684 37.6365 34.0077 37.5994 33.75H39.2188C39.6502 33.75 40 33.4002 40 32.9688C40 32.5373 39.6502 32.1875 39.2188 32.1875ZM11.4062 8.59375C11.4062 7.30141 12.4577 6.25 13.75 6.25C15.0445 6.25 16.0938 7.29914 16.0938 8.59375V11.4062H11.4062V8.59375ZM9.84375 38.4375C7.68984 38.4375 5.9375 36.6852 5.9375 34.5312C5.9375 32.3702 7.69859 30.625 9.84375 30.625C11.9968 30.625 13.75 32.3773 13.75 34.5312C13.75 36.6852 11.9977 38.4375 9.84375 38.4375ZM25.1562 32.1875H14.7835C13.8855 30.2979 11.9659 29.0625 9.84375 29.0625C7.72141 29.0625 5.80188 30.298 4.90398 32.1875H3.125V13.75C3.125 13.3192 3.47547 12.9688 3.90625 12.9688H24.375C24.8058 12.9688 25.1562 13.3192 25.1562 13.75C25.1562 14.806 25.1562 31.8234 25.1562 32.1875ZM26.7188 16.5625H31.3742C31.629 16.5625 31.8679 16.6869 32.0139 16.8957L36.1558 22.8125H27.8237L29.615 21.0212C29.9201 20.7161 29.9201 20.2214 29.615 19.9162C29.3098 19.6112 28.8153 19.6112 28.5101 19.9162L26.7188 21.7076V16.5625ZM32.1875 38.4375C30.0336 38.4375 28.2812 36.6852 28.2812 34.5312C28.2812 32.3654 30.0466 30.625 32.1875 30.625C33.8387 30.625 35.3187 31.6717 35.8707 33.2296C35.8707 33.2297 35.8707 33.2298 35.8708 33.2298C36.0187 33.6472 36.0938 34.0851 36.0938 34.5312C36.0938 36.6852 34.3414 38.4375 32.1875 38.4375ZM36.875 31.7165C35.8993 30.0952 34.128 29.0625 32.1875 29.0625C30.0652 29.0625 28.1456 30.298 27.2477 32.1875H26.7188V24.375H36.8657C36.8716 24.4426 36.875 24.5105 36.875 24.5789V31.7165Z" fill="black"/>
<path d="M32.1875 32.1875C30.8952 32.1875 29.8438 33.2389 29.8438 34.5312C29.8438 35.8236 30.8952 36.875 32.1875 36.875C33.4798 36.875 34.5312 35.8236 34.5312 34.5312C34.5312 33.2389 33.4798 32.1875 32.1875 32.1875ZM32.1875 35.3125C31.7567 35.3125 31.4062 34.962 31.4062 34.5312C31.4062 34.1005 31.7567 33.75 32.1875 33.75C32.6183 33.75 32.9688 34.1005 32.9688 34.5312C32.9688 34.962 32.6183 35.3125 32.1875 35.3125Z" fill="black"/>
<path d="M9.84375 32.1875C8.55141 32.1875 7.5 33.2389 7.5 34.5312C7.5 35.8236 8.55141 36.875 9.84375 36.875C11.1361 36.875 12.1875 35.8236 12.1875 34.5312C12.1875 33.2389 11.1361 32.1875 9.84375 32.1875ZM9.84375 35.3125C9.41297 35.3125 9.0625 34.962 9.0625 34.5312C9.0625 34.1005 9.41297 33.75 9.84375 33.75C10.2745 33.75 10.625 34.1005 10.625 34.5312C10.625 34.962 10.2745 35.3125 9.84375 35.3125Z" fill="black"/>
<path d="M13.75 0C13.3185 0 12.9688 0.349766 12.9688 0.78125V2.34375C12.9688 2.77523 13.3185 3.125 13.75 3.125C14.1815 3.125 14.5312 2.77523 14.5312 2.34375V0.78125C14.5312 0.349766 14.1815 0 13.75 0Z" fill="black"/>
<path d="M7.5 7.8125H5.9375C5.50602 7.8125 5.15625 8.16227 5.15625 8.59375C5.15625 9.02523 5.50602 9.375 5.9375 9.375H7.5C7.93148 9.375 8.28125 9.02523 8.28125 8.59375C8.28125 8.16227 7.93148 7.8125 7.5 7.8125Z" fill="black"/>
<path d="M21.5625 7.8125H20C19.5686 7.8125 19.2188 8.16227 19.2188 8.59375C19.2188 9.02523 19.5686 9.375 20 9.375H21.5625C21.9939 9.375 22.3438 9.02523 22.3438 8.59375C22.3438 8.16227 21.9939 7.8125 21.5625 7.8125Z" fill="black"/>
<path d="M19.8268 2.5172C19.5216 2.21204 19.0271 2.21204 18.7219 2.5172L17.6172 3.62188C17.3122 3.92696 17.3122 4.42165 17.6172 4.72681C17.9223 5.03188 18.417 5.03188 18.7222 4.72681L19.8268 3.62212C20.1319 3.31704 20.1319 2.82235 19.8268 2.5172Z" fill="black"/>
<path d="M9.88278 3.62183L8.7781 2.51714C8.47302 2.21206 7.97833 2.21206 7.67317 2.51714C7.36802 2.82222 7.3681 3.3169 7.67317 3.62206L8.77786 4.72675C9.08294 5.03182 9.57763 5.03182 9.88278 4.72675C10.1879 4.42167 10.1879 3.92698 9.88278 3.62183Z" fill="black"/>
</g>
<defs>
<clipPath id="clip0_83_607">
<rect width="40" height="40" fill="white"/>
</clipPath>
</defs>
</svg>
