<svg width="40" height="40" viewBox="0 0 40 40" fill="none" xmlns="http://www.w3.org/2000/svg">
<g clip-path="url(#clip0_83_654)">
<path d="M18.4375 32.1875C18.0062 32.1875 17.6562 32.5375 17.6562 32.9688C17.6562 33.4 18.0062 33.75 18.4375 33.75C18.8687 33.75 19.2188 33.4 19.2188 32.9688C19.2188 32.5375 18.8687 32.1875 18.4375 32.1875Z" fill="black"/>
<path d="M37.6562 0H2.34375C1.05141 0 0 1.05141 0 2.34375V37.6562C0 38.9486 1.05141 40 2.34375 40H37.6562C38.9486 40 40 38.9486 40 37.6562V2.34375C40 1.05141 38.9486 0 37.6562 0ZM38.4375 37.6562C38.4375 38.087 38.087 38.4375 37.6562 38.4375H2.34375C1.91297 38.4375 1.5625 38.087 1.5625 37.6562V2.34375C1.5625 1.91297 1.91297 1.5625 2.34375 1.5625H37.6562C38.087 1.5625 38.4375 1.91297 38.4375 2.34375V37.6562Z" fill="black"/>
<path d="M34.0625 4.6875H5.9375C5.50602 4.6875 5.15625 5.03727 5.15625 5.46875V28.2812C5.15625 28.7127 5.50602 29.0625 5.9375 29.0625H34.0625C34.494 29.0625 34.8438 28.7127 34.8438 28.2812V5.46875C34.8438 5.03727 34.494 4.6875 34.0625 4.6875ZM33.2812 27.5H6.71875V19.2188H12.1875C12.4834 19.2188 12.7539 19.0516 12.8863 18.7869L13.6052 17.3488L14.5713 20.247C14.6777 20.566 14.9762 20.7812 15.3125 20.7812C15.6488 20.7812 15.9473 20.5661 16.0537 20.247L18.3303 13.4173L20.8046 23.3145C20.8868 23.6433 21.1716 23.8816 21.5096 23.9045C21.5274 23.9058 21.5452 23.9063 21.5628 23.9063C21.8803 23.9063 22.1687 23.7133 22.2879 23.4152L24.7668 17.218L25.5513 18.787C25.6836 19.0516 25.9541 19.2188 26.25 19.2188H33.2812V27.5ZM33.2812 17.6562H26.7328L25.3862 14.9631C25.2487 14.688 24.9632 14.5193 24.655 14.532C24.3476 14.5448 24.0763 14.7367 23.9621 15.0223L21.7344 20.5916L19.1954 10.4355C19.1111 10.0985 18.8145 9.85766 18.4674 9.8443C18.1205 9.83125 17.8062 10.0484 17.6962 10.378L15.3125 17.5295L14.4912 15.0655C14.3912 14.7657 14.1205 14.5556 13.8054 14.5332C13.4898 14.5109 13.1926 14.6805 13.0512 14.9631L11.7047 17.6562H6.71875V6.25H33.2812V17.6562Z" fill="black"/>
<path d="M9.0625 32.1875H5.9375C5.50602 32.1875 5.15625 32.5373 5.15625 32.9688C5.15625 33.4002 5.50602 33.75 5.9375 33.75H9.0625C9.49398 33.75 9.84375 33.4002 9.84375 32.9688C9.84375 32.5373 9.49398 32.1875 9.0625 32.1875Z" fill="black"/>
<path d="M15.3125 32.1875H12.1875C11.756 32.1875 11.4062 32.5373 11.4062 32.9688C11.4062 33.4002 11.756 33.75 12.1875 33.75H15.3125C15.744 33.75 16.0938 33.4002 16.0938 32.9688C16.0938 32.5373 15.744 32.1875 15.3125 32.1875Z" fill="black"/>
<path d="M32.5 30.625C31.2077 30.625 30.1562 31.6764 30.1562 32.9688C30.1562 34.2611 31.2077 35.3125 32.5 35.3125C33.7923 35.3125 34.8438 34.2611 34.8438 32.9688C34.8438 31.6764 33.7923 30.625 32.5 30.625ZM32.5 33.75C32.0692 33.75 31.7188 33.3995 31.7188 32.9688C31.7188 32.538 32.0692 32.1875 32.5 32.1875C32.9308 32.1875 33.2812 32.538 33.2812 32.9688C33.2812 33.3995 32.9308 33.75 32.5 33.75Z" fill="black"/>
<path d="M24.6875 30.625C23.3952 30.625 22.3438 31.6764 22.3438 32.9688C22.3438 34.2611 23.3952 35.3125 24.6875 35.3125C25.9798 35.3125 27.0312 34.2611 27.0312 32.9688C27.0312 31.6764 25.9798 30.625 24.6875 30.625ZM24.6875 33.75C24.2567 33.75 23.9062 33.3995 23.9062 32.9688C23.9062 32.538 24.2567 32.1875 24.6875 32.1875C25.1183 32.1875 25.4688 32.538 25.4688 32.9688C25.4688 33.3995 25.1183 33.75 24.6875 33.75Z" fill="black"/>
</g>
<defs>
<clipPath id="clip0_83_654">
<rect width="40" height="40" fill="white"/>
</clipPath>
</defs>
</svg>
