<svg width="40" height="40" viewBox="0 0 40 40" fill="none" xmlns="http://www.w3.org/2000/svg">
<path d="M5.46875 20.6228C5.0375 20.6228 4.6875 20.9728 4.6875 21.4041C4.6875 21.8353 5.0375 22.1853 5.46875 22.1853C5.9 22.1853 6.25 21.8353 6.25 21.4041C6.25 20.9728 5.9 20.6228 5.46875 20.6228Z" fill="black"/>
<path d="M40 23.3572C40 22.254 39.4889 21.2685 38.6916 20.6235C39.7075 19.8029 40.1524 18.5329 39.9523 17.3036C39.6805 15.6327 38.1268 14.3728 36.3382 14.3728C35.4761 14.3728 29.8129 14.3728 28.8962 14.3728L29.1277 13.6777C30.4518 9.70645 29.2222 5.46301 26.3079 2.98044C24.6802 1.57622 21.9031 2.04442 21.0501 4.36762C20.9906 4.5295 20.9865 4.70653 21.0382 4.87114C21.6872 6.93536 21.6963 8.32333 21.0699 9.66184C20.4204 11.05 19.023 12.5076 16.3973 14.5357C15.7671 15.0224 15.2162 15.3199 14.6834 15.6076C13.8442 16.0608 13.0474 16.4911 12.2237 17.4977H9.375V16.7165C9.375 16.285 9.02523 15.9352 8.59375 15.9352H0.78125C0.349766 15.9352 0 16.285 0 16.7165V37.0289C0 37.4604 0.349766 37.8102 0.78125 37.8102H8.59375C9.02523 37.8102 9.375 37.4604 9.375 37.0289V34.6852H13.757C16.0283 36.7028 18.9435 37.8102 22.0016 37.8102C23.8048 37.8102 29.8134 37.8102 31.7969 37.8102C33.7402 37.8102 35.3125 36.2381 35.3125 34.2946C35.3125 33.5724 35.0934 32.9004 34.7184 32.3414H34.9219C36.8652 32.3414 38.4375 30.7693 38.4375 28.8258C38.4375 28.0099 38.1573 27.2586 37.6892 26.6614C39.0242 26.1757 40 24.8904 40 23.3572ZM7.8125 36.2478H1.5625V17.4978H7.8125V36.2478ZM36.4844 25.3103C35.7245 25.3103 29.7857 25.3103 28.9844 25.3103C28.553 25.3103 28.2031 25.66 28.2031 26.0915C28.2031 26.523 28.553 26.8728 28.9844 26.8728H34.9219C35.9988 26.8728 36.875 27.7489 36.875 28.8259C36.875 29.9055 36.0018 30.779 34.9219 30.779C32.7305 30.779 30.7738 30.779 28.9844 30.779C28.553 30.779 28.2031 31.1288 28.2031 31.5603C28.2031 31.9918 28.553 32.3415 28.9844 32.3415H31.7969C32.8738 32.3415 33.75 33.2177 33.75 34.2947C33.75 35.3743 32.8768 36.2478 31.7969 36.2478C29.7523 36.2478 23.6775 36.2478 22.0016 36.2478C19.2362 36.2478 16.6051 35.2126 14.5927 33.3331C14.448 33.1979 14.2573 33.1228 14.0594 33.1228H9.375V19.0603H12.6062C12.8546 19.0603 13.0881 18.9422 13.2354 18.7422C13.9401 17.785 14.5634 17.4484 15.4261 16.9825C15.9865 16.6799 16.6216 16.3368 17.3527 15.7724C22.7016 11.6407 23.9255 9.10942 22.6151 4.68481C23.1331 3.6888 24.4252 3.42012 25.3429 4.21262C27.833 6.38934 28.7368 9.91067 27.6455 13.1838L27.2494 14.3729H26.25C25.8186 14.3729 25.4688 14.7227 25.4688 15.1542C25.4688 15.5857 25.8186 15.9354 26.25 15.9354C27.4498 15.9354 35.1058 15.9354 36.3383 15.9354C37.3692 15.9354 38.2599 16.6315 38.4102 17.5547C38.6138 18.8047 37.6532 19.8417 36.4845 19.8417C35.6841 19.8417 29.7467 19.8417 28.9845 19.8417C28.553 19.8417 28.2032 20.1915 28.2032 20.6229C28.2032 21.0544 28.553 21.4042 28.9845 21.4042C29.7443 21.4042 35.6831 21.4042 36.4845 21.4042C37.5614 21.4042 38.4376 22.2804 38.4376 23.3573C38.4375 24.4368 37.5643 25.3103 36.4844 25.3103Z" fill="black"/>
<path d="M5.46875 23.7478C5.03727 23.7478 4.6875 24.0976 4.6875 24.5291V32.3416C4.6875 32.773 5.03727 33.1228 5.46875 33.1228C5.90023 33.1228 6.25 32.773 6.25 32.3416V24.5291C6.25 24.0976 5.90023 23.7478 5.46875 23.7478Z" fill="black"/>
</svg>
