<svg width="40" height="40" viewBox="0 0 40 40" fill="none" xmlns="http://www.w3.org/2000/svg">
<g clip-path="url(#clip0_83_722)">
<path d="M34.4928 30.9368C34.0616 30.9368 33.7117 31.2868 33.7117 31.7179C33.7117 32.1491 34.0617 32.4991 34.4928 32.4991C34.9249 32.4991 35.274 32.1491 35.274 31.7179C35.274 31.2868 34.9249 30.9368 34.4928 30.9368Z" fill="black"/>
<path d="M39.9623 23.9129C39.9623 20.8535 38.2269 18.6007 35.3202 17.8867C31.512 16.9511 26.6538 18.8421 24.162 22.9181C23.125 22.5368 22.0574 22.3435 20.9789 22.3435C19.3676 22.3435 17.1356 22.7803 15.3877 23.7211C15.3013 22.6798 15.1769 21.8411 15.0762 21.1114C14.6896 18.4146 15.8452 16.5103 15.8886 16.3767C17.1546 17.2066 18.6434 17.6563 20.1719 17.6563C24.4795 17.6563 27.9839 14.1518 27.9839 9.84426C27.9839 5.53668 24.4795 2.03223 20.1719 2.03223C16.2897 2.03223 13.017 4.87129 12.4482 8.67879C8.07774 13.2585 4.34493 18.4071 1.35173 23.9867C0.0518845 26.4113 -0.427725 27.7664 0.435166 30.5668C0.805244 31.7673 1.32845 32.547 2.0347 32.95C7.85423 36.2754 15.2149 37.9675 21.7352 37.9675C25.6527 37.9675 29.9881 37.7308 35.1426 36.0132C40.7485 34.1367 39.9623 28.4875 39.9623 23.9129ZM20.172 3.59457C23.618 3.59457 26.4216 6.39816 26.4216 9.84418C26.4216 13.2902 23.618 16.0938 20.172 16.0938C16.7204 16.0938 13.9224 13.2943 13.9224 9.84418C13.9224 6.38668 16.7165 3.59457 20.172 3.59457ZM34.6476 34.5314C29.9804 36.0866 26.1102 36.4053 21.7352 36.4053C15.1573 36.4053 8.08235 34.6065 2.80946 31.5935C2.47837 31.4045 2.1654 30.8765 1.92821 30.1068C1.2297 27.8395 1.57212 26.8823 2.7286 24.7252C5.39228 19.76 8.65649 15.1447 12.4432 10.9789C12.6857 12.6346 13.4541 14.1721 14.6444 15.3641L14.3955 15.8743C12.9944 18.74 13.5349 21.2407 13.5351 21.3683C13.7092 22.577 13.8742 23.8704 13.9015 25.1406C13.9227 26.0938 13.8659 26.9227 13.7274 27.6746C13.6393 28.1537 14.007 28.5973 14.4966 28.5973C14.8662 28.5973 15.1948 28.3339 15.264 27.9573C15.4018 27.2085 15.469 26.4024 15.4681 25.5043C16.9294 24.4644 19.337 23.906 20.9789 23.906C22.5809 23.906 24.1263 24.4292 25.4797 25.3361C25.8381 25.5763 26.3234 25.4805 26.5635 25.1221C26.8038 24.7636 26.7079 24.2784 26.3495 24.0382C26.1023 23.8725 25.8488 23.7177 25.591 23.5746C27.8254 20.0574 31.9904 18.6775 34.9474 19.404C36.2367 19.7207 38.3998 20.7277 38.3998 23.913C38.3998 28.6138 39.0974 33.0419 34.6476 34.5314Z" fill="black"/>
<path d="M32.3927 32.7866C32.2835 32.3691 31.8566 32.1193 31.4392 32.2285C27.9058 33.1529 24.6867 33.2803 21.7343 33.2803C20.6653 33.2803 19.4603 33.2287 18.5109 33.1421C18.0805 33.1025 17.7011 33.4196 17.662 33.8492C17.6228 34.2789 17.9394 34.6589 18.369 34.6981C19.3627 34.7887 20.6207 34.8428 21.7342 34.8428C24.6445 34.8428 28.1203 34.7117 31.8345 33.74C32.252 33.631 32.5019 33.2041 32.3927 32.7866Z" fill="black"/>
<path d="M20.1718 5.15698C17.5873 5.15698 15.4846 7.25964 15.4846 9.84425C15.4846 12.4288 17.5873 14.5314 20.1718 14.5314C22.7563 14.5314 24.859 12.4288 24.859 9.84425C24.859 7.25972 22.7563 5.15698 20.1718 5.15698ZM20.1718 12.969C18.4488 12.969 17.047 11.5672 17.047 9.84417C17.047 8.12112 18.4488 6.71933 20.1718 6.71933C21.8949 6.71933 23.2967 8.12112 23.2967 9.84417C23.2967 11.5672 21.8949 12.969 20.1718 12.969Z" fill="black"/>
</g>
<defs>
<clipPath id="clip0_83_722">
<rect width="40" height="40" fill="white"/>
</clipPath>
</defs>
</svg>
