<svg width="40" height="40" viewBox="0 0 40 40" fill="none" xmlns="http://www.w3.org/2000/svg">
<g clip-path="url(#clip0_83_735)">
<path d="M20 35.3125C19.5687 35.3125 19.2188 35.6625 19.2188 36.0938C19.2188 36.525 19.5687 36.875 20 36.875C20.4312 36.875 20.7812 36.525 20.7812 36.0938C20.7812 35.6625 20.4312 35.3125 20 35.3125Z" fill="black"/>
<path d="M34.5312 0H5.46875C2.45328 0 0 2.45328 0 5.46875V34.5312C0 37.5467 2.45328 40 5.46875 40H34.5312C37.5467 40 40 37.5467 40 34.5312V5.46875C40 2.45328 37.5467 0 34.5312 0ZM38.4375 34.5312C38.4375 36.6852 36.6852 38.4375 34.5312 38.4375H5.46875C3.31484 38.4375 1.5625 36.6852 1.5625 34.5312V5.46875C1.5625 3.31484 3.31484 1.5625 5.46875 1.5625H34.5312C36.6852 1.5625 38.4375 3.31484 38.4375 5.46875V34.5312Z" fill="black"/>
<path d="M34.5312 3.125H30.9375C30.5061 3.125 30.1562 3.47477 30.1562 3.90625V13.5156C30.1562 14.808 29.1048 15.8594 27.8125 15.8594H12.1875C10.8952 15.8594 9.84375 14.808 9.84375 13.5156V3.90625C9.84375 3.47477 9.49391 3.125 9.0625 3.125H5.46875C4.17641 3.125 3.125 4.17641 3.125 5.46875V34.5312C3.125 35.8236 4.17641 36.875 5.46875 36.875H16.875C17.3064 36.875 17.6562 36.5252 17.6562 36.0938C17.6562 35.6623 17.3064 35.3125 16.875 35.3125H5.46875C5.03797 35.3125 4.6875 34.962 4.6875 34.5312V5.46875C4.6875 5.03797 5.03797 4.6875 5.46875 4.6875H8.28125V13.5156C8.28125 15.6695 10.0336 17.4219 12.1875 17.4219H27.8125C29.9664 17.4219 31.7188 15.6695 31.7188 13.5156V4.6875H34.5312C34.962 4.6875 35.3125 5.03797 35.3125 5.46875V34.5312C35.3125 34.962 34.962 35.3125 34.5312 35.3125H23.125C22.6936 35.3125 22.3438 35.6623 22.3438 36.0938C22.3438 36.5252 22.6936 36.875 23.125 36.875H34.5312C35.8236 36.875 36.875 35.8236 36.875 34.5312V5.46875C36.875 4.17641 35.8236 3.125 34.5312 3.125Z" fill="black"/>
<path d="M27.8125 3.125H12.1875C11.7561 3.125 11.4062 3.47477 11.4062 3.90625C11.4062 4.94945 11.4062 12.3022 11.4062 13.5156C11.4062 13.9471 11.7561 14.2969 12.1875 14.2969H27.8125C28.2439 14.2969 28.5938 13.9471 28.5938 13.5156C28.5938 12.5105 28.5938 4.8375 28.5938 3.90625C28.5938 3.47477 28.2439 3.125 27.8125 3.125ZM27.0312 12.7344H20.7812V10.3906C20.7812 9.95914 20.4314 9.60938 20 9.60938C19.5686 9.60938 19.2188 9.95914 19.2188 10.3906V12.7344H12.9688V11.6988C14.5812 9.40789 17.1922 8.04688 20 8.04688C22.8078 8.04688 25.4187 9.40789 27.0312 11.6988V12.7344ZM27.0312 9.31055C25.1597 7.51336 22.6543 6.48438 20 6.48438C17.3457 6.48438 14.8403 7.51336 12.9688 9.31055V4.6875H27.0312V9.31055Z" fill="black"/>
<path d="M13.8219 19.2188H13.75C11.5961 19.2188 9.84375 20.9711 9.84375 23.125V30.625C9.84375 31.4594 10.1689 32.244 10.7593 32.8345C11.3496 33.4248 12.1343 33.75 12.9688 33.75C14.6919 33.75 16.0938 32.3481 16.0938 30.625V29.9187C16.0938 27.2525 17.0825 25.6696 17.4488 24.576C18.473 22.0154 16.588 19.2188 13.8219 19.2188ZM15.998 23.9956C15.6439 25.0644 14.5312 26.8888 14.5312 29.9187V30.625C14.5312 31.4866 13.8303 32.1875 12.9688 32.1875C12.5517 32.1875 12.1595 32.0248 11.8641 31.7296C11.5689 31.4343 11.4062 31.042 11.4062 30.625V23.125C11.4062 21.8327 12.4577 20.7812 13.75 20.7812H13.8219C15.4725 20.7812 16.6182 22.4452 15.998 23.9956Z" fill="black"/>
<path d="M26.2501 19.2188H26.1782C23.416 19.2188 21.5259 22.0123 22.5513 24.5762C22.9101 25.6472 23.9063 27.2462 23.9063 29.9187V30.625C23.9063 32.3481 25.3082 33.75 27.0313 33.75C27.8658 33.75 28.6505 33.4248 29.2408 32.8345C29.8312 32.244 30.1563 31.4594 30.1563 30.625V23.125C30.1563 20.9711 28.404 19.2188 26.2501 19.2188ZM28.5938 30.625C28.5938 31.042 28.4312 31.4343 28.136 31.7296C27.8406 32.0248 27.4484 32.1875 27.0313 32.1875C26.1698 32.1875 25.4688 31.4866 25.4688 30.625V29.9187C25.4688 26.8844 24.3467 25.0357 24.0021 23.9959C23.3878 22.4597 24.5113 20.7812 26.1782 20.7812H26.2501C27.5424 20.7812 28.5938 21.8327 28.5938 23.125V30.625Z" fill="black"/>
</g>
<defs>
<clipPath id="clip0_83_735">
<rect width="40" height="40" fill="white"/>
</clipPath>
</defs>
</svg>
