<svg width="40" height="40" viewBox="0 0 40 40" fill="none" xmlns="http://www.w3.org/2000/svg">
<g clip-path="url(#clip0_83_754)">
<path d="M34.5312 27.0312C34.1 27.0312 33.75 27.3812 33.75 27.8125C33.75 28.2437 34.1 28.5938 34.5312 28.5938C34.9625 28.5938 35.3125 28.2437 35.3125 27.8125C35.3125 27.3812 34.9625 27.0312 34.5312 27.0312Z" fill="black"/>
<path d="M5.46875 27.0312C5.0375 27.0312 4.6875 27.3812 4.6875 27.8125C4.6875 28.2437 5.0375 28.5938 5.46875 28.5938C5.9 28.5938 6.25 28.2437 6.25 27.8125C6.25 27.3812 5.9 27.0312 5.46875 27.0312Z" fill="black"/>
<path d="M37.6562 19.2188H35.3125V5.46875C35.3125 2.45117 32.8713 0 29.8438 0C26.8712 0 23.9062 2.39719 23.9062 5.46875V18.4375C23.9062 19.4806 23.4999 20.4617 22.7626 21.1997C22.0242 21.9374 21.0431 22.3438 20 22.3438C17.8461 22.3438 16.0938 20.5914 16.0938 18.4375V5.46875C16.0938 2.40773 13.3706 0 10.3906 0C7.29922 0 4.6875 2.50437 4.6875 5.46875V19.2188H2.34375C1.04883 19.2188 0 20.2675 0 21.5625C0 22.5809 0.653203 23.4494 1.5625 23.7719V36.0938C1.5625 38.2477 3.31484 40 5.46875 40C7.62266 40 9.375 38.2477 9.375 36.0938V23.7731C10.2649 23.4591 10.9375 22.604 10.9375 21.5625C10.9375 20.2702 9.88609 19.2188 8.59375 19.2188H6.25V5.46875C6.25 3.38781 8.18492 1.5625 10.3906 1.5625C12.5281 1.5625 14.5312 3.29289 14.5312 5.46875V18.4375C14.5312 21.453 16.9845 23.9062 20 23.9062C21.4602 23.9062 22.8335 23.3376 23.8675 22.3045C24.9001 21.271 25.4688 19.8977 25.4688 18.4375V5.46875C25.4688 3.23305 27.7785 1.5625 29.8438 1.5625C32.0077 1.5625 33.75 3.31453 33.75 5.46875V19.2188H31.4062C30.1113 19.2188 29.0625 20.2675 29.0625 21.5625C29.0625 22.5809 29.7157 23.4494 30.625 23.7719V36.0938C30.625 38.2477 32.3773 40 34.5312 40C36.6852 40 38.4375 38.2477 38.4375 36.0938V23.7731C39.3274 23.4591 40 22.604 40 21.5625C40 20.2702 38.9486 19.2188 37.6562 19.2188ZM7.8125 36.0938C7.8125 37.3861 6.76109 38.4375 5.46875 38.4375C4.17641 38.4375 3.125 37.3861 3.125 36.0938V23.9062H7.8125V36.0938ZM8.59375 20.7812C9.02453 20.7812 9.375 21.1317 9.375 21.5625C9.375 21.9939 9.02508 22.3438 8.59375 22.3438H2.34375C1.91297 22.3438 1.5625 21.9933 1.5625 21.5625C1.5625 21.1311 1.91242 20.7812 2.34375 20.7812H8.59375ZM36.875 36.0938C36.875 37.3861 35.8236 38.4375 34.5312 38.4375C33.2389 38.4375 32.1875 37.3861 32.1875 36.0938V23.9062H36.875V36.0938ZM37.6562 22.3438H31.4062C30.9755 22.3438 30.625 21.9933 30.625 21.5625C30.625 21.1311 30.9749 20.7812 31.4062 20.7812H37.6562C38.087 20.7812 38.4375 21.1317 38.4375 21.5625C38.4375 21.9939 38.0876 22.3438 37.6562 22.3438Z" fill="black"/>
<path d="M5.46875 30.1562C5.03734 30.1562 4.6875 30.506 4.6875 30.9375V34.5312C4.6875 34.9627 5.03734 35.3125 5.46875 35.3125C5.90016 35.3125 6.25 34.9627 6.25 34.5312V30.9375C6.25 30.506 5.90016 30.1562 5.46875 30.1562Z" fill="black"/>
<path d="M34.5312 30.1562C34.0998 30.1562 33.75 30.506 33.75 30.9375V34.5312C33.75 34.9627 34.0998 35.3125 34.5312 35.3125C34.9627 35.3125 35.3125 34.9627 35.3125 34.5312V30.9375C35.3125 30.506 34.9627 30.1562 34.5312 30.1562Z" fill="black"/>
</g>
<defs>
<clipPath id="clip0_83_754">
<rect width="40" height="40" fill="white"/>
</clipPath>
</defs>
</svg>
