<svg width="40" height="40" viewBox="0 0 40 40" fill="none" xmlns="http://www.w3.org/2000/svg">
<g clip-path="url(#clip0_83_817)">
<path d="M33.7495 9.84375C33.3183 9.84375 32.9683 10.1937 32.9683 10.625C32.9683 11.0562 33.3183 11.4062 33.7495 11.4062C34.1808 11.4062 34.5308 11.0562 34.5308 10.625C34.5308 10.1937 34.1808 9.84375 33.7495 9.84375Z" fill="black"/>
<path d="M36.0933 12.1875C35.6619 12.1875 35.3121 12.5372 35.3121 12.9687C35.3121 13.8303 34.6112 14.5312 33.7496 14.5312C32.888 14.5312 32.1871 13.8303 32.1871 12.9687C32.1871 12.9085 32.1903 12.851 32.1965 12.7978C32.2471 12.3693 31.9408 11.9809 31.5122 11.9303C31.0835 11.8797 30.6954 12.186 30.6447 12.6146C30.6313 12.7282 30.6245 12.8474 30.6245 12.9686C30.6245 14.6918 32.0264 16.0936 33.7495 16.0936C35.4726 16.0936 36.8746 14.6918 36.8746 12.9687C36.8746 12.5372 36.5248 12.1875 36.0933 12.1875Z" fill="black"/>
<path d="M33.7497 6.71875C30.3035 6.71875 27.4997 9.5225 27.4997 12.9688C27.4997 15.5791 29.0956 17.8225 31.406 18.7616V26.875C31.406 31.2449 27.2442 35.0781 22.4997 35.0781C17.7714 35.0781 13.2677 30.848 13.6476 25.9564C17.3385 25.0344 20.182 22.0049 20.7821 18.1187L22.4602 7.94703C22.9474 5.12656 21.1788 2.40461 18.3973 1.70914L17.8949 1.58391C17.3459 0.609922 16.3192 0 15.1763 0C13.4531 0 12.0513 1.40188 12.0513 3.125C12.0513 4.84812 13.4531 6.25 15.1763 6.25C15.5742 6.25 15.9695 6.17234 16.336 6.02609L17.2604 6.25727C17.6554 6.35594 17.9104 6.74711 17.8409 7.14828L17.3346 10.078C17.3342 10.0807 17.3337 10.0834 17.3332 10.0862L16.1541 17.372C15.7811 19.8002 13.7271 21.5625 11.27 21.5625C8.81315 21.5625 6.75713 19.7883 6.38127 17.3438C6.38088 17.3409 6.38041 17.3381 6.37994 17.3353L4.69916 7.14773C4.62963 6.74703 4.88463 6.35586 5.27987 6.25711L6.20416 6.02602C6.57096 6.17242 6.96604 6.25 7.36377 6.25C9.0869 6.25 10.4888 4.84812 10.4888 3.125C10.4888 1.40188 9.0869 0 7.36377 0C6.2208 0 5.19408 0.609922 4.6451 1.58398L4.14307 1.7093C1.37908 2.40008 -0.40537 5.14023 0.0796305 7.94133L1.75401 18.0898C2.35236 21.9695 5.20252 25.0549 8.94783 25.9704C8.59643 33.3591 15.076 40 22.4997 40C29.4794 40 36.0935 34.3434 36.0935 27.1094V18.7616C38.3982 17.8248 39.9997 15.5852 39.9997 12.9688C39.9997 9.5225 37.196 6.71875 33.7497 6.71875ZM15.1763 4.6875C14.3147 4.6875 13.6138 3.98656 13.6138 3.125C13.6138 2.26344 14.3147 1.5625 15.1763 1.5625C16.0658 1.5625 16.7388 2.28539 16.7388 3.125C16.7388 3.99062 16.0381 4.6875 15.1763 4.6875ZM7.36377 1.5625C8.22533 1.5625 8.92627 2.26344 8.92627 3.125C8.92627 3.98656 8.22533 4.6875 7.36377 4.6875C6.50127 4.6875 5.80127 3.99023 5.80127 3.125C5.80127 2.28367 6.47596 1.5625 7.36377 1.5625ZM3.29776 17.8477C3.29737 17.8448 3.2969 17.842 3.29643 17.8392L1.62033 7.68078C1.28971 5.77125 2.43049 3.90609 4.24502 3.30656C4.27596 3.84422 4.44346 4.35375 4.7219 4.79437C3.6401 5.15875 2.96166 6.2732 3.15862 7.40844L4.8376 17.5854C5.33315 20.7955 8.03768 23.125 11.27 23.125C14.504 23.125 17.2075 20.8053 17.6975 17.6155L18.875 10.3397L19.3804 7.41484C19.5783 6.27352 18.8998 5.15859 17.8181 4.79445C18.0966 4.35375 18.2642 3.84422 18.295 3.30641C20.1094 3.90586 21.2504 5.77148 20.9196 7.68687L19.2399 17.8681C19.2394 17.8709 19.239 17.8737 19.2385 17.8764C18.6469 21.7189 15.3446 24.6978 11.2498 24.687C7.15838 24.6761 3.89088 21.705 3.29776 17.8477ZM34.531 27.1094C34.531 33.144 28.9089 38.4375 22.4997 38.4375C16.0041 38.4375 10.3056 32.6281 10.5027 26.2191C10.7578 26.2391 11.0141 26.25 11.2699 26.25C11.5367 26.25 11.8031 26.2386 12.0676 26.2172C11.8631 31.8977 17.0374 36.6406 22.4997 36.6406C27.8251 36.6406 32.9685 32.321 32.9685 26.875V19.1692C33.2265 19.2015 33.4872 19.2188 33.7497 19.2188C34.0122 19.2188 34.273 19.2015 34.531 19.1693V27.1094ZM33.6716 17.6547C31.0758 17.6123 29.0622 15.4696 29.0622 12.9688C29.0622 10.3841 31.165 8.28125 33.7497 8.28125C36.3344 8.28125 38.4372 10.3841 38.4372 12.9688C38.4372 15.5236 36.3389 17.6983 33.6716 17.6547Z" fill="black"/>
</g>
<defs>
<clipPath id="clip0_83_817">
<rect width="40" height="40" fill="white"/>
</clipPath>
</defs>
</svg>
