<svg width="40" height="40" viewBox="0 0 40 40" fill="none" xmlns="http://www.w3.org/2000/svg">
<path d="M33.1641 6.39331C32.7328 6.39331 32.3828 6.74331 32.3828 7.17456C32.3828 7.60581 32.7328 7.95581 33.1641 7.95581C33.5953 7.95581 33.9453 7.60581 33.9453 7.17456C33.9453 6.74323 33.5953 6.39331 33.1641 6.39331Z" fill="black"/>
<path d="M37.2233 5.60638C35.3588 3.51083 32.7727 2.35677 29.9414 2.35677C26.8454 2.35677 24.0202 3.55685 21.7716 5.82731C20.9896 6.61677 20.4052 7.40552 20 8.03146C19.5948 7.4056 19.0104 6.61692 18.2284 5.82731C15.9798 3.55677 13.1547 2.35669 10.0586 2.35669C4.13234 2.35669 0 7.31458 0 13.2091C0 21.1715 8.43781 27.8758 19.4884 37.4526C19.6352 37.5798 19.8176 37.6434 20 37.6434C20.1824 37.6434 20.3648 37.5798 20.5116 37.4526C31.5885 27.8529 40 21.1604 40 13.2091C40 10.3189 39.0139 7.61888 37.2233 5.60638ZM20 35.8287C9.56492 26.7987 1.5625 20.3131 1.5625 13.2091C1.5625 7.91302 5.215 3.91927 10.0586 3.91927C12.748 3.91927 15.1102 4.91817 17.0798 6.8881C18.5802 8.38888 19.2803 9.92052 19.2872 9.93583C19.4129 10.2161 19.6916 10.3961 19.9988 10.3967C19.9993 10.3967 19.9998 10.3967 20.0003 10.3967C20.3075 10.3967 20.5866 10.216 20.7129 9.93583C20.7198 9.92052 21.4198 8.38896 22.9203 6.8881C24.8898 4.9181 27.252 3.91927 29.9415 3.91927C34.7851 3.91927 38.4376 7.91302 38.4376 13.2091C38.4375 20.4735 29.907 27.2557 20 35.8287Z" fill="black"/>
<path d="M35.8964 9.17662C35.6961 8.79443 35.2238 8.64725 34.8418 8.84756C34.4597 9.04795 34.3123 9.52014 34.5127 9.90225C35.0284 10.8856 35.3124 12.06 35.3124 13.209C35.3124 15.4665 34.2379 17.8626 31.931 20.7494C31.6616 21.0865 31.7165 21.5781 32.0536 21.8475C32.3928 22.1186 32.8839 22.0598 33.1516 21.7249C35.6918 18.5462 36.8749 15.8401 36.8749 13.209C36.8749 11.7915 36.5365 10.3972 35.8964 9.17662Z" fill="black"/>
<path d="M27.5 17.3308H23.125V12.9558C23.125 12.5243 22.7752 12.1746 22.3438 12.1746H17.6562C17.2248 12.1746 16.875 12.5243 16.875 12.9558V17.3308H12.5C12.0685 17.3308 11.7188 17.6806 11.7188 18.1121V22.7996C11.7188 23.231 12.0685 23.5808 12.5 23.5808H16.875V27.9558C16.875 28.3873 17.2248 28.7371 17.6562 28.7371H22.3438C22.7752 28.7371 23.125 28.3873 23.125 27.9558V23.5808H27.5C27.9315 23.5808 28.2812 23.231 28.2812 22.7996V18.1121C28.2812 17.6806 27.9315 17.3308 27.5 17.3308ZM26.7188 22.0182H22.3438C21.9123 22.0182 21.5625 22.368 21.5625 22.7995V27.1745H18.4375V22.7995C18.4375 22.368 18.0877 22.0182 17.6562 22.0182H13.2812V18.8932H17.6562C18.0877 18.8932 18.4375 18.5435 18.4375 18.112V13.737H21.5625V18.112C21.5625 18.5435 21.9123 18.8932 22.3438 18.8932H26.7188V22.0182Z" fill="black"/>
</svg>
