<svg width="26" height="24" viewBox="0 0 26 24" fill="none" xmlns="http://www.w3.org/2000/svg">
<path d="M9.68667 15.5723C4.73191 15.5723 0.5 16.3377 0.5 19.3968C0.5 22.4584 4.705 23.2501 9.68667 23.2501C14.6414 23.2501 18.8733 22.4847 18.8733 19.4256C18.8733 16.364 14.6683 15.5723 9.68667 15.5723Z" fill="#24BEE0"/>
<path opacity="0.4" d="M9.68669 12.656C13.0612 12.656 15.7655 10.0077 15.7655 6.70301C15.7655 3.39831 13.0612 0.75 9.68669 0.75C6.3134 0.75 3.60791 3.39831 3.60791 6.70301C3.60791 10.0077 6.3134 12.656 9.68669 12.656Z" fill="#24BEE0"/>
<path opacity="0.4" d="M18.2167 6.81104C18.2167 8.49393 17.7006 10.0642 16.7955 11.3686C16.7013 11.5028 16.7845 11.6836 16.9484 11.7124C17.1759 11.7495 17.4095 11.7723 17.648 11.7771C20.0208 11.8382 22.1502 10.3421 22.7385 8.08908C23.6106 4.74605 21.0519 1.74438 17.7923 1.74438C17.4388 1.74438 17.1 1.78032 16.7698 1.8462C16.7245 1.85578 16.6756 1.87734 16.6512 1.91567C16.6194 1.96478 16.6426 2.02826 16.6744 2.07018C17.6541 3.4153 18.2167 5.05268 18.2167 6.81104Z" fill="#24BEE0"/>
<path d="M25.2238 15.9617C24.7896 15.055 23.7414 14.4333 22.1465 14.1279C21.3943 13.9482 19.3566 13.6931 17.4621 13.729C17.4339 13.7326 17.418 13.7518 17.4156 13.7637C17.4119 13.7829 17.4205 13.8117 17.4572 13.832C18.3329 14.256 21.7172 16.1006 21.2916 19.991C21.2732 20.1611 21.4114 20.3049 21.5839 20.2809C22.4168 20.1647 24.5597 19.7132 25.2238 18.3094C25.592 17.5667 25.592 16.7043 25.2238 15.9617Z" fill="#24BEE0"/>
</svg>
